<?xml version="1.0" standalone="no"?>
<!DOCTYPE svg PUBLIC "-//W3C//DTD SVG 1.1//EN" "http://www.w3.org/Graphics/SVG/1.1/DTD/svg11.dtd" >
<svg xmlns="http://www.w3.org/2000/svg" xmlns:xlink="http://www.w3.org/1999/xlink" version="1.1">
<metadata></metadata>
<defs>
<font id="sweetleafregular" horiz-adv-x="804" >
<font-face units-per-em="2048" ascent="1638" descent="-410" />
<missing-glyph horiz-adv-x="886" />
<glyph unicode="&#xd;" horiz-adv-x="886" />
<glyph unicode=" "  horiz-adv-x="886" />
<glyph unicode="&#x09;" horiz-adv-x="886" />
<glyph unicode="&#xa0;" horiz-adv-x="886" />
<glyph unicode="!" horiz-adv-x="540" d="M408 47l-19 -8q14 14 14 45q0 16 -8 33q-8 -8 -18 -19v25q-2 27 -17 37q-2 -4 -4 -10l-4 8l-2 -4q-4 16 -12 29.5t-14 17.5l-2 -4q-6 4 -13 4v-8q-23 25 -47 24l2 -10q-4 2 -10 2v-2q-45 12 -61 6q8 -6 14 -12q-4 -2 -6 -2v-2q-39 8 -66 -21l21 -8q-45 4 -64 -47 q10 0 25 -2q-37 -23 -35 -53q14 6 24 10q-27 -20 -26 -56q0 -12 6 -20l20 16q-16 -31 13 -63q6 12 12 22q6 -43 31 -55q-2 10 0 21q2 0 4 -2q6 -23 24 -31q2 6 3 14l8 -4q20 -14 47 -20q0 4 -10 20q39 -35 63 -29q-4 8 -14 21q37 -16 67 14l-16 8q0 -4 27.5 15.5t31.5 32.5 q-14 -2 -26 -3q41 15 37 70zM410 905q39 55 34 88l-36 -20q47 55 47 98q0 8 -2 16l-37 -14q33 49 28 94l-34 -16q27 70 24 102q-10 -10 -24 -20q2 6 4 14q16 29 18 58l-45 -15q27 25 23 80q-18 -8 -33 -16q14 53 8 88l-27 -15q2 57 -10 109q-6 18 -2 145q2 53 -37 152 q14 -172 -47 -295q-25 -51 -24 -84q0 -35 18 -43l-47 21q-12 -45 6 -84l-35 14q-6 -12 -6 -29q0 -31 23 -61q-37 8 -47 22q-8 -14 -9 -28q0 -27 23 -49l-29 10q-14 -61 21 -94l-31 12q-18 -41 20 -96q-12 0 -36 20q-6 -12 -7 -29q0 -37 33 -79q-33 10 -41 18 q-10 -39 41 -100l-35 16q-6 -8 -6 -21q0 -37 47 -92q-14 6 -41 25q-12 -37 41 -107l-45 19q14 -37 49 -105l-39 19q-2 -39 39 -86l-22 2q12 -25 51 -78l-20 2q25 -57 51 -113q31 -70 39 -133q10 53 45 148q23 43 45 86q-14 2 -43 -17q39 31 88 86q-25 2 -37 -2q25 27 57 99 l-28 -6q23 39 51 102l-37 -14q12 14 23 30q23 39 24 78l-31 -10q47 51 45 108z" />
<glyph unicode="&#x22;" horiz-adv-x="684" d="M254 1663q12 2 29 -2q-12 43 -60 41q14 6 31 6q-25 37 -107 37q-84 0 -108 -37q18 0 31 -6q-45 2 -60 -41q18 4 29 2q-10 -6 -23 -10q-14 -12 -16 -37l23 2v0q-16 -16 -17 -43q2 -2 37 8q-33 -18 -31 -41q31 6 35 6q-31 -18 -27 -37l29 5q-14 -8 -29 -35l35 10 q-39 -18 -30 -45l26 8q-23 -10 -22 -27q0 -4 4 -10l28 6q-20 -12 -20 -26q0 -6 2 -11q8 4 20 9q-2 -4 -4 -6q-12 -14 -8 -27l33 10q-23 -8 -12 -37q10 10 22 15q-14 -18 -2 -39l19 10l36 -57l35 57l19 -10q12 20 -2 39q6 -2 24 -15q10 29 -12 37l31 -10q4 12 -9 27 q-2 2 -4 6q6 -2 21 -9q2 4 2 11q0 14 -21 26l29 -6q4 6 4 10q0 16 -22 27l26 -8q8 27 -30 45l34 -10q0 29 -28 35q2 0 30 -5q2 18 -26 37q2 0 26 -4q4 18 -26 43q35 -14 37 -12q2 27 -13 43h15q-2 29 -33 45zM586 1618h16q-2 29 -33 45q12 2 29 -2q-12 43 -59 41q14 6 30 6 q-25 37 -108 37q-82 0 -107 -37q16 0 31 -6q-47 2 -59 -41q16 4 28 2q-10 -6 -22 -10q-16 -12 -17 -37l23 2v0q-18 -16 -16 -43q2 -2 36 8q-33 -18 -30 -41q31 6 32 6q-29 -18 -26 -37l31 5q-14 -8 -29 -35l35 10q-39 -18 -31 -45l27 8q-23 -10 -23 -27q0 -4 4 -10l29 6 q-20 -12 -21 -26q0 -6 2 -11q8 4 21 9q-2 -4 -4 -6q-12 -14 -8 -27l32 10q-23 -8 -14 -37q12 10 25 15q-14 -18 -2 -39l18 10l35 -57l37 57l18 -10q12 20 -2 39q6 -2 25 -15q8 29 -15 37l33 -10q4 12 -8 27q-2 2 -4 6q6 -2 20 -9q8 23 -18 37l28 -6q4 6 5 10q0 16 -23 27 l27 -8q8 27 -31 45l35 -10q-2 29 -29 35q2 0 31 -5q2 18 -27 37q2 0 27 -4q4 18 -27 43q35 -14 37 -12q0 27 -14 43z" />
<glyph unicode="#" horiz-adv-x="1261" d="M571 1143l35 -17q4 6 4 21q0 43 -47 108q29 -14 41 -26q12 43 -43 119l47 -17q-4 27 -55 117l39 -16q0 45 -47 96l24 -2q-16 29 -59 86l22 -2l-135 243q4 -104 -12 -153l-35 -98q14 -2 41 22q-35 -39 -80 -104q25 0 37 6q-20 -31 -47 -113l27 8q-20 -45 -47 -114l38 16 q-14 -16 -22 -35q-23 -43 -25 -88l31 14q-45 -59 -43 -120l10 2q6 2 27 8q-39 -61 -35 -98l39 24q-59 -80 -49 -129l37 17q-35 -55 -33 -107l37 18q-31 -78 -31 -112q10 10 27 20q-2 -6 -6 -14q-16 -33 -21 -66l45 15q-14 -10 -28 -86q18 8 36 14q-18 -59 -16 -98l29 14 q-6 -82 -2 -123q4 -20 -15 -164q-8 -59 17 -176q2 57 12 113q20 129 72 219q35 63 34 104q0 29 -16 41l45 -26q16 59 0 96l33 -16q8 16 8 39q0 33 -18 65q37 -10 47 -29q8 20 8 41q0 29 -18 50l26 -13q18 74 -14 111l31 -17q6 14 6 35q0 39 -23 80q12 -2 37 -22q6 12 6 30 q0 45 -33 93q33 -10 41 -21q10 47 -41 117zM924 678q33 59 26 117q-12 -4 -28 -15q27 63 20 97l-29 -27q31 57 31 100q0 12 -4 23l-27 -19q20 55 15 101l-27 -19q16 74 12 107q-8 -12 -18 -25q0 8 2 17q10 31 10 59l-35 -16q20 27 15 79q-14 -8 -27 -16q10 55 4 90l-22 -16 q0 33 -11 112q-6 23 -2 150q2 55 -26 158q6 -180 -39 -312q-18 -51 -19 -86l17 -47l-37 21q-10 -57 8 -88l-28 10q-14 -45 18 -92q-29 4 -41 20q-12 -53 18 -82l-22 8q-6 -68 22 -96l-26 10q-10 -45 26 -98q-20 -2 -32 17q-12 -53 30 -109q-27 8 -32 14q-6 -41 39 -98 l-29 12q-14 -39 41 -112q-12 6 -35 22q-8 -39 39 -104l-37 14q14 -39 45 -104l-33 16q0 -39 35 -86l-18 2q12 -27 43 -78l-17 2q41 -96 90 -229q6 57 21 139l35 90q-12 2 -35 -18q31 35 68 96q-18 0 -29 -6q18 29 41 106l-21 -8q16 43 35 111l-29 -19q33 57 31 119z M1112 1112q-57 29 -96 29q-31 0 -43 -17l24 45q-57 16 -92 0l15 33q-14 10 -37 10q-31 0 -62 -20q10 37 27 47q-18 8 -39 8q-27 0 -47 -18l12 28q-68 16 -104 -16l16 33q-47 18 -108 -17q0 12 22 37q-16 8 -39 9q-39 0 -80 -27q14 33 23 41q-41 14 -113 -31l19 33 q-8 6 -27 6q-39 0 -100 -37q18 27 30 39q-39 16 -118 -33l22 45q-47 -14 -119 -39l21 35q-41 8 -96 -28l6 24q-31 -10 -92 -43l4 21q-129 -45 -260 -86q49 -6 145 -41l90 -54q6 10 -14 46q31 -43 90 -99q2 25 -2 37q27 -27 104 -68l-6 29q80 -51 111 -59l-13 39 q14 -14 33 -27q41 -27 86 -31l-10 31q16 -14 33 -27q43 -27 84 -28q-2 8 -9 37q59 -43 97 -43l-23 41q76 -70 127 -58l-14 39q53 -37 104 -35l-16 37q37 -16 113 -33q-10 10 -21 27q6 -2 14 -4q33 -18 66 -23l-14 45q10 -14 86 -28q-8 18 -17 35q59 -18 99 -15l-15 29 q63 -6 121 6q20 4 162 -2q59 -4 168 31q-193 -8 -328 55zM1182 559q-66 61 -70 62q-6 -8 4 -37q-31 72 -63 96q-6 -18 -4 -31q-41 51 -86 72l2 -25q-66 53 -95 66l9 -33q-12 12 -27 25q-35 27 -76 32l8 -24q-14 12 -30 22q-35 25 -74 31q4 -12 8 -31q-25 18 -86 39l19 -32 q-66 57 -109 51l12 -31q-23 14 -92 33l14 -31q-33 14 -96 31q8 -8 17 -23q-6 2 -13 6q-29 16 -55 21l10 -37q-8 10 -71 27q6 -14 10 -29q-49 18 -82 18l10 -24q-61 10 -104 8q-23 -2 -138 25q-57 14 -151 8q49 -10 94 -25q109 -33 184 -76q57 -33 95 -32q20 0 28 8l-24 -33 q51 -18 84 -6l-17 -27q16 -8 39 -8q25 0 51 12q-10 -29 -26 -36q18 -8 39 -9q23 0 37 13l-11 -21q45 2 93 6l-15 -24q45 2 94 6q-2 -10 -20 -29q14 -8 37 -8q31 0 65 18q-6 -12 -20 -30q35 -14 96 18l-16 -24q8 -8 28 -9q33 0 80 23q-8 -10 -28 -29q33 -16 102 13l-23 -33 q47 0 103 16l-23 -26q31 -10 84 10l-6 -19q25 4 82 19l-8 -17q117 8 235 -2q-75 39 -114 76z" />
<glyph unicode="$" horiz-adv-x="1585" d="M82 1559v0q2 0 0 0zM948 1569q-92 37 -151 37q-43 0 -58 -17l33 45q-94 14 -141 -8l16 37q-76 16 -151 -31q2 18 30 51q-90 12 -135 -38l8 30l-24 4q-33 -14 -84 -44.5t-55 -37.5l6 39q-16 0 -54 -20q-66 -37 -108 -115q-8 8 -8 23q0 14 10 35q-111 -68 -111 -213 q0 -25 4 -52q-33 23 -36 52q0 6 -3.5 -11.5t-3.5 -40.5q0 -133 103 -202q-14 2 -45 6q16 -37 33 -56q57 -66 163 -84q-39 -12 -59 -8q72 -63 190 -59l-43 -31q55 -18 123 -18q33 0 64 6l-35 -31q25 -10 59 -10q43 0 88 16l-6 -22q45 6 131 35l-4 -23q152 31 348 105 q-41 0 -77 2q-86 6 -129 22q-66 25 -127 53q-6 -14 22 -45q-45 43 -121 105q-4 -23 0 -37q-33 31 -123 86l2 -29l-108 96v-43q-18 35 -76 105l-12 -29q-2 37 -8 66q-12 -2 -31 -6q-2 4 13.5 6t13.5 6q-10 4 -35 10q16 0 30 2q37 4 58 25l-33 24q29 0 115 23l-33 26 q47 0 139 9q-18 12 -35 22q0 2 31 -4q41 -8 78 -6l-29 41q41 -20 119 -14q-6 10 -24 34q90 -14 133 -10l-23 29q84 -8 170 -2q47 2 225 -35q94 -20 244 -20q-76 16 -154 36q-178 50 -309 103zM1393 711q12 0 49 -6q-18 35 -43 61q-72 70 -197 100q43 10 68 4q-23 20 -53 37 q-78 39 -187 43l49 31q-84 27 -176 27q-35 0 -67 -4l41 30q-31 8 -76 8q-59 0 -117 -18l4 23q-106 -14 -166 -46v21q-223 -57 -432 -180q133 33 232 32q70 0 219 -34q4 14 -39 43l76 -42q75 -42 102 -53q2 27 -8 37q51 -29 176 -86l-6 31q2 0 71.5 -48t87.5 -65l-10 45 q57 -70 131 -139l6 35q18 -45 54 -137q23 14 30 24q6 -16 -22 -71q16 0 41 6q-29 -12 -105 -68l39 -16q-35 -8 -149 -43l41 -23q0 -2 -72 -8q-88 -8 -121 -12q12 -4 45 -19l4 -2q0 -2 -43 2q-55 6 -106 7l37 -43q-53 20 -162 16l37 -35q2 8 -180 17l28 -31q-61 6 -221 22 q-94 12 -283 109q-76 39 -178 98.5t-102 65.5q-4 -16 168 -138q199 -139 383 -219q133 -57 217 -57q49 0 61 14q-12 -16 -41 -45q6 -10 88 -6q78 4 99 12l-23 -36q102 -16 199 32q-6 -37 -41 -53h65q74 10 113 43l-12 -31q43 10 84 19q94 31 131 78l-12 -41q10 -6 69 30 q86 51 135 160q10 -14 11 -22q0 -18 -13 -45q23 27 45 53q55 80 56 170q0 61 -27 121q18 -10 47 -47q-6 45 -14 92q-37 111 -135 170zM707 700q-4 -2 -17 -14l-6 -6q20 84 21 147l-23 -41q33 109 25 191l-21 -29q16 74 14 158l-20 -31q14 104 14 166q-6 -16 -16 -35 q0 -2 -2 -2q8 25 16 121l-26 -27q14 33 12 127q-10 -14 -21 -26q8 76 7 141l-17 -24q0 92 -8 174q-2 70 0 233q0 45 -23 242q10 -244 -28 -484q-14 -88 -15 -145q0 -47 13 -59l-29 28q-8 -78 4 -135l-20 16q-4 -18 -4 -43q0 -47 14 -100q-23 8 -29 33q-4 -25 -4 -47 q0 -45 14 -78l-16 12q-4 -25 -4 -47q0 -63 16 -104l-18 18q-4 -16 -4 -37q0 -53 18 -119q-14 -2 -24 27q-2 -18 -2 -39q0 -59 20 -131q-18 12 -24 25q-8 -55 26 -158l-22 20q-2 -12 -2 -28q0 -55 30 -150q-18 18 -26 35q-8 -51 28 -166l-28 23q6 -70 32 -162l-22 20 q-4 -53 27 -131h-15q16 -74 33 -116h-12l78 -344q-2 133 10 219l20 143q-6 4 -24 -33q41 102 49 154q-14 -2 -21 -12q25 84 29 163l-16 -12q25 125 28 170l-22 -29q25 74 24 181l-16 -21q25 78 25 178zM1004 791q8 55 -27 157l22 -18q2 10 2 28q0 55 -28 148q16 -18 24 -33 q8 49 -28 164l28 -23q-6 70 -32 164l22 -22q4 53 -26 131h14q-16 74 -33 119h12l-77 342q2 -133 -9 -219l-22 -144q6 -4 24 33q-41 -102 -49 -154q14 2 21 13q-25 -84 -29 -164l16 14q-23 -127 -26 -172l20 29q-25 -72 -24 -180l16 20q-25 -76 -24 -178l16 16q4 4 6 4 q-20 -82 -18 -145l22 39q-35 -109 -26 -191l22 29q-18 -72 -16 -158l20 31q-14 -102 -14 -166q6 18 16 35q0 2 2 4q-8 -27 -16 -123l26 29q-14 -33 -12 -129q10 16 21 29q-8 -78 -6 -144l16 27q0 -94 8 -174q2 -72 0 -234q0 -47 23 -243q-10 246 28 483q14 88 15 145 q0 49 -13 62l29 -31q8 78 -4 137l20 -18q4 20 5 43q0 49 -15 100q23 -6 29 -31q4 23 4 47q0 45 -14 76l18 -12q2 25 2 49q0 63 -16 103l20 -17q2 16 2 35q0 53 -18 119q16 2 24 -27q4 18 4 41q0 59 -22 129q21 -12 25 -24z" />
<glyph unicode="%" horiz-adv-x="1447" d="M637 1221q8 -70 -27 -203q-4 -16 -51 -73.5t-49 -53.5l37 -6q-29 -33 -125 -62l-12 4q25 -14 36 -20q-39 -14 -71 -14q-66 0 -76 20q12 -23 29 -45q-74 10 -142 66q20 -35 31 -46q-55 25 -100 80q-6 8 -39 56l-2 -45q-63 100 -84 163l-17 -45q-33 41 -32 117q0 70 18 107 q-14 -16 -31 -43q-2 12 -2 24q0 35 23.5 93.5t25.5 54.5l-38 -17q14 74 67 131q35 39 47 41l-35 -2q41 63 109 103q29 8 59 20q-33 6 -49 6q25 25 113 47q61 16 82 17q6 0 8 -4l-23 20q25 8 54 8q96 0 153 -47q-8 10 -6 35q39 -6 82 -61q33 -45 49 -93q0 31 6 35 q10 8 25.5 -66.5t13.5 -101.5q-6 -78 8 -194q-25 47 -75 143q-45 80 -97 103l19 10q-35 8 -78 -10l8 20q-63 -45 -69 -39l8 39q-4 -6 -29 -47q-16 -25 -35 -33l-10 45q-27 -90 -43 -96q-10 31 -16 43q0 -100 -19 -111l-26 25q29 -80 18 -92q-23 14 -39 20q37 -49 37 -82 q-14 8 -41 4q53 -33 53 -55l-30 -10q27 -4 51 -25q10 -10 22 -20l-22 -15q33 0 47 -10q-18 -25 -27 -41q39 25 62 15l-4 -33q43 27 65 31q4 -20 4 -45q0 25 103 92q61 55 61 145q0 111 -61 195q88 -86 98 -172zM539 1393l-4 4q2 0 4 -4zM1368 215l4 -61l-20 10 q6 -84 -56 -144l-6 46q-25 -66 -84 -113l-53 -33q8 25 12 51q-72 -66 -153 -65q-23 0 -49 4q37 23 49 33q-33 -12 -70 -13q-68 0 -117 37q-23 20 -34 31l36 12q-76 14 -122 66q-6 8 -29 45q12 -10 49 -6q-68 45 -94 118q-4 33 -10 62q16 -31 43 -25q-39 59 -39 127 q0 45 10 58l27 -25q-8 18 -9 45q0 29 17.5 79t19.5 44l19 -23q-6 31 24.5 83.5t32.5 41.5q-8 -27 16 -55q14 76 92 123l7 -37q27 53 120 80l-12 -51q18 43 88 43q49 0 117 -27q127 -49 141 -264q6 -98 15 -133q-43 104 -62 196q-25 123 -110 123q-49 6 -125 -18l24 -16 q-49 -20 -88 -39q25 -8 33 -17q-49 -31 -74 -37q14 -6 41 -18q-16 -16 -47 -33l-10 -10q23 2 31 2q-8 -12 -60 -80l35 6q-18 -59 -33 -78l35 13q4 -4 4 -17q0 -8 -20 -75q10 16 22 28q12 -45 15 -71q10 18 18 28q37 -37 39 -73l8 22q37 -37 39 -37q-8 14 -12 35 q2 -6 34.5 -11t34.5 -3l-18 18l78 27q-20 6 -31 10q10 2 51 26.5t41 28.5q-18 0 -41 -12q23 35 29 84q2 12 2 25q0 49 -45 124q150 -102 184 -245h-20q6 -9 16 -70zM1317 1548l-8 -20l-13 -25q-12 -23 -26 -39q2 20 -4 49q-37 -147 -82 -184l-10 31q-29 -119 -72 -168 q0 18 -12 41q-31 -115 -86 -174q8 33 -9 45q-33 -111 -82 -160l-10 29q-12 -70 -80 -152l-10 23q-10 -66 -68 -125q8 29 -10 51q-29 -94 -78 -143l-12 30q-23 -63 -80 -133l-10 47q10 -41 -133 -192q-186 -195 -332 -440q102 207 129 245q59 88 146 224q59 109 100 170 l-33 -13q39 66 96 131q-18 -2 -41 -12q59 92 95 115l-45 -8q31 45 71 81l17 21q-20 -8 -37 -23q39 59 119 148l-41 -14q51 82 114 141l-41 -15q45 84 148 164l-49 -22q39 61 112 129q-10 -2 -37 -8q25 43 60 80q-55 6 -94 12q12 -8 16 -27q-59 4 -182 41q45 -18 41 -26 l-164 6q-88 4 -248 -17l375 144l2 -17q47 29 127 60l2 -19q84 49 143 53l-20 -32q68 31 139 53v0q6 2 8 4q20 4 31 6l-16 -33l2 -2q41 20 73 33l9 2l2 4z" />
<glyph unicode="&#x26;" horiz-adv-x="1232" d="M1057 756q2 -2 4 -6q-2 8 -4 6zM1061 750q33 -76 33 -183q0 -180 -127 -258q-147 -76 -154 -110q4 33 2 61q-33 -8 -104 -45q4 14 8 43q-18 2 -37 2q-47 -6 -92 -37q4 25 28 60q-29 8 -40 8q-39 0 -64 -25l14 33q-41 12 -65 12q-27 0 -47 -10l26 31q-12 25 -92 24 q12 8 47 21q0 10 -71 45h53q0 6 -53 78q10 -8 39 -23q8 6 8 35q0 33 -15 88q12 -25 29 -45q2 -2 51 115l11 -60q23 23 114 138l-2 -54q41 31 109 117l14 -27q33 41 82 136l14 -21q94 133 94 291q0 47 -10 92l-24 -70q-35 -74 -78 -94q-47 -29 -121 -51q2 -8 53 -25 q-66 8 -172 7q14 -27 29 -33q-115 2 -182 -27l28 -22q-45 -10 -90 -19q-100 -27 -135 -57l57 -8q-41 -8 -96 -45q-86 -59 -125 -154l47 14q-117 -121 -106 -276q14 14 41 35q-12 -20 -13 -92q0 -106 43 -166q2 37 9 73q6 -61 41 -131q49 -102 131 -133l-13 64l56 -56 q74 -59 147 -69l-31 51q-2 -6 85 -35t137 -24q-12 6 -45 32q-4 2 -5 4v0q-8 0 48.5 -14t109.5 -12l-39 49l19 -7q20 -7 51 -7q41 0 96 16q-12 8 -45 31q18 -6 35 -15q33 10 84 41q43 25 55 35q-12 2 -45 12q2 -8 63.5 42.5t87 105.5t52.5 113q29 70 35 137q12 111 -78 248z M967 1372l37 -4q-4 23 -17 45q-29 53 -90 76q33 20 59 6q-16 18 -30 37q-45 41 -82 41q-8 0 -19 -2l25 16q6 2 -39 22.5t-84 20.5q-23 0 -41 -8l25 27q-45 10 -64 10q-66 0 -127 -39q-8 25 27 43h-10q-47 -18 -93 -49q-59 -39 -75 -74q-10 35 -2 49q-20 -18 -41 -37 q-43 -55 -47 -133q-12 23 -19 37q-37 -37 -37 -108q0 -41 15 -88q-12 12 -33 45q-8 -27 -8 -50q0 -61 41 -129l-48 21q29 -98 95 -156l-45 8q4 25 39 -24q47 -66 71 -74l-18 -14q-6 0 37 -17.5t75 -17.5q12 0 25 4l-8 -18q90 8 155 73q219 4 328 156q47 78 47 131 q0 45 -26 64l47 -25q2 94 -45 135zM559 909zM868 1094q-14 -76 -116 -123q-55 -27 -121 -43q27 33 84 94q-115 -57 -156 -51q-29 4 -39 18q-6 8 -4 10q6 -2 0 -14q-6 -16 -6 -24q2 33 2 90q-10 -8 -25 -25q2 29 5 88l-23 -14q-6 2 29 88l-35 -12q18 20 51 81h-29 q2 0 31 18.5t39 33.5q-12 8 -31 18q25 2 58 12q-12 16 -27 23q2 4 25.5 -8.5t33.5 -12.5q6 0 11 5l-9 34q12 -14 66 -34q-2 20 -4 34q14 -12 29 -22q35 -29 36 -31q0 4 5 25q-2 -6 22 -49l25 34q-8 -16 16 -71q8 6 27 24q2 -27 12 -90l24 19q4 -80 -6 -125zM205 1305v0v0z M1137 113q-76 94 -109 88l33 8q-18 20 -74 53l23 8q-12 18 -80 54q18 14 35 8q-14 23 -68 47l18 8q-14 14 -26 27q-31 27 -58 30l23 7q-10 18 -82 61q12 10 31 4q-14 20 -90 68q20 6 28 4q-29 27 -86 61l25 4q-6 10 -14 23q-25 27 -78 53q12 0 35 -4q12 14 -84 74l30 2 q-29 33 -82 73l27 -2q-18 25 -61 64l14 6l-61 59l12 3q-70 84 -131 213q12 -72 20 -158q4 -49 12 -103q2 -2 15 25q-16 -78 -2 -115q12 6 16 17q0 -37 29 -119l8 16q14 -49 41 -118l8 28q-10 -6 19 -57q23 -43 36 -62l5 23q27 -53 61 -115q4 10 8 27q10 -33 53 -92l-2 37 q29 -82 74 -115l2 29q12 -27 68 -86v28q23 -33 76 -88l-9 27q2 -16 54 -64l4 33q4 -12 59 -65q-2 8 -2 26q18 -20 74 -63l-4 22q27 -20 100 -65q10 -6 131 -90q53 -37 152 -68q-47 25 -93 55q-104 72 -163 146z" />
<glyph unicode="'" horiz-adv-x="407" d="M272 1618h15q-2 29 -33 45q12 2 29 -2q-12 43 -60 41q14 6 31 6q-25 37 -107 37q-84 0 -108 -37q18 0 31 -6q-47 2 -60 -41q18 4 29 2q-10 -6 -23 -10q-14 -12 -16 -37l23 2v0q-16 -16 -17 -43q2 -2 37 8q-33 -18 -31 -41q31 6 35 6q-31 -18 -27 -37l29 5q-14 -8 -29 -35 l35 10q-39 -18 -30 -45l26 8q-23 -10 -22 -27q0 -4 4 -10l28 6q-20 -12 -20 -26q0 -6 2 -11q8 4 20 9q-2 -4 -4 -6q-12 -14 -8 -27l33 10q-23 -8 -12 -37q10 10 22 15q-14 -18 -2 -39l19 10l36 -57l35 57l19 -10q12 20 -2 39q6 -2 24 -15q10 29 -12 37l31 -10q4 12 -9 27 q-2 2 -4 6q6 -2 21 -9q2 4 2 11q0 14 -21 26l29 -6q4 6 4 10q0 16 -22 27l26 -8q8 27 -30 45l34 -10q0 29 -28 35q2 0 30 -5q2 18 -26 37q2 0 26 -4q4 18 -26 43q35 -14 37 -12q1 27 -13 43z" />
<glyph unicode="(" horiz-adv-x="530" d="M422 -147q-4 43 -10 137q-6 0 -31 -41q35 129 35 160q-25 -10 -33 -21q16 102 8 158l-22 -19q10 160 10 162l-31 -33q18 57 19 121q0 25 -5 49l-26 -22q25 63 24 129q0 18 -2 35q-14 -8 -34 -21q29 92 22 135l-35 -37q41 92 41 150q0 12 -2 25l-37 -25q33 76 31 143 l-37 -26q16 51 35 151q-14 -16 -31 -30q-2 0 13 28q18 41 24 80l-47 -20q14 16 39 116l-39 -20q14 37 33 131l-31 -18q10 47 27 165q4 49 65 215q29 115 60 234q-47 -121 -209 -430q-59 -102 -60 -162q0 -27 11 -37l-41 39q-18 -55 -19 -102q0 -18 2 -33l-30 22 q-14 -31 -15 -71q0 -37 12 -74q-18 6 -43 39q-14 -33 -14 -66q0 -37 17 -61l-27 14q-6 -33 -6 -67q0 -55 20 -86l-33 18q-4 -18 -4 -43q0 -57 29 -117q-12 0 -39 29q-18 -84 37 -172q-16 4 -43 23q-8 -70 57 -158l-37 16q-14 -66 70 -172q-16 6 -47 27q0 -68 76 -156l-49 12 q12 -35 92 -147l-45 12q4 -18 14 -37q20 -43 66 -79l-23 -7q25 -33 90 -94l-20 -6q96 -117 245 -260q-28 62 -67 195z" />
<glyph unicode=")" horiz-adv-x="542" d="M424 637q41 90 35 149l-37 -38q43 86 43 155q0 20 -4 39l-35 -31q16 55 16 111q0 27 -4 51l-30 -35q14 115 2 170q-4 -10 -21 -39l-2 -2q8 0 8 82q0 20 -4 43l-39 -35q18 45 -2 129q-8 -10 -28 -32q0 41 -25 139l-21 -31q-10 47 -57 162q-23 37 -43 98q-33 96 -39 115 q-23 53 -82 129q-55 70 -55 64q2 6 37 -62q41 -80 65 -162q37 -115 37 -213q-2 -162 47 -190l-53 18q4 -39 37 -123l-39 11q-4 -66 43 -129q-37 2 -53 22q-8 -74 33 -110l-31 8q0 -96 37 -135l-33 12q-12 -61 31 -141q-12 0 -39 24q-16 -72 33 -155q-33 14 -43 24 q-8 -59 38 -147l-34 20q-6 -12 -7 -35q0 -53 37 -133q-14 12 -39 39q-16 -51 25 -160l-43 29q0 -33 25 -160l-33 29q-12 -55 14 -131l-22 8q4 -41 24 -125l-20 8q12 -150 6 -360q25 66 92 196q39 61 80 123q-14 6 -51 -16q102 80 121 123q-23 6 -37 0q18 23 34 47 q39 55 52 102l-29 -8q63 117 74 164l-41 -23q16 23 28 50q31 61 37 127l-30 -17q14 25 26 51q25 63 27 127q-16 -8 -39 -20z" />
<glyph unicode="*" horiz-adv-x="835" d="M950 934l8 -4q-31 -16 -55 -23l15 -6q-27 -16 -48 -20q4 -8 7 -9q-45 -18 -74 -26q10 -8 14 -8l-61 -19l8 -4q6 -4 -62 -16q6 -4 9 -8q-33 -10 -62 -13l2 -6q-25 -4 -49 -6l8 -6q-43 -10 -73 -15l-64 -8q53 -10 62 -12l-5 -6l56 -12l-6 -7q47 -14 53 -18q-12 -2 -12 -4 q31 -8 43 -12l-9 -9q80 -39 115 -69q-98 35 -117 43l4 -8q-47 10 -55 18l2 -14q-35 18 -53 30l4 -18l-63 45v-10q-39 33 -50 49l-4 -133l8 -101q-16 10 -26 11q-6 0 -8 -6q14 113 14 231q-29 -37 -72 -37l4 10q-14 -16 -71 -32l4 12q-16 -14 -51 -23l6 9q-39 -16 -170 -31 q41 25 102 47l-8 8l49 8l-16 9q8 4 43 6l-8 6l53 8l-12 6q61 8 88 4q8 2 26 0q-51 8 -78 17l15 8q-55 6 -74 12l8 8q-49 8 -63 15q10 10 14 10q-66 18 -76 24l15 9q-51 8 -70 14l16 12q-41 16 -61 29l22 6q-57 23 -65 31l18 6q-43 23 -55 31l12 4q-45 35 -57 47 q-29 31 -96 47q61 10 153 -45v8q20 0 49 -33l-2 17q31 -16 48 -33q2 10 0 14q41 -27 61 -45q2 8 0 17l49 -41v8q0 10 47 -41q0 4 2 12q10 2 45 -43l4 4q4 2 33 -37v9q33 -27 53 -52q43 -41 66 -45v4q-20 16 -59 58q-35 29 -60 51l15 6q-47 35 -62 51l19 2q-41 29 -54 45 l17 2q-39 33 -49 50q10 2 16 -2q-35 43 -51 67l16 2q-45 47 -45 62l23 -4q-35 45 -37 53l16 -4q-31 49 -37 65l21 -4q-29 59 -29 72q0 -6 20 -12q-23 51 -22 65l20 -10q-20 39 -20 49l8 -4q-10 29 -10 35l10 -4q-12 47 -12 98q0 82 26 151q-6 -35 -6 -75q0 -90 31 -181 q6 16 8 23q10 -6 11 -41l14 4q6 2 6 -49l12 12q12 -45 13 -80q10 14 12 21q12 -8 12 -62l10 9q8 -2 9 -68l12 12q8 -37 8 -65l10 14q14 -37 19 -65l6 10q18 -43 24 -76l2 6q10 -27 19 -53l8 8q10 -33 12 -53l4 8q10 -31 13 -57l6 4q23 -94 22 -90q12 -27 21 -43 q-8 66 -43 149h10q-14 20 -26 58l10 -2q-23 39 -21 63l19 -10q-20 45 -25 78l21 -11q-29 55 -21 78q6 -8 21 -16q-25 45 -25 71q0 8 2 15l19 -10q-29 49 -21 75q4 -6 18 -12q-16 33 -16 61q0 10 2 19q8 -12 21 -12q-20 45 -13 73l17 -8q-18 29 -11 72l13 -6q-10 16 -10 35 q0 12 4 24q4 -12 22 -16q-18 41 -8 69l16 -10q-6 16 -6 35q0 14 4 31l21 -15q-8 6 -8 29q0 25 12 70q31 111 22 227q18 -96 19 -115q-4 -98 0 -110q6 -39 4 -84l14 12q2 -31 -6 -68l17 13q2 -45 -11 -62l21 13q-2 -47 -10 -56q8 8 12 17q0 -31 -12 -78l16 12q2 -39 -12 -74 l18 13q4 -39 -22 -88l18 18q2 -31 -16 -70q2 0 6 2l12 7q0 -47 -20 -84l14 10q-2 -51 -21 -86l17 12q-12 -51 -21 -80l13 6q-4 -39 -25 -77q6 4 18 6q-8 -25 -41 -72q14 16 21 14l-18 -67q-6 -23 -9 -68q35 57 33 109q8 -4 8 -8q6 39 11 63l8 -16q-4 14 20 80l10 -17 q12 63 21 84l14 -18q-4 25 25 73q6 0 10 -10q0 29 16 58q8 -16 15 -21q-8 37 20 76q0 -18 11 -29q18 72 30 92l13 -24q14 66 26 80q0 -8 8 -17h2q6 43 29 66q4 -14 8 -17q16 41 23 50l4 -13l24 51l5 -8q109 160 133 178q47 33 51 72q6 -29 -68 -121q-35 -45 -80 -170l9 6 q-20 -33 -27 -39q14 6 18 7q0 -20 -32 -64l22 8q-41 -61 -55 -73q23 10 29 10q-29 -55 -52 -72q14 4 23 2q4 -25 -55 -65l22 -2q-27 -33 -35 -37h15q-43 -49 -52 -56h17q-35 -37 -47 -43l10 -2q-39 -41 -51 -47l14 -4q-33 -35 -55 -59l12 -4q-10 -8 -18 -13q-10 -10 -21 -16 l-8 -6l14 -4q-102 -74 -123 -103l-2 5v-7h4q61 37 89 62l-3 -17q37 41 54 54l2 -13q35 37 49 45q4 -10 0 -16q37 31 61 49v-16q35 37 50 47l2 -18q35 23 59 32l-8 -22q51 35 61 37l-6 -19q53 27 57 29l-2 -12q55 16 70 20q43 8 94 53q-25 -53 -125 -102z" />
<glyph unicode="+" horiz-adv-x="1226" d="M1106 811q-51 18 -86 18q-29 0 -37 -16l18 37q-45 10 -81 -6l12 26q-10 6 -25 7q-29 0 -61 -21q6 31 20 39q-14 4 -26 4q-29 0 -47 -18l6 22q-12 2 -25 2q-39 0 -63 -20l10 24q-10 4 -21 4q-33 0 -71 -24q-2 20 16 33q-10 4 -22 4q-37 0 -80 -31q8 27 16 33 q-33 10 -96 -35l12 27q-6 4 -14 4q-33 0 -90 -41q10 23 20 32q-31 12 -98 -36l12 36q-41 -8 -96 -45l12 31q-31 4 -78 -37v21q-45 -25 -71 -47l2 16l-207 -106q78 4 129 -11l84 -28q2 10 -19 32q59 -53 91 -63q-2 18 -7 29q49 -33 97 -39l-9 22q39 -16 101 -35l-17 29 q43 -31 107 -33l-12 25q45 -33 106 -31l-8 21q-2 6 -4 8q49 -27 86 -25l-23 29q63 -43 113 -33l-16 29q43 -23 92 -19l-17 27q61 -18 99 -16q-10 8 -21 20q6 -2 15 -4q29 -12 55 -12l-15 35q18 -18 76 -17q-10 14 -16 27q45 -10 84 -4l-14 20q55 0 104 12q16 4 139 2 q27 0 144 33q-33 -4 -68 -4q-117 0 -217 37zM711 662q31 45 28 106l-20 -10q-6 -2 -8 -2q25 49 22 86l-28 -23q41 63 28 113l-28 -17q23 43 16 93l-27 -19q16 61 15 101q-8 -10 -21 -23q2 8 4 14q10 29 10 58l-34 -17q18 18 14 76q-14 -8 -27 -16q10 45 4 84l-22 -15 q0 55 -14 103q-4 18 -9 139q0 27 -34 143q6 -43 6 -88q0 -106 -31 -198q-16 -47 -14 -82q0 -33 16 -41l-39 18q-8 -47 10 -82l-28 11q-4 -8 -4 -21q0 -31 22 -63q-29 4 -39 18q-6 -12 -6 -25q0 -29 23 -49l-25 8q-8 -55 23 -90l-27 11q-2 -8 -2 -19q0 -33 27 -74 q-20 -2 -33 17q-4 -10 -4 -21q0 -37 32 -80q-27 6 -32 15q-10 -33 39 -94l-29 12q-4 -6 -4 -17q0 -33 45 -90q-23 10 -35 21q-10 -31 41 -98l-37 14q10 -41 47 -98l-30 14q-2 -33 38 -78h-20q25 -45 49 -70h-16l112 -204q-8 80 7 131l24 84q-8 4 -31 -19q51 61 62 90 q-20 0 -29 -6q31 49 35 96l-21 -8q14 41 31 103l-28 -17q31 43 30 107z" />
<glyph unicode="," horiz-adv-x="448" d="M270 117q27 4 35 0q0 4 -16 24q-33 35 -80 27q10 10 22 16q-4 6 -24 15q-43 12 -76 -23q4 10 16 29q-8 4 -20 0q-41 -10 -51 -47q-2 18 -4 35q-14 -10 -33 -64l-8 29q-16 -31 -15 -52l-10 15q-4 -31 4 -55l-10 12q2 -80 23 -125q6 12 30 27q41 8 41 -23q0 -35 -45 -102 q-49 -51 -45 -52q2 -2 44 19.5t79 25.5q53 8 37 37l18 -26q23 12 19 32l16 -20q14 14 14 25q0 8 -4 18q20 -16 25 -29q14 8 14 23q0 10 -6 20l16 -14q14 14 15 37q0 14 -10 26l20 -14q8 8 8 27q0 23 -18 47q20 2 28 -12q6 59 -49 92z" />
<glyph unicode="-" d="M754 821q-35 18 -60 19q-20 0 -26 -17l14 37q-33 10 -57 -6l8 27q-8 6 -17 6q-20 0 -45 -21q6 31 17 39q-10 4 -19 4q-20 0 -34 -18l6 22q-8 2 -19 2q-27 0 -45 -20l8 25q-6 4 -14 4q-23 0 -51 -25q0 20 12 33q-6 2 -14 2q-25 0 -58 -29q6 25 13 33q-23 10 -68 -37l10 29 q-4 4 -12 4q-23 0 -63 -41q8 23 16 33q-23 12 -72 -37l11 37q-29 -10 -70 -45l10 30q-20 4 -55 -37v19q-31 -23 -51 -45l2 16l-150 -106q57 4 92 -10l58 -29q2 10 -13 33q41 -53 62 -64q0 20 -4 29q33 -33 67 -39l-6 22q55 -33 70 -34l-10 28q29 -31 73 -32l-8 24 q31 -33 74 -31l-2 11l-6 18q35 -27 61 -25l-16 29q43 -43 78 -33l-11 29q29 -23 66 -18l-12 26q43 -18 69 -16q-8 8 -14 20q4 -2 10 -4q18 -12 39 -12l-10 35q12 -18 53 -17q-6 14 -10 27q31 -10 59 -4l-10 20q39 0 72 13q14 4 98 2q20 0 102 32q-23 -4 -47 -4 q-81 0 -151 37z" />
<glyph unicode="." horiz-adv-x="471" d="M324 47l-19 -8q16 14 17 45q0 18 -9 33q-8 -6 -18 -17v25q-4 27 -19 37q0 -6 -2 -12q-2 6 -4 8q-2 0 -4 -4q-4 18 -11 31.5t-13 17.5q-2 -2 -2 -4q-6 2 -15 4v-10q-23 25 -47 26l4 -10q-6 2 -12 0q2 0 2 -2q-45 14 -61 6l12 -12q-4 0 -6 -2h2q-39 6 -66 -23l19 -6 q-45 2 -62 -49q10 0 25 -2q-37 -23 -35 -53q12 8 25 12q-27 -23 -27 -55q0 -12 6 -23q10 10 21 16q-18 -31 10 -61q6 10 14 20q6 -43 31 -55q-2 12 0 21l2 -2q8 -20 27 -31q0 8 2 16l8 -4q18 -14 47 -20q0 2 -10 20q37 -37 61 -29q-4 6 -14 19q39 -14 69 16l-16 8 q0 -4 26.5 15.5t30.5 32.5q-12 -2 -26 -2q43 14 37 67z" />
<glyph unicode="/" horiz-adv-x="763" d="M686 1595q-78 -117 -78 -163q0 -10 2 -15l-22 39q-35 -66 -41 -123l-19 27q-35 -47 -36 -131q-23 16 -25 41q-39 -55 -31 -113l-16 19q-41 -78 -35 -140l-18 25q-33 -47 -37 -143q-16 6 -17 34q-39 -53 -39 -157q-16 18 -20 32q-29 -43 -25 -149l-16 27q-35 -37 -31 -168 q-12 23 -16 41q-29 -41 -27 -158l-24 33q-16 -63 -19 -160l-20 31q-20 -45 -15 -127l-16 6q-6 -72 0 -119l-16 6l-29 -338q43 117 88 187l74 114q-6 8 -39 -16q88 76 110 110q-18 6 -30 3q59 61 92 129l-23 -5q33 45 90 138l-34 -15q53 51 92 146l-29 -11q55 57 90 146 q-10 -2 -32 -8q57 70 73 121l-39 -25q82 84 97 154l-35 -15q45 55 71 131l-34 -16q57 90 73 139q-12 -12 -28 -24q4 10 10 20q29 39 45 78l-41 -12q29 23 61 106q-18 -8 -34 -14q37 63 55 123l-27 -15q33 82 52 156q6 29 79 207q16 41 58 223q-72 -219 -199 -412z" />
<glyph unicode="0" horiz-adv-x="1017" d="M770 1108q115 -215 115 -440q0 -133 -49 -238q-61 -109 -123 -233q-6 33 -15 55q-57 -49 -102 -80q4 18 4 43q2 -2 -94 -6q14 14 45 37q-6 -2 -10 -6q-16 16 -33 32q-27 25 -49 35l33 8q2 0 -37 54q-45 59 -82 84l41 -4q6 14 -35 86q-33 55 -51 83q29 4 51 -24 q2 10 -8 57q-14 70 -49 148q18 -8 47 -31q6 72 -29 201l33 -33q29 16 22 225q10 -20 25 -59q16 2 63 186l21 -55q29 4 54.5 54t41.5 63q-10 -23 -14 -45l22 6q35 10 88 14l-18 -20q0 8 45 -16.5t78 -57.5l-23 -8q59 -82 123 -228q51 -123 103 -247q-27 203 -25 333 q2 80 -8 168q-10 76 -17 78q-6 2 -16 -47q-2 70 -29 145q-35 102 -100 138q-8 -23 -2 -41q-27 29 -88 59q-86 41 -168 41q-61 0 -117 -23l35 -14q-37 2 -162 -72.5t-139 -119.5l63 20q-35 -23 -75 -67q-84 -92 -117 -205l43 24q-27 -35 -51 -84q-53 -106 -58 -215l45 33 q-4 2 -20 -65q-18 -76 -18 -138q0 -31 6 -57q10 25 32 72q-16 -49 -16 -146q0 -121 41 -190q6 20 20 61q-4 -12 17 -88q27 -102 84 -176l4 68q8 -31 49 -99q63 -104 135 -151q-14 18 -43 71q16 -18 35 -36q72 -76 199 -99q-33 27 -58 60q2 -2 25 -13q37 -16 84 -16 q76 0 162 49q-39 0 -66 6q27 2 92 49q78 57 105 119l-51 -20q8 -6 47 86q45 100 47 176q4 264 -10 356q-21 135 -150 330zM770 1108v0v0z" />
<glyph unicode="1" horiz-adv-x="565" d="M432 664q43 66 37 102l-45 -27q55 66 55 113q0 10 -2 18l-45 -16q39 55 33 107l-43 -17q33 78 33 115q-12 -12 -33 -23q2 8 6 17q20 33 25 63l-54 -12q31 27 31 88q-23 -8 -43 -16q20 61 16 100l-34 -12q6 80 -2 125q-10 43 2 102q14 74 14 98q0 59 -23 150 q10 -6 -29.5 -150.5t-68.5 -187.5q-37 -63 -37 -107q0 -33 19 -43l-56 29q-18 -63 5 -102l-41 18q-10 -16 -11 -39q0 -35 25 -70q-45 10 -57 31q-10 -20 -11 -41q0 -31 27 -53l-33 12q-18 -76 25 -114l-39 16q-6 -12 -6 -31q0 -41 32 -88q-16 2 -47 25q-6 -12 -6 -31 q0 -47 45 -98q-39 10 -51 20q-10 -49 55 -119l-43 15q-4 -6 -4 -21q0 -45 64 -110q-33 14 -51 24q-12 -45 63 -121l-59 17q20 -43 75 -121l-49 16q0 -14 6 -28q16 -35 58 -68h-29q20 -29 76 -84h-25q61 -80 189 -233q-18 104 -2 155q14 49 32 103q-18 0 -49 -27 q41 41 90 113q-31 -2 -43 -10q14 20 23 38q25 45 27 78l-33 -10q23 47 49 119l-45 -19q51 59 45 125l-35 -14q51 66 47 125l-33 -10q-8 -2 -12 -4z" />
<glyph unicode="2" horiz-adv-x="1009" d="M956 1126l-38 -57q4 4 18 49q18 61 18 121q0 74 -30 135q-6 -20 -19 -59q2 33 -22 96q-37 92 -109 145q6 -18 14 -57q-12 25 -83 78q-82 63 -138 70q12 -8 45 -41q2 -4 4 -4h-2q8 0 -51 27.5t-125 33.5q14 -16 37 -47q0 2 -22 10q-37 12 -84 12q-37 0 -78 -8 q14 -8 45 -26q-35 -2 -70 -7q-78 -12 -123 -41l43 -12q-35 -18 -69 -37q-78 -49 -111 -104q-90 -154 -92 -279q-2 -78 53 -184q29 -45 58 -88q51 6 -5 117q-68 137 -67 131q0 186 123 252q90 49 186 106l-14 -47q41 6 133 35l-14 -37q39 -16 137 8q-10 -16 -41 -41 q43 -20 76 -20q14 0 26 2l-22 -19q23 -20 92 -53l-35 -8q0 -12 55 -96q-23 0 -41 20q0 -98 29 -164q-16 8 -39 29q-16 -14 4 -123l-22 29q-6 -2 -13 -12q-18 -35 -63 -99q4 18 14 53q-16 -4 -37 -16q-49 -27 -125 -94l13 55q-4 0 -58 -35q-72 -47 -124 -114l6 51 q-20 -12 -45 -35q-53 -51 -76 -123l-17 17q-4 0 -24.5 -66t-16.5 -102l-20 10q-14 -76 -14 -158q0 -117 32 -280q6 49 15 92q20 104 47 151q37 63 90 127q-10 10 -51 -10q0 4 62.5 37t84.5 41q-10 8 -33 18q43 12 148 47l-25 19q0 2 76 10q88 12 117 18l-45 23q0 -6 71 2 q92 10 195 82q-16 -2 -43 0q47 14 107 70q84 78 104 178l-45 -25q8 -2 38.5 83t24.5 138zM797 88q-23 0 -31 -14l16 37q-31 10 -53 0l12 24q-18 16 -59 -2q14 29 27 33q-12 12 -27 12q-12 0 -25 -10l13 20q-23 14 -41 15q-14 0 -27 -8l19 20q-12 14 -43 14q-14 0 -31 -4 q8 20 26 25q-16 16 -51 16q-18 0 -39 -6q8 10 27 25q-10 10 -37 10t-59 -12l20 22q-6 12 -35 12q-33 0 -75 -24q6 12 24 31l-24 4q-37 -4 -80 -37l12 39q-25 -8 -92 -62l6 35q0 4 -27.5 -22.5t-33.5 -38.5l-7 18q-2 0 -17 -26.5t-17 -45.5l-9 15q-31 -55 -61 -185 q20 20 76 54q33 6 63 8q-2 4 -28 22q31 -10 77 -30q-8 18 -14 24q2 -6 59 -18l-8 20q33 -16 49 -28l-4 28q8 -16 49 -39v25q6 -18 50 -47q2 12 4 29q12 -18 47 -46l-2 33q8 -18 16 -30q23 -33 47 -35l2 32q12 -18 64 -49l-2 31q41 -39 75 -47q-4 6 -12 25q6 -4 10 -7 q20 -20 48 -26l-7 35q25 -12 66 -29q-4 8 -10 29q37 -18 75 -13l-12 23q51 -4 86 16q14 4 109 33q39 16 88 82q-59 -57 -152 -57q-23 0 -57.5 11t-52.5 11z" />
<glyph unicode="3" horiz-adv-x="892" d="M96 846q-6 4 -6 2zM96 1589v0v0zM551 1571v0v0zM410 1628v0v0zM772 1237l37 -8q-2 25 -12 47q-27 55 -82 88q23 16 47 -2q-12 23 -27 45q-41 53 -110 70q35 16 49 12q-66 61 -158 61l35 21q-31 37 -105 37q-37 0 -81 -13q12 14 45 33q-23 10 -56 10q-57 0 -125 -41l21 48 q-43 -20 -45 -23q-92 -49 -113 -80l4 47q-55 -47 -57 -49q-23 -25 -29 -72l-16 19q-2 0 -11.5 -34t-9.5 -62q0 -16 4 -29l-18 12q-4 -20 -4 -41q0 -74 40 -126t89 -40q-29 20 -29 50q0 12 8 24q27 31 58 51q-10 8 -45 4q2 4 50 11.5t56 3.5q-8 10 -26 24q0 -4 73 -6l-14 25 q10 8 66 -33q-4 20 -9 37q14 -20 68 -55l4 28q8 -25 55 -74q6 12 15 33l11 -30q11 -31 24 -41l14 38q0 -20 2 -43q2 -43 16 -57l29 27q-8 -53 2 -76l31 18q-4 2 -19 -82q6 4 29 15q-4 -6 -6 -12q-20 -23 -27 -43h45q0 2 -17.5 -14.5t-27.5 -47.5q12 -2 35 -2q-4 6 -53 -68 q6 -2 28 -6q-37 -47 -88 -75q-29 -16 -65 -17q-35 0 -101 19q-78 23 -180 53q111 -68 125 -74q125 -59 250 -61q168 29 158 110q8 -18 16 -51q4 -4 35 39t29 80l24 -31q4 2 15 25q18 31 18 69q0 23 -8 49q18 -8 41 -43q18 31 18 72q0 39 -22 64l28 -13l-12 70q-23 74 -39 86 zM854 373l-41 -35q49 59 49 145q0 31 -12 56l-31 -35q2 27 4 53q0 63 -28 113l-19 -45q-10 33 -18 63q-27 68 -56 92q6 -23 5 -41q0 -6 -13 19q-23 45 -57 78q-2 -23 -8 -50q-16 29 -84 86q0 -12 2 -43q-14 14 -33 27q-43 29 -80 33l12 -33q-35 14 -86 14q-39 0 -65 -10 q-63 -27 -84 -39q-45 -23 -80 -57q-57 -57 -61 -170q14 51 59 106q66 80 143 80q18 0 39 -4q82 -39 115 -28q6 2 8 4q-23 -20 -35 -35q18 -14 76 -33l-29 -22q4 -29 76 -37q-35 -20 -49 -21q6 -10 14 -18q18 -16 39 -17l-26 -10q4 -10 10 -22q16 -23 43 -33h-35 q-2 -31 37 -70q-12 0 -39 12q-12 -31 25 -84q-14 6 -37 23q-12 -23 14 -88l-26 27q-18 -12 -15 -97q-6 14 -16 41q-12 2 -37 -80l-6 50q-6 -12 -62 -68l13 39q-4 6 -76 -33l8 23q0 -2 -94 -23l12 19q-76 -6 -137 36q-74 53 -72 160q-12 6 -12 -69q0 -123 47 -175 q33 -57 94 -114l2 6q2 14 -8 43q45 -113 107 -133q4 25 -2 35q12 -14 57 -37q63 -31 121 -27l-19 25q43 -2 86 -2q94 6 119 24q-14 4 -45 17q43 -2 98.5 30.5t81.5 71.5h-37q27 18 54 35q57 49 75 117l-43 -9q6 -6 37 48.5t31 95.5zM72 586q-2 4 -2 8q0 -6 2 -8z" />
<glyph unicode="4" horiz-adv-x="946" d="M825 754h-100q0 -6 33 -33q-102 49 -119 49q8 -27 16 -33q-76 27 -106 25l10 -25q-68 23 -96 33l12 -35q-20 18 -82 45l2 -30q-12 25 -51 59q-6 -14 -14 -35q-2 23 -23 55l-16 -34q2 -2 2 36q0 37 -19 50l-24 -27q6 49 -10 82l-27 -25q2 78 -2 99l-25 -27l8 25q7 26 7 53 l-43 -21q20 27 16 84l-35 -18q12 59 8 98l-28 -16q2 82 -6 123q-4 33 20 164q6 41 0 182q-12 -57 -24 -115q-33 -131 -80 -225q-31 -61 -31 -105q0 -37 18 -47l-45 23q-14 -66 9 -105l-35 13q-16 -55 30 -113q-37 2 -53 21q-10 -68 35 -101l-29 6q6 -31 17 -53 q20 -57 47 -70l-37 5q2 -20 12 -41q25 -49 82 -80q-23 -16 -49 0q6 -20 29 -43q45 -51 116 -62q-31 -18 -47 -18q33 -45 123 -45q20 0 43 4l-31 -27q35 -20 68 -20q49 0 107 28q-10 -12 -35 -36q6 -4 26 -5q55 0 119 50l-16 -50q45 18 127 74l-13 -41q16 2 31 10 q35 16 62 58l6 -23q25 23 69 80l7 -20q90 96 178 219q-44 -24 -144 -49zM766 614q37 59 33 97l-37 -25q57 76 45 123l-37 -14q33 53 29 102l-35 -16q29 76 27 108q-10 -10 -25 -20q2 8 4 14q16 33 21 64l-46 -15q25 20 27 84q-20 -8 -37 -14q18 57 15 96l-29 -16 q4 72 -6 121q-4 16 4 159q4 57 -31 166q8 -190 -57 -323q-29 -57 -29 -97q0 -31 16 -43l-45 25q-14 -57 5 -94l-35 16q-6 -14 -6 -35q0 -33 20 -65q-37 8 -47 26q-8 -18 -8 -37q0 -29 20 -49l-28 11q-14 -70 20 -105l-33 14q-18 -49 21 -108q-12 0 -39 20q-4 -12 -4 -28 q0 -45 35 -90q-33 10 -41 18q-12 -45 41 -113l-35 17q-4 -8 -4 -21q0 -43 51 -104q-16 6 -43 24q-10 -43 49 -116l-47 16l2 -8q16 -53 57 -105l-41 15q0 -12 6 -27q12 -33 46 -63l-25 -2q18 -27 63 -78l-22 -2q47 -70 158 -219q-14 96 -4 145q12 47 26 94q-14 2 -41 -22 q35 37 76 104q-25 -2 -37 -8q20 29 43 106l-27 -8q18 45 41 113l-34 -19q41 55 39 119l-29 -14q43 61 41 117l-27 -9q-8 -2 -10 -2z" />
<glyph unicode="5" horiz-adv-x="884" d="M49 594q0 -6 0 -5v5zM834 373l-41 -35q49 59 49 145q0 31 -13 56l-30 -35q2 27 4 53q-2 63 -29 113l-20 -45q-8 33 -17 63q-27 68 -55 92q6 -23 4 -41q0 -6 -12 19q-23 45 -58 78q-2 -23 -8 -50q-16 27 -84 86q0 -12 2 -43q-55 53 -114 60l14 -33q-35 14 -88 14 q-37 0 -64 -10q-63 -27 -84 -39q-45 -23 -79 -57q-59 -57 -62 -170q14 51 60 106q63 80 143 80q18 0 37 -4q82 -39 117 -28l8 4q-23 -20 -35 -35q18 -14 74 -33l-29 -22q6 -29 78 -37q-35 -20 -49 -21q6 -10 14 -18q18 -16 39 -17l-27 -10q4 -10 10 -22q14 -23 43 -33h-34 q-2 -31 37 -70q-12 0 -39 12q-12 -31 24 -84q-14 6 -37 23q-12 -23 15 -88l-27 27q-20 -12 -16 -97q-4 14 -15 41q-12 2 -37 -80l-6 50q-6 -12 -63 -68l14 39q-6 6 -76 -33l9 23q0 -2 -95 -23l13 19q-76 -6 -138 36q-74 53 -71 160q-12 6 -13 -69q0 -123 48 -175 q33 -57 94 -114l2 6q2 14 -8 43q45 -113 104 -133q6 25 0 37q12 -16 57 -39q61 -31 121 -27l-20 25q45 -2 88 -2q92 6 119 24q-14 4 -45 17q43 -2 98 30.5t82 71.5h-37q27 18 51 35q57 49 78 117l-43 -9q4 -6 36 48.5t32 95.5zM289 1061q10 37 -35 76q12 -2 35 -9 q4 31 -45 70l28 -6q14 29 -49 76q12 -4 35 -13q4 31 -51 70l39 -4q-6 16 -60 65l35 -4q-2 14 -51 54l18 2q-16 16 -57 43l16 4q-45 41 -147 117q23 -59 18 -91q0 -2 -10 -65q4 0 29 20q-23 -29 -47 -75q18 4 26 10q-25 -45 -22 -74l20 8q-20 -61 -20 -75l26 16 q-27 -41 -18 -80l21 12q-29 -43 -21 -78q12 4 29 11q-25 -41 -17 -64l27 19q-29 -39 -29 -66q0 -10 4 -16l29 12q-23 -35 -14 -65l26 12q-16 -49 -12 -72q4 4 18 17q0 -6 -2 -11q-10 -20 -12 -41l35 13q-18 -18 -14 -56l26 13q-10 -39 -4 -64l23 10q0 -20 8 -75 q8 -29 -2 -103q-4 -37 18 -115q-12 10 15 105q25 86 36 111q20 35 21 61q0 10 -16 31l38 -15q8 39 -8 62l27 -8q14 33 -16 65q29 -2 38 -14q14 37 -16 57l23 -4q6 47 -25 68l27 -7q10 33 -27 70q23 2 33 -10zM936 1499q-59 31 -62 33q0 -18 15 -49l-25 45q-26 45 -35 51 q-2 -29 2 -43q-16 25 -61 55l2 -32q-25 27 -59 57l4 -45q-8 16 -17 26q-23 29 -47 29v-35q-6 16 -14 27q-23 29 -47 31l-2 -45q-29 51 -51 49l4 -47q-33 76 -68 65l-2 -45q-8 14 -16 23q-20 23 -45 22l2 -43q-20 20 -68 43q4 -12 6 -33q-4 4 -8 9q-18 23 -39 28l-4 -53 q-8 16 -51 39v-43q-35 27 -64 22l4 -34q-51 10 -86 0q-25 -6 -53 0q-29 6 -57 12q-43 6 -121 -35q8 6 74 -4q84 -16 133 -74q35 -39 61 -39q18 0 31 19l-29 -53q16 -10 35 -11q14 0 29 9l-21 -39q8 -12 25 -13q20 0 45 19q-16 -43 -33 -54q12 -12 27 -12q18 0 37 21l-17 -33 q14 -10 33 -10q25 0 45 20l-20 -35q10 -10 26 -10q25 0 56 23q-4 -14 -27 -43q8 -10 29 -11q29 0 67 31q-8 -18 -26 -47q6 -4 16 -4q31 0 76 41l-19 -39q2 -8 17 -8q33 0 86 51q-8 -16 -27 -47q4 -4 12 -4q33 0 82 51l-18 -55q29 12 92 65l-14 -49q33 0 71 57l-2 -30 q20 20 60 73v-26q82 90 145 184q-63 -14 -94 2z" />
<glyph unicode="6" horiz-adv-x="1081" d="M991 578q27 8 45 -11q6 4 -8 41q-18 47 -78 76q35 8 49 2q0 10 -20 33q-33 39 -100 51l36 12q-10 12 -18 25q-35 29 -96 29q-18 0 -41 -2q14 10 45 24l-12 8q-20 8 -48 8q-43 0 -90 -24l25 47q-4 2 -43 -10q-51 -16 -84 -51l10 43q-14 -2 -26 -11q-33 -16 -56 -55l-6 23 q0 6 -25.5 -30t-29.5 -58l-10 20q-35 -57 -35 -115q0 -68 41 -96q-2 49 30 55q29 4 56 -2q-2 6 -31 31q31 -20 80 -51q-6 23 -14 33q39 -27 65 -33l-4 26q41 -33 39 -43l4 37q4 -23 18 -47l13 25l-2 -23q-4 -23 4 -28q12 10 28 26q-10 -47 -6 -51q16 12 29 25 q-6 -10 -12 -21q-10 -23 -11 -37q0 -8 5 -14l34 14q-25 -20 -18 -61l35 12q-10 -23 -25 -68q10 4 27 11q-2 -4 -6 -11q-16 -18 -23 -36h45q-14 -4 -37 -50q23 -2 37 -2l-14 -18q-16 -25 -21 -41l29 -2q-2 2 -41 -84q-20 -49 -92 -86q-59 -45 -117 -92q72 25 275 123 q80 43 79 90q0 10 -4 18l31 -39q31 35 31 74q0 8 -2 16l28 -24q20 27 21 55q0 23 -14 49q37 -14 45 -34q12 27 12 49q0 27 -16 45l26 -13q14 82 -26 115l34 -12q6 4 0 35q-8 43 -49 80zM600 1675l10 2q-2 2 -10 -2zM651 78q-49 16 -78 47q-6 -20 7 -53q-6 -2 -19.5 49 t-13.5 63q-10 -12 -21 -37q-2 31 -20 93l-23 -25q-2 43 -6 111l-33 -33q12 39 13 74q0 29 -8 55l-31 -23q23 51 22 97q0 20 -4 39q-16 -8 -41 -23q31 80 23 115l-43 -33q47 78 47 123q0 14 -4 24l-43 -20q35 68 31 123l-44 -21q16 43 37 129q-14 -12 -34 -24q4 10 8 18 q23 37 28 74l-55 -12q10 8 19 20q18 31 24 76l-45 -12q14 33 35 112l-37 -10q10 39 27 145q8 66 86 177q16 43 69 96q47 49 76 63q-74 -18 -131 -71q-16 -16 -197 -232q-72 -84 -71 -141q0 -25 12 -37l-47 41q-23 -45 -23 -90q0 -20 7 -37l-39 25q-16 -29 -17 -62 q0 -37 19 -74q-45 12 -56 39q-12 -29 -12 -59q0 -37 23 -62l-35 15q-6 -27 -6 -56q0 -57 28 -88l-39 19q-6 -14 -6 -37q0 -55 39 -113q-33 -2 -49 25q-4 -12 -4 -29q0 -70 57 -133q-20 2 -53 19q-6 -70 80 -148l-45 10q-8 -10 4 -43q20 -55 100 -114q-23 4 -61 16 q0 -12 16 -41q31 -53 109 -96l-62 -4q2 -10 39 -41q55 -47 125 -68l-53 -14q74 -61 154 -55l-15 -25q33 2 68 2q68 10 78 16l-7 -24q156 35 277 192q-68 -29 -119 -28q-23 0 -37 6z" />
<glyph unicode="7" horiz-adv-x="983" d="M934 1659q-37 2 -72 4q2 -6 29 -33l-39 26q-39 25 -49 27q6 -23 12 -32q-51 29 -78 28l11 -24q-33 12 -80 28l16 -34q-41 37 -84 32l10 -28q-43 39 -82 35q2 -14 9 -37q-43 37 -70 30l16 -36q-45 47 -75 47q-6 0 -13 -2l11 -37q-39 33 -76 28l10 -34q-55 29 -82 28 q8 -10 14 -26q-4 2 -10 4q-25 18 -47 22l8 -45q-49 27 -65 27q6 -18 10 -35q-43 16 -74 12l10 -26q-55 4 -94 -9q-25 -8 -57 -8q-61 2 -68 2q-31 -2 -71 -30q-29 -23 -37 -35q27 23 104 22q70 0 125 -37q41 -27 70 -26q23 0 35 16l-21 -45q43 -14 70 4l-13 -35q10 -8 27 -8 q25 0 51 21q-10 -37 -24 -47q14 -8 28 -9q23 0 39 21l-10 -29q55 -16 84 19l-12 -33q37 -16 88 22q-2 -14 -19 -38q8 -6 23 -7q37 0 74 35q-4 -16 -17 -41q39 -10 92 47l-10 -37q4 -4 14 -4q37 0 87 58q-6 -16 -19 -43q39 -8 92 57l-8 -47q23 10 86 74l-6 -41q12 2 22 8 q25 16 43 57l7 -24q16 23 45 78l6 -21q66 94 96 205q-61 -43 -92 -41zM-223 1526v0v0zM948 1290q-12 68 -35 107l21 -6q-33 127 -94 278q-2 -53 -33 -156q-25 -47 -51 -92q12 -6 45 13q-43 -31 -105 -82q25 -6 37 -4q-29 -23 -78 -86l27 -2q-35 -31 -84 -78l41 -2 q-18 -8 -35 -19q-37 -23 -59 -55l30 -8q-43 -20 -104 -68q14 -6 35 -14q-20 -6 -37 -17q-41 -23 -57 -45l47 -2q-29 -8 -56 -22q-59 -31 -75 -74l43 -2q-20 -12 -37 -27q-41 -33 -60 -75l43 6q-68 -68 -84 -121q8 6 35 18l-12 -16q-29 -35 -43 -72l47 6q-20 -33 -47 -94 q10 4 37 13q-31 -66 -29 -111l29 14q-14 -76 -4 -135q6 -35 2 -84q-6 -88 -6 -94q-2 -66 41 -184q-6 47 -7 100q0 154 54 256q37 72 37 115q0 20 -13 34l43 -30q14 37 15 69q0 12 -2 25l30 -23q16 20 17 56q0 20 -6 41q31 -18 38 -37q20 25 21 49q0 14 -6 29l20 -19 q29 37 29 74q0 10 -2 18l20 -26q18 27 39 96q20 -18 19 -41q27 33 55 115q10 -14 18 -41q12 8 23 24q23 37 27 101l16 -35q51 25 51 151q8 -16 19 -49q33 33 32 107q0 20 -2 43l33 -39q20 72 2 149l31 -30q8 16 8 43q0 35 -16 75z" />
<glyph unicode="8" horiz-adv-x="1028" d="M750 1395l20 -33q29 -41 45 -86q12 -35 12 -76q0 -117 -79 -160q-63 -33 -132 -84l7 48q-27 -4 -88 -31l8 35q-29 14 -86 -13q10 16 30 41q-23 14 -63 13l22 16q-14 10 -28 22q-29 20 -58 19l31 12q-2 14 -59 53q25 4 41 0q2 20 -35 72q14 -6 37 -18q8 18 -10 92 q12 -16 22 -27q8 4 14 19q14 27 27 96q2 -16 6 -45q20 -2 68 96l4 -45q-2 2 90 80l-12 -39q8 -8 88 41l-4 -23q25 20 90 21l-15 -14q53 -10 107 -97q39 -78 78 -153q-12 96 -15 213q0 59 -37.5 125.5t-39.5 52.5q-6 -4 4 -39q-23 41 -66 82q-51 51 -84 51q0 -23 10 -35 q8 2 -48 22.5t-107 20.5q-27 0 -47 -6l20 -20q0 8 -90 -8.5t-117 -34.5l47 -13q-33 -4 -63 -16q-76 -29 -127 -94q8 2 39 2q-29 -20 -57 -39q-61 -57 -87 -137l41 14q-2 12 -30.5 -50.5t-28.5 -113.5q0 -14 2 -26q10 25 27 47q-12 -37 -13 -99q0 -100 50 -149l10 47 q10 -29 22 -59q35 -70 86 -105q-4 20 -6 49q4 -12 49 -55q57 -53 111 -70q-18 14 -35 41l-2 4v0q-8 0 40 -27.5t103 -31.5l-28 43q10 -20 84 -20q29 0 63 8q-10 6 -37 24q10 -6 21 -14q27 6 68.5 24.5t58.5 32.5l-35 11q29 12 51 30q57 41 78 86q59 129 53 215 q-5 83 -116 185zM975 502q-20 -29 -39 -45q8 23 8 69q0 88 -41 148q-4 -16 -18 -53q6 2 -29 79.5t-72 104.5q10 -25 9 -51q0 -6 -15 24q-29 53 -76 88l-6 -61q2 6 -18 31q-31 39 -94 65q4 -16 10 -51q-76 57 -148 53l23 -37q-106 18 -176 -18q-90 -51 -117 -76 q-49 -49 -49 -125q0 -51 20 -123q16 -59 19 -59q-2 86 0 143q2 59 33.5 102.5t83.5 43.5q18 0 36 -6q68 -23 109 -23q31 0 41 14q-20 -27 -35 -49q45 -27 88 -22l-33 -31q45 -33 89 -33q-18 -14 -56 -31q6 -10 13 -20q18 -18 51 -14l-33 -15l12 -20q14 -23 47 -27l-41 -4 v-12q4 -14 37 -37q-25 6 -47 16q-6 -16 17 -67q-12 16 -35 39q-4 2 -15 -95l-16 43q-12 0 -20 -12q2 -12 -23 -74q4 18 6 54q-10 2 -80 -60l25 56q-16 -8 -109 -35l35 35q-4 10 -92 2l25 18q-53 6 -99 33l25 6q-92 68 -92 250q0 39 6 78q-37 -66 -96 -224q-33 -82 -23 -188 q6 2 31 41q-12 -47 -8 -111q4 -74 28 -102q10 10 23 39q18 -35 35 -70q51 -78 114 -106l-4 39q-6 -8 86 -57.5t133 -45.5l-39 47q2 -4 33 -16q45 -16 94 -16q72 0 144 34l-45 19l82 16q90 29 141 94l-51 9q31 20 63 41q66 55 82 114q-14 -12 -57 -30q29 25 59 77 q41 72 41 134q0 28 -10 53z" />
<glyph unicode="9" horiz-adv-x="1142" d="M690 1067q2 0 4 -2q-2 2 -4 2zM690 1067v0v0zM694 1065q4 -25 -18 -61q-29 -45 -78 -46q-20 0 -53 12.5t-51 12.5t-24.5 -9t-10.5 -16l14 58q-25 12 -43 -10l14 41q-4 18 -38 -15l34 49v0v6q0 2 -4 0q-8 -4 -24 -16l24 23q0 10 -41 -2l37 18q8 4 -45 14q14 4 49 9 q8 6 -53 32q20 0 53 -2q6 4 -61 45l43 -10l6 6q0 14 -55 62q16 -8 47 -25q8 2 -39 74l47 -31q-2 14 -33 86l35 -35q10 12 -14 76l20 -22q-4 25 -10 88l14 -21q10 115 105 227q-2 -14 -140 -38q-59 -2 -102 -19q10 -8 43 -24q-104 27 -141 -3q12 -10 37 -24q-4 -6 -9 -10 q-33 -14 -63 -29q-41 -18 -45 -25l33 -8q-90 -59 -103 -94l49 4q-14 -6 -37 -29q-39 -39 -45 -90l37 9q-63 -53 -55 -134l45 17q-4 2 -15.5 -30t-11.5 -60q0 -16 5 -29l36 37q-20 -33 -20 -88q0 -47 24 -74q8 14 29 41q-2 -82 51 -129l15 47q39 -94 94 -115q-4 10 -10 43 l26 -26q33 -33 54 -41l-3 55q12 -6 25 -12q45 -33 66 -35q-8 23 -13 43q-2 -4 33 -10q37 -6 64 0l-19 33q2 -4 39 6t59 28q16 14 55.5 33t61 39.5t21.5 56.5q-1 39 -17 66zM1081 745l-49 -40q72 100 72 188q0 14 -4 29l-45 -31q29 61 28 131q0 27 -6 51l-39 -37 q20 127 -2 195q-2 -12 -20 -45q-2 -4 -4 -4q12 76 -6 145l-41 -47q4 2 4 37q-2 51 -35 113q-6 -14 -25 -48q-6 29 -18 56q-25 61 -60 94l-8 -43q-20 27 -43 51q-55 55 -108 72q-164 51 -248 45q-76 -8 -213 -129q10 -47 108 10l119 68q133 0 183 -84q80 -133 116 -131 l-59 -9q10 -31 61 -96l-45 -2q0 -16 6 -35q14 -39 54 -75q-47 -2 -66 14q-2 -70 43 -101l-35 7q0 -90 41 -129l-41 14q-16 -59 29 -139q-14 2 -45 28q-8 -18 -8 -45q0 -51 26 -108q-18 10 -45 33q-18 -51 21 -148l-35 29q-18 -8 -18 -64q0 -41 14 -100q-12 16 -33 49 q-31 -25 -20 -152l-35 50q-16 -51 -35 -150l-20 47q-4 2 -19 -24q-18 -33 -31 -88l-14 24l-59 -110l-11 22q-117 -137 -335 -190q152 -18 256 -15q47 -2 180 9q0 6 -47 30q37 -10 98 -10q78 -2 108 16q-10 12 -36 29q37 8 71 18q82 31 123 76l-35 8q2 -4 78 56.5t90 87.5 l-55 -6q18 6 53 43q61 57 88 131l-41 -10q25 23 45 51q49 66 64 137l-49 -12q67 91 67 163z" />
<glyph unicode=":" horiz-adv-x="440" d="M324 408l-19 -9q16 14 17 45q0 18 -9 33q-8 -6 -18 -16v24q-4 27 -19 37q0 -6 -2 -12q-2 6 -4 8q-2 0 -4 -4q-4 18 -11 31.5t-13 17.5q-2 -2 -2 -4q-6 2 -15 4v-10q-23 25 -47 27l4 -11q-6 2 -12 2q2 -2 2 -4q-45 14 -61 6q6 -4 12 -12q-4 0 -6 -2h2q-39 6 -66 -22l19 -7 q-45 2 -62 -49q10 0 25 -2q-37 -23 -35 -53q12 8 25 12q-27 -23 -27 -55q0 -12 6 -23q10 10 21 17q-18 -31 10 -62q6 10 14 21q6 -43 31 -53q-2 10 0 18h2q8 -23 27 -33q0 8 2 17l8 -4q18 -14 47 -21q0 2 -10 21q37 -37 61 -29q-4 6 -14 18q39 -14 69 17l-16 8 q0 -4 26.5 15.5t30.5 31.5q-12 -2 -26 -2q43 15 37 68zM4 1044q10 10 21 17q-18 -31 10 -62q6 10 14 21q6 -43 31 -53q-2 10 0 20q0 -2 2 -2q8 -23 27 -33q0 8 2 17q2 -2 8 -4q18 -14 47 -21q0 4 -10 21q37 -37 61 -29q-4 8 -14 18q39 -14 69 17l-16 8q0 -4 26.5 15.5 t30.5 31.5q-12 -2 -26 -2q43 14 37 70l-19 -11q16 16 17 45q0 18 -9 35l-18 -18v24q-4 27 -19 37q0 -4 -2 -12q-2 6 -4 10l-4 -4q-4 16 -11 29.5t-13 17.5q-2 0 -2 -4q-6 4 -15 4v-8q-23 25 -47 25l4 -11q-6 2 -12 2q2 -2 2 -4q-45 14 -61 6q6 -4 12 -12h-6l2 -2 q-39 6 -66 -20l19 -9q-45 4 -62 -47q10 -2 25 -2q-37 -25 -35 -55q12 8 25 12q-27 -23 -27 -55q0 -13 6 -23z" />
<glyph unicode=";" horiz-adv-x="413" d="M270 117q27 4 35 0q0 4 -16 24q-33 35 -80 27q10 10 22 16q-4 6 -24 15q-43 12 -76 -23q4 10 16 29q-8 4 -20 0q-41 -10 -51 -47q-2 18 -4 35q-14 -10 -33 -64l-8 29q-16 -31 -15 -52l-10 15q-4 -31 4 -55l-10 12q2 -80 23 -125q6 12 30 27q41 8 41 -23q0 -35 -45 -102 q-49 -51 -45 -52q2 -2 44 19.5t79 25.5q53 8 37 37l18 -26q23 12 19 32l16 -20q14 14 14 25q0 8 -4 18q20 -16 25 -29q14 8 14 23q0 10 -6 20l16 -14q14 14 15 37q0 14 -10 26l20 -14q8 8 8 27q0 23 -18 47q20 2 28 -12q6 59 -49 92zM10 694q10 8 21 17q-18 -31 10 -64 q6 12 14 23q6 -43 31 -56q-2 10 0 21l2 -2q8 -23 27 -31q0 6 2 14l8 -4q20 -14 47 -20q0 4 -10 20q39 -35 63 -26q-4 6 -14 18q37 -14 68 17l-17 6q0 -2 26.5 16.5t30.5 30.5q-12 -2 -24 -2q41 14 37 69l-19 -8q14 14 15 45q0 16 -9 33l-18 -18v24q-2 27 -16 37 q-2 -4 -4 -10q-2 4 -5 8l-2 -4q-6 16 -13 30.5t-13 16.5l-2 -4q-6 4 -13 4q0 -2 -2 -8q-23 25 -45 24l2 -8h-10v-2q-45 12 -61 6q6 -6 14 -12q-4 0 -8 -2h2q-39 6 -66 -23l19 -8q-45 4 -62 -47q10 0 25 -2q-37 -23 -35 -53q14 6 25 10q-27 -20 -27 -55q0 -13 6 -21z" />
<glyph unicode="&#x3c;" horiz-adv-x="937" d="M934 1430q51 49 143 172q-86 -84 -340 -287q-123 -88 -127 -135l-8 45q-29 -23 -80 -86l-8 30q-16 -8 -29 -20q-33 -29 -55 -70q-10 31 -2 47q-18 -8 -31 -16q-35 -23 -45 -53l-2 24q-23 -10 -41 -22q-43 -27 -59 -55l2 30q-27 -6 -111 -73q-8 18 11 36q-33 -12 -80 -34 l-17 -13l4 19l-59 -224v0l8 -4l33 -14q-25 -10 -41 -6q12 -16 29 -29q41 -31 102 -49l-33 -8q16 -18 39 -33q49 -37 105 -53q-31 -4 -47 -2q10 -14 28 -27q41 -31 109 -51l-41 -12q29 -20 141 -68l-37 -10q18 -18 115 -53l-12 -15q70 -31 110 -37l-12 -12q18 -8 305 -127 q-92 76 -141 137q-39 53 -78 107q-10 -2 0 -43q-18 55 -61 139q-12 -14 -13 -26q-18 39 -82 126l-6 -24q-33 53 -88 131l-2 -39q-14 37 -96 135l-2 -28q-2 8 -10 22l2 2h-5q-4 10 -10 19q72 14 123 49l-39 10q102 37 148 74q-18 -4 -41 -4q-4 0 20 10q47 18 84 47l-43 10 q20 2 103 70h-37q33 25 98 92l-33 -2q31 33 101 125q22 37 141 156z" />
<glyph unicode="=" horiz-adv-x="1314" d="M1200 932q-51 18 -84 18q-31 0 -39 -16l19 39q-45 8 -80 -8l10 28q-10 4 -22 4q-31 0 -64 -20q6 31 21 39q-12 6 -27 6q-27 0 -47 -21l8 23q-14 4 -27 4q-39 0 -63 -22l10 26q-8 4 -20 4q-31 0 -72 -24q0 18 16 30q-10 4 -22 5q-35 0 -78 -31q8 27 14 35q-33 10 -94 -37 l12 28q-6 4 -16 5q-33 0 -90 -43q12 23 20 34q-29 10 -98 -39l14 37q-41 -8 -98 -45l14 33q-31 2 -79 -37l2 19q-45 -23 -72 -48v19l-207 -107q55 -12 131 -12l82 -27q4 8 -18 33q61 -53 90 -65q0 20 -6 28q49 -31 96 -36l-8 20q41 -14 102 -35l-16 31q41 -33 106 -33 l-12 23q45 -31 104 -31l-8 20q-2 6 -2 9q47 -27 86 -25l-22 31q61 -43 110 -33l-14 29q41 -23 92 -19l-18 27q61 -18 98 -19q-10 8 -21 21q8 -2 15 -2q29 -12 57 -14l-16 34q18 -18 75 -16q-8 14 -16 29q47 -12 86 -7l-14 23q53 -2 102 10q18 4 139 4q29 0 146 33 q-35 -4 -70 -4q-115 0 -217 35zM1110 598q-51 18 -86 18q-29 0 -37 -16l19 37q-45 10 -82 -6l12 26q-12 6 -25 7q-29 0 -61 -21q6 31 20 39q-14 4 -26 4q-29 0 -49 -18l8 22q-12 2 -25 2q-39 0 -65 -20l12 24q-10 4 -20 4q-33 0 -74 -24q0 20 18 33q-10 4 -22 4 q-37 0 -80 -31q8 27 16 33q-33 10 -96 -37l12 29q-6 4 -14 4q-33 0 -90 -41q10 23 20 32q-31 12 -100 -36l14 36q-41 -8 -98 -45l14 31q-31 4 -78 -37v21q-45 -25 -71 -47l2 16l-207 -106q78 4 129 -11l84 -28q2 10 -18 32q59 -53 90 -63q-2 18 -6 29q47 -33 96 -39l-8 22 q39 -16 100 -35l-16 29q43 -31 106 -33l-12 25q45 -33 106 -31l-8 21q-4 6 -4 8q49 -27 86 -25l-23 29q63 -43 113 -33l-16 29q43 -23 92 -19l-17 27q61 -18 99 -16q-10 8 -21 20q6 -2 15 -4q29 -12 55 -12l-14 35q18 -18 75 -17q-10 14 -16 27q45 -10 84 -4l-14 20 q55 0 104 12q16 4 137 2q29 0 146 33q-33 -4 -68 -4q-117 0 -217 37z" />
<glyph unicode="&#x3e;" horiz-adv-x="591" d="M526 899l-16 6l10 -22q-63 59 -94 69l4 -28q-16 20 -76 67l2 -30q-23 27 -73 77q2 -4 6 -26q-2 12 -47 63l-9 -33q-2 14 -47 74l-4 -29q-16 25 -59 80l-4 -22q-20 29 -80 92q-4 4 -105 133q-37 47 -133 113q41 -41 76 -82q80 -100 119 -201q45 -115 88 -117l-35 -4 q14 -27 68 -73l-25 -5q29 -49 84 -71q-18 -14 -39 -6q37 -49 80 -56l-18 -10q61 -57 106 -55l-22 -10q8 -10 51 -33q-2 -16 -4 -31l-11 27q-20 -33 -47 -123q-8 20 -8 35q-16 -12 -43 -115l-16 31q-10 -25 -37 -115l-10 27q-14 -16 -31 -95l-12 9q-16 -51 -19 -91l-12 9 l-74 -248q57 86 176 190q-2 4 -6 4q-10 0 -28 -8q41 20 106 60q-14 10 -25 10q31 16 93 76l-19 2q37 31 92 86l-30 -6q27 16 96 92l-25 -2q29 16 92 92h-26q6 8 31 24l24 25v2l6 8l2 2z" />
<glyph unicode="?" horiz-adv-x="747" d="M535 47l-19 -8q16 14 16 45q0 16 -10 33q-6 -8 -18 -19q0 12 2 25q-4 27 -19 37q0 -4 -2 -10q-2 4 -6 8l-2 -4q-4 16 -12 29.5t-14 17.5v-4q-6 4 -15 4v-8q-23 25 -47 24l4 -10q-6 2 -12 2l2 -2q-45 12 -61 6l12 -12q-4 -2 -6 -2v-2q-37 8 -64 -21l19 -8q-45 4 -64 -47 q10 0 27 -2q-39 -23 -35 -53q12 6 22 10q-25 -20 -24 -56q0 -12 6 -20q8 8 21 16q-18 -31 10 -63q6 12 12 22q8 -43 31 -55q0 10 2 21l2 -2q8 -23 26 -31q0 8 3 14l8 -4q18 -14 47 -20q0 4 -12 20q39 -35 63 -29q-4 8 -14 21q39 -16 67 14l-16 8q2 -4 28.5 15.5t30.5 32.5 q-12 -2 -26 -3q41 15 37 70zM47 985q-2 0 -4 4q4 -8 4 -4zM840 1274l-37 -27q20 70 20 127q0 27 -4 47q-6 -16 -26 -47q8 29 8 76q0 127 -72 195q2 -20 -2 -58q-6 27 -45 76q-53 72 -127 96q16 -31 25 -49q-16 18 -86 47q-84 35 -134 27q14 -4 48 -27q4 -2 4 -4h-2 q6 0 -32 10.5t-77 10.5q-25 0 -51 -5l43 -36q-29 4 -41 4q-53 0 -119 -31q14 -4 45 -18q-98 -23 -147 -80q10 0 39 -2q-2 6 -50.5 -49.5t-62.5 -108.5q-33 -131 -33 -195q0 -27 2 -51q10 -102 117 -213q-76 109 -76 246q0 109 68 180q43 33 67 58q55 49 58 65q0 -29 4 -49 q29 12 92 57l-2 -37q23 -2 102 37q-2 -18 -20 -49q-8 -2 26 -4q31 -2 54 16l-15 -26q10 -2 19 -6q20 -8 39 -9q12 0 24 5l-28 -21q0 -6 59 -45q-27 -6 -41 2q-2 -31 51 -117q-16 4 -43 19q-6 -55 47 -137l-32 18q-27 -12 18 -129q-10 12 -29 37l-32 -123l-19 47 q-4 0 -28 -45q-33 -66 -46 -139l-20 45q-33 -49 -33 -119q0 -23 4 -45l-22 10q-2 -94 20 -143l-20 6q20 -156 92 -365q0 43 4 80q8 90 25 133q27 66 59 127q-18 -6 -47 -20q47 41 115 106q-25 8 -37 7q33 25 100 86l-27 8l54 32q66 39 94 72q-31 -4 -51 -6q33 16 73 61 q61 70 76 160l-35 -24q6 -4 33 69q29 82 23 154z" />
<glyph unicode="@" horiz-adv-x="1794" d="M1886 762q2 0 -28 -88q-39 -111 -99 -215q-78 -143 -203 -252q-143 -127 -296 -154q-170 -31 -291 -35q-51 0 -103 -2q25 16 52 35q0 -2 -252 49l41 23q-86 45 -242 108q37 20 74 7q-47 45 -172 135h34q-4 0 -51 78q-59 96 -94 143q6 -4 43 -19q-31 106 -78 263 q8 0 15 -4q16 -10 26 -39q-2 55 21 276q10 -16 20 -53q14 41 117 242v-50q-2 0 237 213q-10 -20 -39 -63q2 0 279 135l-33 -51q47 14 86 24q106 27 213 35l-45 -33q49 -2 238 -30l-13 -21q0 6 72 -30q80 -39 117 -76l-19 -13q137 -145 138 -434q0 -125 -27 -260 q104 301 100 486q6 84 -16 174q-14 66 -43 127q-25 53 -27 45q-6 0 2 -54q-29 78 -88 160q-74 104 -137 127q-4 -27 10 -43q-35 31 -133 76q-139 61 -252 61l31 -26q-25 10 -172 10q-186 0 -242 -25l76 -16q-12 8 -127 -18q-156 -35 -289 -129q6 2 62 6q-49 -14 -121 -62 q-139 -92 -221 -233l59 28q-4 16 -81.5 -112.5t-82.5 -231.5q18 37 43 76q-53 -125 -53 -287q0 -100 31 -170q6 27 18 76q4 -59 17 -116q31 -139 98 -248q-4 20 -8 80q12 -43 84 -150q86 -129 160 -172q-16 16 -50 74q-4 6 -4 8v0q-6 0 58 -64q74 -74 168 -122 q-12 23 -37 69q-2 -6 53 -43q82 -53 215 -88q-20 16 -55 51q-4 -4 88 -28q106 -29 188 -29q23 0 43 4l-57 27q25 -20 49 -41q61 8 174 51q96 37 150 68q248 135 391 311q82 98 145 295q22 88 45 174zM1669 618q-2 131 -57 324q-4 -37 -10 -65q-14 -74 -37 -109 q-43 -68 -68 -90q2 -2 6 -2q14 -4 43 6q-49 -23 -116 -53q23 -16 32 -17q0 -2 -35.5 -10t-46.5 -8l17 -21q-6 -6 -29 13q0 6 -37 37q4 2 -4 30l-33 -20q4 12 9 39q8 0 10 2q6 10 6 26q-12 -6 -37 -18q16 14 37 51q31 53 29 101l-39 -21q45 76 39 158l-35 -33q14 45 14 109 q0 51 -14 86q0 -14 -13 -50l-2 -4q-31 0 -32 62q0 78 -13 94q-6 -31 -14 -55q2 10 -12 37q-27 51 -94 86q4 -14 12 -46q4 2 -49.5 30t-94.5 26l21 -31q-20 2 -39 4q-33 0 -76 -5t-47 -7q-61 -10 -203 -41q-76 -18 -192 -98q8 8 90 32q113 37 209 37q57 0 106 -14 q84 -23 125 -23q18 0 33 11l-31 -41q20 -10 70 -21l-27 -22q-2 -6 47 -33q-37 -6 -51 -6q-4 -25 31 -49l-29 6q-6 -59 23 -101l-31 17q-8 -18 -8 -45q0 -37 14 -82q-14 8 -35 33q0 -2 -6 -17q-8 -20 -8 -49q0 -53 29 -139q-8 2 -19 4q-20 4 -26 31q2 -12 2 -33 q2 -45 96 -160q-12 2 -47 14q8 -16 14 -34q29 -41 68 -66q53 -35 113 -29q-16 -8 -50 -16q4 -6 31 -23q57 -25 94 -24q33 0 115 37q-10 -23 -25 -49q33 12 68 24q78 41 106 111l5 -49q68 63 67 143l19 -12q4 0 8 49q4 53 -6 80zM850 446q-29 39 -51 39l-19 -8l33 35 q-16 20 -41 14l27 23q-2 23 -43 12q14 10 41 25q6 18 -31 6l27 12q0 4 -1 6t-4 6h3l2 -4q4 6 4 60q2 -16 8 -43q10 -4 29 59l2 -47q0 -2 47 64l-9 -41q16 2 50 49l-2 -25q16 14 53 55l-4 -20q45 37 180 102q-47 14 -98 33q-4 2 -66 43q-2 -14 10 -41q-37 72 -69 84 q0 -25 4 -37q4 4 -29 23.5t-61 19.5l8 -24q-41 14 -109 22l27 -30q-31 14 -57 14q-37 0 -72 -23l27 -18q-16 6 -52 -2q-49 -14 -82 -58q14 -4 37 -10q-12 -2 -43 -28q-39 -33 -45 -68q12 8 41 16q-63 -47 -63 -118q0 -18 6 -33l33 26q-10 -27 -11 -59q0 -39 19 -63l22 32 q-4 -2 8.5 -47t30.5 -61q0 14 6 33q0 2 2 4q-2 0 5.5 -28t27.5 -46l19 41q0 -33 43 -62q2 10 8 37q-2 -4 19.5 -21.5t41.5 -21.5l2 29q23 -12 84 -18q23 2 105 -15q41 -2 108 41q-20 -4 -51 -4q-92 0 -137 59zM782 618h-2v0h2zM795 616zM788 618h-2q0 2 -14 25zM778 618v3 q-4 2 -10 6q4 -3 10 -9zM784 614v0q4 -2 4 -4q-6 2 -28 2z" />
<glyph unicode="A" horiz-adv-x="1292" d="M596 2050v0v0zM1278 -135q-33 55 -86 176q-31 100 -35 125q-6 0 -16 -41q6 117 -2 149q-18 -8 -23 -20q-2 43 -29 145l-14 -18l-10 63q-10 72 -16 88l-17 -32q2 82 -31 157l-14 -24q0 94 -22 158q-10 -10 -23 -27q0 88 -18 131l-17 -43q8 119 -16 170l-23 -33 q6 78 -16 139l-21 -32q-4 86 -16 147q-4 -16 -14 -35q0 -2 -2 -2l2 31q2 41 -4 78l-29 -31q12 41 -6 115q-6 -8 -23 -29q-2 66 -16 127l-19 -27q-6 45 -32 154q-16 57 -27 211q-4 74 -47 213q16 -76 16 -260q0 -43 -6 -127t-6 -125q0 -96 27 -113l-41 21q2 -39 30 -121 l-30 10q-2 -68 41 -127q-29 0 -45 21q0 -78 39 -111l-25 6q23 -61 53 -131l-28 10q2 -20 8 -40q14 -49 49 -95q-18 -6 -37 17q8 -29 18 -54q25 -59 56 -90q-14 2 -39 11q4 -16 12 -37q23 -45 68 -90l-31 8q0 -18 10 -39q20 -47 84 -103q-14 4 -43 19q4 -18 15 -37 q25 -45 77 -92l-41 6q16 -31 103 -121l-39 6q41 -45 88 -94l-18 -8q27 -27 90 -76l-17 -8q60 -53 244 -219zM627 993q-2 -2 -4 -2l14 29q18 39 25 78l-48 -19q14 14 35 113q-10 -6 -37 -21q23 74 23 127l-31 -18q10 94 2 158q-2 20 12 209q6 78 -26 219q4 -250 -70 -426 q-37 -84 -37 -135q0 -33 15 -48l-43 33q-18 -76 -6 -121l-33 21q-10 -25 -10 -57q0 -35 14 -72q-37 14 -45 37q-12 -31 -12 -60q0 -31 14 -51l-27 14q-12 -37 -12 -71q0 -37 14 -62l-28 21q-14 -25 -15 -62q0 -37 15 -75q-14 2 -35 32q-14 -33 -15 -71q0 -37 15 -80 q-31 20 -37 33q-8 -18 -8 -50q0 -43 18 -94l-31 27q-14 -14 -14 -62q0 -41 14 -96q-12 14 -30 43q-12 -18 -13 -69q0 -35 9 -78l-37 37q-10 -49 -6 -148l-27 35q-23 -39 -14 -117l-21 15q-10 -70 -10 -115l-16 14q-53 -176 -185 -282q2 -2 76 32q82 39 129 66q135 76 127 80 q-8 8 -47 2q104 27 151 74q-23 12 -36 10q84 55 123 119h-31q47 51 106 135l-43 -11q20 16 37 39q41 51 60 111l-33 -10q18 18 35 41q37 53 49 108l-41 -8q16 20 28 43q29 49 35 84l-45 -29q82 94 78 164l-41 -18q12 23 23 43q25 49 26 96l-39 -23q20 49 45 148 q-10 -15 -28 -29zM1104 434q-63 0 -76 -28l10 40q-25 0 -75 -24l4 31q-41 4 -76 -33q0 27 10 41q-45 4 -65 -27l4 23q-18 0 -33 -4q-33 -6 -49 -29l6 27q-39 6 -82 -35q-4 20 10 33q-47 8 -90 -37q4 27 10 34q-37 2 -86 -47l11 29q-35 12 -97 -45q8 25 17 35q-33 8 -90 -43 l12 39q-20 -8 -92 -49l12 32q-33 0 -74 -37v19q-23 -12 -69 -45l2 16q-88 -41 -209 -90q41 -2 127 -20q70 -31 84 -33q2 10 -19 33q31 -29 88 -66q0 18 -4 29q25 -18 97 -39l-9 20q72 -27 105 -28l-19 26q53 -31 111 -24l-14 22q37 -23 84 -22q12 0 24 2q-4 10 -14 26 q59 -20 90 -14l-27 27q47 -23 84 -23q20 0 33 6l-20 27q53 -14 94 -2l-21 22q70 -8 101 2q-12 4 -25 15l-2 2q0 2 21 -2q29 -4 53 0l-23 30q27 -14 76 0q-10 12 -20 23q53 0 81 14l-18 17q29 8 96 37q8 4 129 39q49 12 127 69q-123 -47 -225 -47q-14 0 -45 3t-45 3z" />
<glyph unicode="B" horiz-adv-x="1150" d="M1047 457l38 -11q4 78 -106 134q35 0 51 -7q-4 -2 -8 -2q-31 35 -47 50q-39 33 -74 38l47 21q-63 43 -143 39l37 24q-29 18 -64 19q-27 0 -53 -10l10 22q-61 -4 -102 -26l6 20q-119 -29 -244 -104q92 2 131 -23q53 -33 70 -49q6 12 -6 43q20 -41 49 -100q10 25 10 34 q12 -29 43 -75l13 24q2 -2 11 -34.5t9 -41.5l23 31q-8 -53 2 -76l24 19q-25 -47 -18 -68l35 10q-16 -16 -31 -51l39 8q0 2 -30 -18.5t-26 -36.5l37 -6q-18 -8 -51 -41l35 -12q-23 -10 -64 -33l29 -14q-14 2 -55 -9l28 -32q-27 10 -63 -7q6 -8 20 -28q-23 0 -75 -8l16 -27 q-29 -2 -106 -12q-41 -6 -148 30q-43 16 -164 37q-6 -2 303 -153q53 -27 95 -27q43 0 57 25l-16 -45q74 -4 106 34l-2 -38q18 4 37 8q43 18 67 65q14 -37 0 -57q23 6 39 18q39 29 43 68l11 -29q4 -10 40.5 37t28.5 88l21 -31q8 12 18 25q20 35 21 80q0 18 -4 39 q12 -2 30 -35q18 25 19 72q0 47 -27 94q16 -6 41 -25q6 12 0 41q-12 56 -63 105zM-27 2049v0v0zM377 748q47 84 43 137l-45 -37q55 88 55 151q0 14 -4 29l-43 -27q35 80 25 150l-41 -29q18 66 18 129q0 18 -2 31q-10 -18 -27 -37l-4 -2v0q0 -4 10.5 38t8.5 79l-49 -31 q14 20 14 66q0 27 -8 59q-10 -10 -37 -33q6 88 -15 133l-26 -28q-8 47 -53 153q-20 33 -41 95q-23 74 -39 106q-18 55 -144 168q37 -43 72 -117q57 -121 57 -231q0 -20 -4 -58t-4 -57q0 -92 41 -112l-59 16q0 -27 2 -41q6 -47 26 -74l-45 10q-10 -57 39 -120q-43 4 -61 24 q-16 -68 31 -104l-35 8q-6 -90 35 -127l-41 14q-16 -57 32 -133q-16 -2 -47 25q-6 -14 -6 -35q0 -55 41 -115q-18 8 -49 25q-14 -55 47 -141l-41 22q-8 -12 -8 -33q0 -51 49 -129q-16 10 -45 37q-4 -10 -4 -24q0 -51 43 -129l-53 28q10 -47 47 -153l-45 28q-8 -55 37 -127 l-29 6q12 -37 49 -116l-25 4q51 -180 86 -342q12 66 62 192q35 59 68 121q-23 -8 -54 -20q102 82 121 120q-31 4 -45 -2q18 20 35 45q35 53 45 97l-33 -8q61 111 74 151l-47 -20q16 20 30 45q31 57 35 116l-35 -14q59 78 58 164q-16 -6 -43 -16zM33 872q-6 2 -8 2q2 0 8 -2z M1018 1372q27 10 49 -22q-4 35 -18 67q-37 80 -117 125q37 6 53 -2q-8 18 -37 47q-57 55 -147 74l43 12q-57 80 -223 66q16 10 55 22q-35 27 -103 27q-49 0 -104 -19l33 43q-109 0 -195 -38l27 38q-72 4 -148 -51l-2 25q-2 2 -47 -25q-51 -29 -74 -49l-2 21 q-137 -74 -313 -217q158 49 215 47q72 0 143 -7q0 14 -38 35q59 -27 155 -61q-4 25 -12 35q43 -18 149 -45l-10 26q0 2 59.5 -25.5t75.5 -37.5l-12 41q27 -27 119 -86v32q18 -33 78 -104q8 12 16 35q10 -35 37 -101l18 43q-6 -47 9 -139l30 25q-8 -31 -18 -117q8 4 35 21 q0 -2 -52 -119q2 0 33 14q-4 -6 -10 -14q-31 -35 -49 -58l49 -6q-31 -12 -84 -65q12 -2 41 -11q-55 -35 -104 -61q10 -6 30 -16q4 -8 -92 -33t-113 -25q-68 0 -180 45q-102 37 -233 88q80 -51 162 -100q164 -90 311 -113q39 -6 74 -6q135 0 157 76l-8 -59q29 16 55 30 q59 41 76 86l10 -41q20 18 43 39q43 55 48 125q29 -27 24 -59q49 61 49 127q0 18 -6 35l25 -23q18 49 18 115q0 57 -22 88l34 -23q4 20 0 62q-12 75 -65 141z" />
<glyph unicode="C" horiz-adv-x="1081" d="M555 -4q-66 29 -117 67q-23 20 -47 41q39 -2 58 0q-25 47 -103 142l49 2q-8 25 -18 47q-27 59 -76 108q49 2 70 -18q-4 29 -11 51q-16 57 -51 88l37 -8q-4 41 -10 68q-14 74 -43 112l41 -18q12 80 -27 192q14 -2 43 -39q12 43 12 95q0 57 -14 116q16 -12 41 -41 q16 37 17 117q0 39 -5 80l29 -39q8 2 23 43q23 57 34 162q8 -20 17 -61q18 -4 84 153q2 -29 10 -59q10 14 23 28q27 33 75 54q-20 -25 -28 -43q8 4 120 -13l-20 -20q43 -20 139 -78l-22 -12q174 -135 258 -439l-4 121q-6 139 -21 224q-12 78 -37 157q-10 33 -20 68 q-6 -2 -17 -62q-2 66 -22 140q-25 90 -64 127q-14 -27 -12 -47q-20 47 -86 102q-104 86 -233 82l35 -31q-92 12 -173 -8q-109 -27 -192 -90l72 2q-45 -25 -90 -47q-104 -72 -158 -174l47 14q-33 -35 -66 -68q-74 -88 -100 -188l53 21q-88 -129 -96 -226l55 56q-4 8 -43 -84 q-41 -102 -41 -179q0 -23 4 -41l43 45q-23 -78 -22 -159q0 -51 10 -97l33 54q2 -49 2 -101q6 -113 29 -166q4 25 14 64l2 4q-2 0 4 -55q8 -72 35 -137q8 20 31 59q-4 -78 67 -191l15 60q16 -35 30 -70q41 -76 97 -123l-7 54q12 -23 66 -56q70 -45 135 -45q33 0 64 13 q156 63 286 190q61 61 125 188q25 55 49 113q-23 -41 -129 -182q-74 -88 -159 -146q-111 -73 -199 -63z" />
<glyph unicode="D" horiz-adv-x="1300" d="M514 475l-31 -16q53 74 47 155l-34 -18q35 80 24 129l-35 -37q35 63 35 121q0 25 -8 43l-33 -27q18 74 0 133l-28 -30q6 94 -11 137q-4 -16 -16 -33l-2 -4q-23 0 -14 51q6 59 10 51l-37 -32q14 41 -12 104q-6 -8 -25 -31q-16 53 -35 111l-16 -29q-16 37 -70 119 q-23 29 -47 74q-39 72 -47 84q-41 66 -147 123q39 -45 79 -90q78 -117 86 -230q10 -129 60 -143l-51 4q12 -37 43 -90l-39 2q-2 -51 49 -96q-35 -2 -53 10q-2 -57 39 -82l-29 4q2 -23 6 -39q12 -43 39 -61l-35 6q-6 -49 41 -105q-27 -2 -41 15q-10 -55 41 -115q-16 4 -41 16 q-8 -41 43 -110l-35 16q-4 -8 -4 -20q0 -39 39 -105q-14 10 -37 31q-14 -33 21 -117l-39 29q-4 -6 14 -117l-28 33q-14 -29 -7 -94l-16 16q-2 -31 -14 -96l-13 18q-51 -131 -215 -202q102 8 199 24q76 14 137 43q-2 4 -41 12q113 6 156 50q-23 14 -35 14q90 45 123 115 l-29 -2q0 -2 44 58t48 81l-41 -14q16 18 31 40q33 54 37 113zM1231 379q-31 -27 -57 -43q0 -6 28.5 46t46.5 118q27 90 23 182l-35 -41q25 74 25 176q0 86 -21 162l-33 -47q2 174 -51 270q-6 -53 -12 -82q2 47 -25 140q-37 131 -104 194l-4 -70q2 14 -41 86 q-59 100 -150 160l21 -69q-18 31 -105 92q-106 76 -184 86q18 -10 63 -51q4 -4 5 -7v0q16 0 -68 34t-176 32q29 -25 55 -51q-33 14 -96 14q-68 0 -135 -20l22 -11q-6 -4 -6 -6q0 -4 14.5 -8t16.5 -8q-41 -4 -80 -10q-94 -16 -158 -58l56 -10q-45 -25 -91 -51 q-100 -68 -137 -144q-78 -158 -78 -301q0 -39 4 -77q10 -98 93 -236q61 -104 75 -117l-30 64q-39 84 -63.5 166t-24.5 168q0 195 110 280q115 68 240 150q-10 -29 -17 -62q12 4 62 17l72 18q25 6 53 25l-15 -45q41 -8 168 26q-8 -23 -43 -53q-8 0 40 -13.5t91 -7.5l-28 -22 q39 -31 153 -90l-43 -10q2 -33 142 -146q-29 -14 -60 8q8 -29 25 -59q39 -70 100 -137q-20 2 -57 16q14 -49 98 -198l-43 20q-14 -12 17 -117q20 -74 39 -119q-16 16 -46 52q-14 -2 0 -217q-18 25 -38 47q-4 -39 -62 -191q0 18 -10 56q-8 -6 -113 -123l-6 28 q2 -2 -54.5 -35.5t-99.5 -54.5v27q-104 -31 -229 -31q-162 0 -340 49q0 -2 125 -61q135 -66 221 -103q125 -51 256 -71q4 12 -45 41q123 -51 236 -51q37 0 63 8q-8 12 -37 32q41 -4 129 27q125 43 193 125l-43 -2q10 -12 109.5 115t103.5 180z" />
<glyph unicode="E" horiz-adv-x="1191" d="M526 655q45 70 41 142q-14 -6 -37 -17q37 74 29 115l-37 -31q39 68 39 119q0 18 -4 31l-35 -23q16 43 17 86q0 18 -4 37l-31 -27q16 86 6 130q-6 -14 -21 -29q-2 -2 -4 -2l9 26q8 35 4 68l-39 -27q18 35 4 101q-14 -14 -31 -25q6 68 -10 107l-23 -23q-6 37 -37 127 q-6 14 -43 172q-12 59 -83 166q51 -137 51 -268q0 -29 -7.5 -80t-7.5 -78q0 -68 31 -82l-49 16q-2 -66 22 -98l-36 8q-8 -51 34 -100q-37 0 -51 16q-12 -57 29 -86l-31 7q-2 -76 35 -107l-33 10q-12 -49 33 -110q-27 0 -41 18q-12 -57 39 -121q-16 4 -43 19q-8 -45 47 -113 l-35 14q-6 -8 -6 -20q0 -41 47 -107q-14 8 -39 27q-12 -41 37 -121l-45 23q14 -49 39 -121l-37 22q-6 -35 27 -98l-23 6q12 -53 31 -96l-21 8q8 -49 9 -94q0 -104 -43 -201q43 49 129 146q8 10 80 96q-10 6 -46 -8q88 45 113 94q-25 6 -37 2q57 57 74 121l-29 -6 q51 88 62 133l-39 -19q14 16 24 39q25 49 25 103zM827 954q-29 16 -49 17q-25 0 -33 -25l11 49q-35 6 -54 -16l5 37q-6 4 -13 4q-20 0 -43 -31q0 35 11 49q-33 14 -50 -22l4 28q-41 6 -57 -32l4 35q-4 2 -10 2q-23 0 -49 -37q-2 25 8 41q-33 12 -66 -41q4 33 9 43 q-23 10 -62 -54l6 35q-2 4 -8 4q-25 0 -59 -59q6 29 12 43q-20 12 -63 -55l6 49q-14 -8 -62 -66l6 41q-10 0 -49 -53l-2 25q-27 -33 -43 -66v23q-82 -96 -125 -152q57 12 86 -2l58 -27q0 14 -15 39q23 -33 66 -71q-4 25 -8 34q20 -18 67 -38l-6 24q55 -33 70 -33l-15 35 q31 -37 74 -33l-10 29q33 -37 74 -31l-11 37q39 -31 60 -24l-19 34q47 -47 78 -30l-12 35q31 -25 63 -17l-14 33q47 -18 68 -12q-8 8 -17 22q6 -2 10 -2q20 -12 39 -12l-14 43q12 -16 37 -17q6 0 16 2q-8 16 -14 33q35 -10 57 0l-12 27q29 6 68 22q12 6 92 19q35 4 92 55 q-41 -14 -88 -14q-58 -1 -105 24zM180 1796v0v0zM1161 1681q-94 0 -102 -32l18 51q-72 2 -108 -19l14 35q-55 16 -117 -20q8 37 27 49q-61 18 -102 -16l12 28q-82 14 -125 -16l16 31q-16 6 -43 6q-43 0 -90 -21q0 25 27 37q-20 8 -47 8q-51 0 -107 -28q8 16 27 41 q-61 14 -152 -41l21 36q-25 4 -29 5q-63 0 -151 -68q16 35 30 49q-88 0 -168 -108l2 53q-25 -23 -49 -45q-51 -63 -59 -135l-21 45q-27 -41 -26 -97q0 -29 8 -57l-23 6q8 -82 37 -123l-20 4q37 -125 137 -297q-16 123 2 181q25 76 41 106q-12 4 -43 -18q0 -4 96 86 q-27 8 -37 6q43 29 74 45l-20 14q2 8 71 0l-24 29q16 -4 30 -10q37 -10 78 -8l-14 28q18 -12 37 -18q47 -20 94 -21q-6 16 -14 37q72 -39 118 -39l-30 41q96 -66 159 -55l-20 39q70 -37 135 -35l-22 35q100 -31 147 -27q-14 8 -31 25q-2 2 -2 4l31 -10q39 -14 80 -15l-27 43 q31 -18 80 -18q18 0 39 4q-8 8 -27 31q80 -8 129 8l-26 22q45 6 149 43q57 18 193 72q76 33 160 139q-49 -33 -99 -65q-125 -68 -237 -68q-18 0 -53.5 4t-53.5 4zM1073 203q-57 -12 -78 -13q2 -6 35 -26q-41 14 -100 33q10 -25 18 -31q-59 20 -74 18l11 -24q-2 0 -25.5 14 t-28.5 19l7 -35q-6 18 -47 45v-31q-8 14 -15 27q-18 27 -53 37q-2 -29 -2 -37q-10 14 -23 26q-27 29 -53 33l12 -43q-10 18 -39 43q-43 37 -81 33l12 -41q-55 43 -113 35l21 -33q-49 16 -95 16q-14 0 -24 -4q14 -10 29 -24l-17 6q-23 6 -45 6q-12 0 -24 -2l26 -39 q-33 18 -84 -2q6 -8 25 -27q-27 -2 -84 -24l22 -19q-29 -12 -88 -55q-20 -20 -53 -36.5t-63 -33.5q-41 -23 -97 -108q10 16 74 51q92 53 176 51q94 -4 105 41v-49q20 0 61 31v-37q35 -8 64 35q0 -35 -9 -52q35 -10 52 27l-5 -31q39 -6 62 25l-12 -31q2 -2 12 -4q20 -4 55 19 q-4 -12 -22 -35q16 -8 26 -8q23 0 60 16q-10 -14 -29 -35q27 -8 31 -8q31 0 76 16l-27 -26q14 -16 45 -17q39 0 96 27q-10 -12 -35 -37q12 -4 31 -4q51 0 107 47l-15 -47q18 4 39 16q45 27 72 68l-2 -45q14 10 26 20q29 27 39 60l11 -21q31 47 36 88l11 -18q43 90 78 227 q-29 -26 -101 -63zM741 -125z" />
<glyph unicode="F" horiz-adv-x="966" d="M670 604q12 74 -49 154q35 -8 45 -19q2 63 -64 140l37 -13q16 59 -70 154q16 -6 47 -25q0 59 -73 144l49 -13q-29 -8 -47 48q-25 76 -37 90l43 -13q-2 16 -10 33q-20 41 -62 76l25 4q-25 33 -82 92l20 4q-41 53 -213 260q20 -59 41 -188q2 -63 0 -129q6 0 33 37 q-47 -113 -47 -148q25 6 33 17q-23 -90 -15 -150l23 19q-18 -127 -16 -156l32 31q-20 -49 -20 -107q0 -29 6 -55l27 22q-23 -66 -23 -116q0 -23 2 -41l35 20q-18 -57 -18 -102q0 -14 2 -27l32 37q-31 -76 -30 -133q0 -20 4 -35l35 27q-18 -51 -19 -103q0 -18 4 -34l33 26 q-18 -94 -14 -145q12 16 26 32l-8 -28q-12 -41 -14 -78l43 25q-25 -37 -21 -113q10 8 35 25q-14 -78 -8 -127l29 22q-4 -45 4 -156q8 -74 -17 -208q-12 -70 6 -220q0 41 23 156q29 154 72 270q31 80 30 131q0 41 -18 56l47 -29q12 80 -8 125l35 -16q18 66 -19 133 q37 -8 49 -29q4 18 4 41q0 45 -26 74l31 -13q6 96 -33 140l33 -15q12 66 -35 142q29 2 41 -23zM444 -543v4v-4zM932 954q-29 16 -49 17q-25 0 -31 -25l8 49q-35 6 -53 -16l4 37q-29 14 -55 -27q0 18 10 49q-33 14 -49 -22l4 28q-37 8 -57 -32l4 35q-29 10 -60 -35 q-2 25 8 41q-33 12 -65 -41q4 33 8 43q-23 10 -59 -54l4 35q-4 4 -8 4q-23 0 -60 -59q6 29 13 43q-20 12 -64 -55l6 49q-14 -8 -61 -66l6 41q-10 0 -49 -53v25q-29 -33 -43 -66l-2 23q-82 -96 -125 -152q57 12 86 -2l57 -27q2 10 -14 39q23 -33 65 -71q-2 25 -8 34 q20 -18 68 -38l-6 24q55 -33 69 -33l-14 35q37 -39 74 -33l-11 29q33 -37 74 -31l-10 37q39 -31 59 -24l-18 34q47 -47 78 -30l-13 35q31 -25 64 -17l-15 33q43 -18 68 -12q-8 8 -16 22q6 -2 10 -2q20 -12 39 -12l-15 43q14 -23 54 -15q-8 16 -15 33q37 -10 58 0l-13 27 q29 6 68 22q12 6 92 19q35 4 92 55q-41 -14 -86 -14q-59 -1 -106 24zM188 1796v0v0zM1169 1681q-94 0 -102 -32l18 51q-72 2 -108 -19l14 35q-55 16 -117 -20q8 37 27 49q-61 18 -102 -16l12 28q-82 14 -125 -16l16 31q-16 6 -43 6q-43 0 -90 -21q0 25 27 37q-20 8 -47 8 q-51 0 -107 -28q8 16 27 41q-61 14 -152 -41l21 36q-25 4 -29 5q-63 0 -151 -68q16 35 30 49q-88 0 -168 -108l3 53q-25 -23 -50 -45q-51 -63 -59 -135l-20 45q-27 -41 -27 -97q0 -29 8 -57l-22 6q8 -82 36 -123l-20 4q37 -125 137 -297q-16 123 2 181q25 76 41 106 q-12 4 -43 -18q0 -4 96 86q-27 8 -36 6q43 29 73 45l-20 14q2 8 71 0l-24 29q16 -4 31 -10q37 -10 77 -8l-14 28q18 -12 37 -18q47 -20 94 -21q-6 16 -14 37q72 -39 119 -39l-31 41q96 -66 160 -55l-21 39q70 -37 135 -35l-22 35q100 -31 147 -27q-14 8 -30 25q-2 2 -3 4 l31 -10q41 -14 80 -15l-24 43q29 -18 77 -18q18 0 39 4q-8 8 -26 31q80 -8 129 8l-27 22q45 6 150 43q57 18 192 72q76 33 160 139q-49 -33 -99 -65q-125 -68 -237 -68q-18 0 -53.5 4t-53.5 4z" />
<glyph unicode="G" horiz-adv-x="1253" d="M598 43q-162 59 -170 59q31 12 51 25l-28 31q-37 35 -70 51l45 12q-12 23 -27 41q-35 47 -69 68q43 12 67 -2q-4 25 -12 41q-18 43 -55 61h37q-16 53 -62 137l41 -12q6 63 -41 154q16 0 47 -29q6 10 6 47q-2 59 -30 129q18 -10 47 -35q18 57 -15 172l33 -32q25 16 25 106 q0 39 -6 86q10 -18 28 -55q6 2 19 37q16 51 20 137l31 -51q16 39 59 163l15 -51q25 8 71 113l9 -27q41 53 92 86l-2 -24q39 20 90 20q152 0 313 -141q-109 156 -203 237q-59 51 -147 82q-37 10 -74 19q-4 -8 35 -37q-90 41 -190 41q-41 0 -64 -12q8 -12 35 -31 q-45 -10 -90 -21q-100 -33 -152 -86l37 -8q-4 6 -91 -64.5t-106 -101.5l60 11q-31 -20 -62 -50q-66 -68 -100 -155l45 14q-29 -27 -51 -61q-53 -78 -70 -164l49 18q-72 -115 -69 -198l49 51q-2 8 -33 -70t-31 -141q0 -31 9 -58l41 43q-12 -49 -13 -108q0 -63 19 -117l30 51 q4 -45 9 -88q14 -98 41 -145q0 29 8 59l2 6q-2 0 8 -51q14 -61 47 -116q6 20 23 61q-4 -2 10 -43q18 -55 78 -119q0 18 4 58q25 -37 41 -56q53 -61 112 -84l-16 47q10 -10 53 -24q55 -20 107 -21q43 0 76 17q164 76 247 159q53 53 97 166q16 49 30 101q-14 -37 -96 -160 q-133 -170 -274 -170q-15 0 -29 2zM471 805l-2 -8zM1155 403l35 -18q4 8 4 25q0 51 -51 127q29 -16 41 -29q12 51 -47 137l47 -20q2 -10 -17 80q-29 78 -86 96q-33 4 -65 8q-20 -2 -74 -29q6 14 21 41q-8 4 -37 -6q-45 -16 -80 -53l-2 24q-31 -20 -90 -71v22 q-45 -27 -142 -65q-10 -8 -26 -8q-39 0 -79 42t-38 91q-12 -55 16 -117q33 -51 88 -72q37 -10 74 -22q8 -2 137 -29q2 14 -32 39q63 -37 114 -55q-12 -43 -12 -84l31 16q-43 -74 -41 -145q14 6 37 16q-37 -76 -35 -117l39 29q-61 -96 -51 -145l36 16q-18 -29 -36 -117l36 17 q-20 -39 -47 -119q8 4 31 18q-4 -8 -6 -14q-25 -33 -35 -66l45 7q-23 -33 -51 -84q12 2 39 6q-18 -27 -53 -94l32 2l-69 -121q-31 -53 -148 -117q-178 -94 -184 -100q68 20 133 39q156 53 266.5 124.5t110.5 135.5q0 14 -4 18l28 -45q49 61 46 119l26 -29q29 35 29 90 q0 23 -6 45q33 -16 39 -43q23 37 22 74q0 25 -12 45l24 -18q14 37 15 77q0 39 -17 64l31 -21q10 20 10 52q0 45 -22 90q14 0 39 -27q6 18 6 43q0 55 -31 109q14 -6 41 -23q10 57 -43 139z" />
<glyph unicode="H" horiz-adv-x="1042" d="M422 645q0 -92 -60 -158l46 21q-6 -37 -66 -146l33 9q-14 -68 -78 -138q16 6 45 3q-14 -31 -68 -72q-8 -8 -53 -41l53 16q-43 -72 -71 -116q-39 -66 -74 -181q-16 166 -68 332l25 -6q-39 76 -49 111l26 -7q-47 68 -38 117l45 -27q-43 82 -54 142l56 -25q-49 74 -49 119 q0 10 2 20q31 -23 49 -32q-55 76 -56 123q0 16 5 24l43 -18q-66 78 -54 129q31 -14 49 -21q-47 59 -47 109q0 14 4 29q16 -20 50 -21q-51 68 -39 123l41 -12q-45 33 -41 118l34 -8q-49 33 -34 96q18 -16 61 -18q-51 53 -43 111l45 -9q-29 31 -35 105l62 -10q-47 18 -47 116 q0 25 2 45q12 119 -64 234q-55 84 -96 104q31 -10 76 -37q66 -39 90 -81q27 -68 90 -183q49 -98 59 -141l27 29q20 -41 20 -125q25 23 35 33q10 -35 11 -64q0 -35 -13 -53l47 33q4 -45 -4 -80l-8 -33q2 0 4 4q16 16 25 35q14 -53 -8 -152l38 31q4 -20 5 -41q0 -57 -21 -102 l43 26q4 -14 4 -33q0 -59 -47 -137l43 35q8 -45 -37 -131q27 10 45 18q4 -82 -51 -157zM772 -43l21 8q-39 23 -82 78l18 6q-61 66 -76 96l45 -8q-74 94 -86 125l50 -12q-72 76 -70 133q29 -18 45 -25q-68 74 -68 127q0 8 2 19l37 -15q-66 74 -59 132q27 -14 45 -19 q-45 57 -45 113q0 14 2 28q12 -23 41 -20q-35 53 -35 102q0 14 2 27l33 -14q-37 39 -25 127l27 -13q-23 25 -23 64q0 23 7 41q10 -20 49 -27q-25 39 -25 82q0 20 6 37l35 -16q-12 23 -12 55q0 27 8 59l45 -28q-18 14 -18 53q0 47 28 117q70 168 78 389q27 -139 21 -203 q-16 -160 -13 -189q8 -47 6 -141l29 19q4 -45 -12 -115q16 10 35 20q2 -70 -23 -102l49 20q-2 -20 -18 -69l-10 -27q14 16 28 31q0 -41 -20 -133l33 24q8 -57 -21 -122l37 22q4 -12 4 -29q0 -47 -33 -122l29 32q10 -41 -21 -116q20 12 35 18q2 -14 2 -31q0 -55 -24 -108 l26 18q4 -18 4 -37q0 -55 -22 -106l33 26q-2 -31 -17 -135l23 17q6 -55 -17 -131q6 8 35 16q-20 -82 -41 -133q27 37 33 37q2 -39 6 -113q4 -53 62 -154q-134 84 -238 195zM932 694q66 0 143 33q-59 -59 -98 -72q-10 -2 -57 -12q-31 -8 -50 -20q-55 -27 -77 -31l16 -25 q-25 -12 -70 -6q8 -14 19 -31q-41 -12 -64 11l17 -41q-23 -4 -47 8q-6 0 -11 2q10 -14 19 -23q-25 -8 -82 11l16 -31q-8 -4 -20 -4q-29 0 -58 18l17 -35q-10 -6 -21 -6q-33 0 -75 39l20 -35q-27 -6 -72 27l11 -37q-47 -6 -89 37l9 -31q-47 0 -86 43l10 -37q-20 4 -80 43 l4 -26q-57 31 -76 53q2 -12 0 -37q-41 49 -63 86q12 -29 10 -43q-33 20 -63 43q-68 25 -103 27q113 63 182 110l-2 -20q41 41 62 53l-4 -22q37 45 63 43l-12 -41q43 43 76 55l-13 -47q41 49 66 49q6 0 10 -2q-12 -27 -16 -41q43 53 67 53q8 0 13 -4l-11 -37q41 57 70 50 q-8 -25 -10 -41q37 49 74 36q-12 -14 -11 -41q27 37 54 37q6 0 12 -2l-4 -35q18 39 63 33l-8 -28q16 29 43 28q6 0 14 -2q-8 -16 -8 -51q29 43 60 29v-35q18 25 57 18l-8 -49q8 29 43 29q20 0 63 -11.5t66 -11.5z" />
<glyph unicode="I" horiz-adv-x="581" d="M453 1120l43 -14q2 6 2 14q0 57 -80 131q18 -6 53 -22q6 55 -84 131l59 -8q-10 18 -24 39q-33 45 -80 82l51 -5q-4 14 -14 29q-25 37 -78 62l27 10q-29 27 -107 65l25 11q-147 109 -289 112q23 -16 39 -35q41 -43 47 -80l12 -102q8 2 33 41q2 0 -20 -55q-23 -61 -23 -78 q29 12 37 22q-23 -88 -16 -124l26 16q-18 -137 -20 -129l39 29q-27 -51 -27 -107q0 -16 2 -31l33 21q-39 -70 -29 -135q16 8 41 18q-35 -70 -27 -110l43 30q-49 -70 -49 -117q0 -14 6 -24l43 18q-37 -66 -28 -116l41 20q-31 -90 -31 -125q12 12 33 25q-4 -8 -6 -17 q-20 -37 -25 -71l53 16q-8 -8 -14 -20q-16 -31 -18 -76l43 16q-23 -66 -21 -108l35 14q-10 -82 -4 -139q4 -37 -35 -183q-20 -72 -14 -202q18 63 37 125q51 143 112 243q45 74 45 123q0 33 -16 43l53 -31q10 33 10 66q0 29 -10 47l41 -18q10 18 10 45q0 39 -24 76 q45 -10 57 -31q10 23 10 45q0 37 -26 61l34 -12q14 88 -28 129l41 -16q4 12 4 28q0 51 -39 103q33 2 47 -23q4 12 4 31q0 57 -51 115q20 -4 53 -19q7 59 -67 131z" />
<glyph unicode="J" horiz-adv-x="653" d="M489 795l46 -17q2 6 2 19q0 70 -84 166q20 -8 55 -31q4 72 -86 168l61 -15q-14 39 -102 160l53 -14q-4 18 -14 39q-23 47 -70 88l27 4q-27 37 -96 106l24 5q-100 131 -248 307q47 -147 45 -221l-4 -152q6 -2 39 43q-29 -66 -57 -172q29 6 41 18q-31 -104 -23 -172l29 19 q-20 -152 -18 -176l36 34q-25 -72 -24 -135q0 -27 4 -49l31 25q-29 -80 -29 -144q0 -18 2 -36q16 10 41 24q-33 -98 -27 -145l43 39q-49 -88 -49 -160q0 -12 2 -23l43 25q-37 -76 -35 -150l46 25q-23 -51 -46 -154q12 14 33 29l4 2q2 0 -14 -31q-23 -39 -33 -75l56 12 q-10 -8 -19 -25q-23 -35 -35 -88q14 4 47 13q-20 -35 -53 -127l39 10l-22 -53q-29 -68 -41 -109q-47 -104 -148 -184q-33 -39 -115 -119q-68 -66 -67 -68q72 47 141 95q168 117 279 227q106 104 106 176q0 20 -6 29l41 -54q41 80 41 129q0 12 -2 23l35 -31q25 41 24 96 q0 35 -10 68q12 -4 23 -12q23 -16 26 -35q18 31 19 78q0 39 -19 67l33 -18q10 41 10 80q0 59 -24 92l36 -23q8 29 9 52q0 61 -35 125q31 0 47 -31q4 16 4 37q0 78 -51 151q20 -6 53 -24q6 74 -70 168z" />
<glyph unicode="K" horiz-adv-x="888" d="M313 627q47 74 45 157q-14 -8 -36 -18q37 80 30 131l-37 -35q41 78 41 135q0 18 -6 33l-35 -24q18 49 19 98q0 23 -4 41l-31 -29q16 102 6 148q-6 -16 -20 -33l-2 -4q-2 0 6 30q8 41 4 78l-41 -28q20 39 6 112q-8 -8 -31 -26q4 76 -10 123l-24 -27q-6 43 -37 145 q-8 18 -43 197q-14 72 -84 194q49 -162 49 -311q0 -29 -6 -86t-6 -88q0 -80 32 -96l-51 18q-2 -74 25 -112l-37 10q-10 -59 35 -117q-37 2 -52 23q-12 -68 27 -101l-29 9q-4 -86 35 -123l-33 12q-14 -57 33 -127q-29 0 -41 22q-14 -68 35 -139q-16 6 -41 21q-10 -53 43 -131 l-35 18q-6 -8 -6 -25q0 -49 45 -122q-14 10 -41 30q-12 -47 37 -139l-45 25q10 -51 39 -142l-37 25q-8 -49 29 -117l-25 6q10 -37 39 -110l-20 6q33 -154 53 -320q29 119 63 181q59 104 64 114q-20 -8 -47 -20q90 80 104 117q-23 4 -37 -3q55 70 70 136l-29 -9 q51 100 62 146l-39 -21q14 20 24 45q27 55 29 113zM731 1497q-80 -74 -65 -115l-21 35q-18 -18 -41 -76l-18 25q-10 -8 -17 -18q-18 -29 -18 -66q-20 20 -21 39q-39 -33 -34 -72l-13 21q-47 -45 -43 -86l-14 24q-20 -41 -43 -90q-16 14 -14 35q12 -16 -17 -47 q-33 -37 -35 -49q-12 23 -14 35q-18 -27 -41 -97l-12 29q-10 -4 -19 -16q-23 -29 -34 -88q-6 25 -7 38q-10 -4 -20 -16q-20 -27 -33 -80l-14 39q-20 -31 -51 -102l-6 35q-23 -33 -48 -80l-10 16q-12 -25 -35 -84l-10 14q-31 -51 -143 -206q41 27 135 65q49 10 96 27 q0 6 -35 16q94 -4 121 6q-12 16 -22 21q45 10 112 35l-18 10q43 18 110 51l-34 10q41 14 116 58l-26 8q61 14 106 65q-12 4 -30 11q33 12 88 57h-41q27 8 47 18q51 27 63 60l-35 2q27 14 82 73h-34q33 25 81 82q-12 -6 -28 -10q6 6 10 12q29 20 47 48l-39 4q18 12 62 63h-33 q20 20 55 78l-26 -4q31 49 45 108q6 27 26 68q27 49 35 74q18 47 27 159q4 -4 -35 -96q-47 -113 -117 -176zM1303 -414l2 -2q0 2 -2 2zM1032 -248q-66 90 -106 86l39 15q-16 23 -72 53l29 12q-23 23 -76 53q23 16 43 13q-8 12 -17 22q-23 23 -49 27l23 8q-10 14 -21 27 q-29 29 -55 34l27 7q-18 25 -76 67q18 12 37 4q-6 14 -17 27q-23 31 -67 49q29 6 37 4q-4 12 -15 23q-23 27 -69 45l32 4q-2 12 -12 24q-20 29 -78 60q14 -2 41 -6q-2 12 -12 24q-23 29 -70 58l41 2q-16 18 -86 79l35 -2q-18 25 -67 68l18 6q-20 20 -72 60l17 4 q-84 88 -172 194q31 -92 32.5 -146.5t6.5 -105.5q6 0 24 31q-29 -92 -24 -123q20 10 24 19q-8 -72 8 -121l17 16q8 -88 20 -125l17 31q-4 -68 30 -129l15 22q-2 -70 37 -127q6 12 16 29q8 -70 37 -102l8 39q4 -29 10 -52q14 -57 43 -79l10 32q18 -39 58 -100l6 35 q18 -39 68 -103q-4 16 -5 31q0 6 11 -12q16 -35 39 -60l10 39q2 -16 55 -75q2 18 4 32q18 -23 74 -69v28q49 -39 104 -63q27 -8 68 -35q49 -31 74 -41q33 -18 164 -33q-183 43 -271 166z" />
<glyph unicode="L" horiz-adv-x="1136" d="M0 2048v2v-2zM403 874q49 78 43 125l-45 -30q57 80 58 135q0 16 -4 29l-43 -25q25 55 24 111q0 14 -2 28l-39 -28q25 90 15 147q-10 -16 -27 -33l-4 -4l-2 2q0 -8 11 32t7 75l-49 -29q14 20 14 57q0 27 -8 56q-10 -8 -37 -31q6 74 -16 123l-27 -29q-8 41 -55 137 q-23 31 -41 82q-31 80 -37 97q-23 49 -139 147q31 -35 66 -100q57 -113 57 -217q0 -16 -3 -47t-3 -48q0 -90 43 -104l-62 10q2 -20 4 -35q8 -43 27 -65l-43 8q-12 -51 39 -107q-43 2 -62 21q-16 -61 31 -92l-35 6q-4 -78 35 -113l-39 15q-16 -51 33 -121q-16 0 -47 22 q-6 -12 -6 -28q0 -49 41 -103q-18 6 -49 23q-14 -49 47 -127l-41 20q-8 -10 -8 -28q0 -45 49 -117q-16 10 -47 33q-4 -8 -4 -23q0 -45 43 -115l-54 27q4 -29 47 -141l-45 28q-8 -49 35 -116l-26 6q10 -35 47 -109l-25 6q33 -104 90 -315q10 59 58 172q35 51 67 105 q-25 -6 -55 -15q104 70 121 105q-29 4 -43 0q18 20 34 39q37 47 48 86l-35 -7q63 98 73 136l-45 -17q16 18 31 41q33 51 37 107l-37 -15q59 72 60 150zM1049 35q-25 61 -60 61q-14 0 -22 -8l39 41q-25 25 -52 25q-8 0 -16 -2l29 32q-12 18 -41 19q-18 0 -41 -10q20 41 39 47 q-12 18 -39 18q-18 0 -37 -14l18 28q-18 14 -47 15q-29 0 -49 -21l18 37q-10 8 -30 8q-33 0 -68 -28q2 16 23 47q-10 6 -27 6q-39 0 -76 -45q2 20 15 51q-39 12 -86 -61l8 43q-4 4 -12 4q-33 0 -74 -72q4 18 12 53q-33 8 -72 -71l2 57q-16 -10 -65 -82l4 49q-8 -2 -16 -8 q-20 -16 -35 -57l-4 28q-29 -41 -45 -80l-2 25q-66 -90 -142 -184q68 14 105 0q18 -8 69 -31q0 8 -20 47q31 -39 82 -82q-4 29 -10 41q49 -43 79 -41l-8 29q33 -16 80 -37l-16 43q41 -45 78 -37l-11 33q39 -43 68 -37q-2 18 -8 43q39 -37 51 -33l-12 43l17 -25 q17 -26 30 -26q4 0 8 2v43q23 -37 43 -33l2 41q12 -18 45 -39v31q0 8 6 -6q10 -23 25 -29l14 49q0 -8 4 -16q8 -16 31 -25q2 12 10 41q10 -14 49 -32l6 32q20 -12 78 -24q23 -2 46.5 -19.5t45.5 -33.5q31 -23 121 -29q-33 16 -61 41q-65 53 -96 125z" />
<glyph unicode="M" horiz-adv-x="1339" d="M-133 1788l-2 2zM438 524l-37 -16q55 74 52 162l-43 -19q43 80 32 135l-43 -36q43 76 43 133q0 23 -8 41l-39 -29q14 43 15 90q0 29 -7 53l-36 -32q12 90 -5 149q-4 -10 -22 -37l-4 -4v2l4 22q4 21 4 42q0 25 -4 47l-45 -35q-2 53 -8 115q-8 -10 -33 -35q-6 45 -33 119 l-22 -31q-14 41 -72 131q-25 27 -51 78q-33 66 -51 92q-27 47 -158 127q45 -39 90 -109q78 -119 78 -233q2 -139 59 -154l-61 4q4 -23 8 -36q12 -41 35 -62l-45 2q-6 -53 53 -100q-43 -4 -64 12q-8 -63 41 -90l-34 4q0 -25 6 -41q10 -47 41 -67l-41 8q-10 -51 47 -115 q-33 0 -49 18q-16 -59 47 -127q-20 4 -51 19q-8 -51 53 -121l-41 18q-6 -10 -6 -22q0 -43 53 -117q-18 10 -47 33q-16 -39 39 -131l-53 27q6 -43 41 -134l-41 29q-12 -37 20 -110l-25 12q6 -35 25 -113l-20 14q4 -193 -105 -317q12 -8 189 127q121 94 110 96q-10 8 -51 -2 q104 39 143 92q-27 8 -43 7q4 -2 41 38q43 49 60 93l-33 -4q2 0 38 62t44 85l-49 -18q18 18 32 43q33 55 37 116zM1565 -403q-2 -2 -56 41q-59 47 -73 90q-12 18 -45 114q-6 -2 -19 -47q4 125 0 152q-23 -12 -26 -25q4 6 -3 68q-8 55 -12 78l-20 -21q-4 61 -8 154l-29 -35 q20 80 0 164l-25 -25q14 47 15 98q0 33 -9 64q-12 -10 -32 -25q16 63 16 103q0 18 -4 33l-31 -39q29 84 29 133q0 23 -6 39l-35 -27q25 74 16 143l-34 -28q20 106 18 151q-14 -16 -29 -35l11 33q12 41 14 80l-43 -24q25 37 22 116q-10 -6 -34 -22q18 80 12 131l-27 -21 q4 115 -2 164q-4 39 25 219q12 78 8 234q-14 -80 -29 -150q-39 -174 -88 -299q-35 -86 -35 -143q0 -39 17 -55l-45 32q-16 -84 2 -133l-35 19q-18 -68 18 -140q-37 6 -49 31q-6 -20 -6 -45q0 -47 27 -76l-29 11q-10 -104 29 -148l-33 16q-10 -72 37 -151q-27 -2 -41 22 q-12 -78 53 -163q-16 4 -45 18q-2 -70 72 -149l-39 14q-6 -4 4 -43q16 -57 82 -121q-16 4 -49 23q2 -20 10 -41q23 -53 82 -107l-51 6q18 -35 112 -135l-47 6q8 -16 21 -35q33 -39 80 -67l-21 -10q-2 -2 41 -32t72 -40l-19 -10q138 -102 318 -133zM766 262q-25 43 -51 144 l-6 104q-6 0 -29 -35q37 98 35 127q-25 -10 -31 -18q14 76 2 123l-22 -19q2 104 -2 127l-29 -31q-2 66 -6 136l-23 -25q16 74 -10 133l-23 -20q-4 -4 -6 -7q8 76 -10 109l-23 -39q6 35 7 68q0 49 -19 73l-26 -30q6 66 -21 112l-24 -32q-4 43 -27 120l-14 -36v0q-2 31 -15 90 l-31 -35q10 37 -20 92q-6 -8 -23 -31q-6 31 -36 97l-17 -27q-16 33 -67 106q-8 8 -86 146q-33 55 -131 119q37 -41 65 -88q68 -113 76 -218q10 -123 61 -131h-51q6 -29 47 -84l-37 -2q0 -14 7 -28q14 -33 51 -56q-39 -8 -54 2q0 -16 7 -30q12 -33 43 -43l-29 -2 q23 -41 61 -90h-34q2 -14 8 -29q16 -35 57 -64q-25 -10 -43 4q0 -16 8 -32q18 -39 66 -68q-31 -2 -45 2q2 -14 10 -28q23 -33 72 -62l-37 2q-4 -47 90 -102q-33 2 -49 8q2 -12 10 -27q23 -35 78 -67h-51q16 -25 96 -90h-43q16 -25 78 -72l-23 -8q27 -20 88 -60l-20 -6 q119 -100 221 -172zM993 1411q0 -10 4 -18l-32 39q-35 -43 -29 -80l-27 26q-25 -23 -24 -61q0 -14 4 -29q-31 18 -35 39q-25 -23 -25 -49q0 -14 9 -29l-23 19q-23 -33 -22 -64q0 -18 8 -33l-27 23q-18 -18 -18 -57q0 -20 6 -43q-12 4 -31 30q-18 -20 -18 -55q0 -27 12 -55 q-29 18 -35 28q-8 -12 -8 -36q0 -31 18 -74l-28 24q-14 -10 -15 -36q0 -35 25 -84q-14 10 -35 32q-6 -10 -6 -30q0 -35 23 -84l-41 28q0 -25 28 -116l-35 24q-12 -39 27 -94l-25 6q10 -29 46 -86l-23 6q51 -133 119 -215q-6 78 16.5 116t44.5 73q-14 4 -43 -11q39 25 94 68 q-25 6 -36 2q25 20 65 78h-27q29 33 68 82l-41 -4q16 10 29 22q31 29 41 64l-31 -2q16 10 29 22q31 29 39 62q-14 0 -37 2q25 18 57 67l-41 -6q20 12 37 25q39 33 39 61h-39q23 14 57 74l-39 -2q25 27 60 82q-8 -4 -31 -8q4 4 8 10q25 20 39 43l-47 6q16 2 51 57l-37 2 q16 18 43 72h-30q14 27 37 98q4 23 65 125q25 37 53 146q-27 -41 -53 -82q-70 -94 -138.5 -146.5t-68.5 -93.5z" />
<glyph unicode="N" horiz-adv-x="1189" d="M401 553q49 82 39 164l-43 -21q29 66 29 111q0 14 -2 24l-41 -38q39 74 39 131q0 25 -8 43l-41 -31q16 45 16 90q0 29 -6 53l-37 -32q12 106 0 149q-8 -16 -22 -35q-4 -2 -5 -2v0l5 27q6 26 6 51q0 16 -2 33l-47 -33q12 18 12 53q0 29 -10 62q-18 -16 -35 -31 q0 78 -21 123l-24 -27q-10 41 -53 144q-20 35 -36 88t-30 104q-25 80 -121 176q6 12 47 -100q45 -123 45 -236q0 -20 -4 -61t-4 -64q0 -92 43 -108l-61 14q0 -23 4 -41q8 -45 30 -69l-45 6q-8 -59 48 -113q-43 -2 -64 17q-10 -68 39 -99l-35 6q-2 -86 47 -120l-41 10 q-10 -59 47 -125q-33 -2 -49 18q-14 -68 51 -137q-18 4 -51 16q-6 -53 64 -127l-43 17q-4 -8 -4 -21q0 -49 63 -125q-16 8 -49 29q-12 -49 55 -137l-55 22q25 -61 59 -137l-47 25q-4 -47 41 -113l-28 6q12 -33 47 -106l-25 8q16 -82 16 -123q0 -131 -110 -209 q10 -12 97 48.5t116 109.5q53 57 94 123q-14 6 -55 -15q25 14 65 52q51 45 62 69q-29 4 -45 -2q18 23 34 47q35 55 41 101l-32 -11q55 115 59 158l-43 -24q53 76 49 165zM928 -160l-4 -4q2 0 4 4zM1284 1812q-47 -39 -154 -112q-74 -41 -110 -74q10 -8 47 -2 q-106 -25 -141 -70q20 -10 35 -10q-23 -14 -43 -33q-49 -43 -66 -84l29 3q-2 2 -43 -59.5t-45 -84.5l41 19q-18 -20 -31 -43q-33 -55 -37 -117l31 16q-51 -76 -45 -160l36 19q-37 -82 -26 -131l35 37q-31 -68 -31 -125q0 -25 6 -41l33 26q-10 -37 -10 -75q0 -31 8 -58l28 31 q-8 -98 5 -139q10 18 22 35l-6 -29q-4 -37 0 -72l39 31q-16 -39 0 -104q14 14 29 26q0 -70 12 -110l24 22q6 -39 31 -135q23 -63 0 -180q-4 -98 -59 -189q23 25 73 111q20 43 72 270q10 49 10 86q0 66 -32 82l51 -16q0 20 -2 41q-8 43 -27 67l37 -8q8 59 -41 111 q37 0 53 -17q6 63 -35 92l29 -4q0 23 -4 43q-12 47 -39 68l35 -8q6 53 -41 112q27 2 41 -16q10 59 -43 123q16 -4 43 -16q6 45 -45 112l33 -16q6 8 6 22q0 39 -41 107q14 -10 39 -31q14 37 -23 123l41 -29q-2 25 -16 125l28 -31q16 31 3 105l20 -14v39q2 43 2 67l16 -14 q27 139 113 286zM-221 1868q-4 0 -6 2q0 -2 6 -2zM1317 -164q-2 0 -68 37q-74 45 -96 86q-27 33 -72 117q-12 -6 -10 -49q-2 63 -29 161q-20 -16 -24 -30q2 4 -10 55q-16 59 -35 100l-17 -24q-25 113 -41 168l-20 -41q2 90 -39 180l-18 -33q2 100 -37 182q-10 -12 -27 -32 q-2 92 -31 151l-16 -51q4 137 -41 201l-22 -43q-2 27 -7 53q-14 63 -41 111l-16 -45q-14 59 -59 172q0 -23 -4 -45q-2 -8 -9 22q-12 55 -34 100l-25 -47q2 51 -53 131q-2 -14 -13 -45q-16 43 -79 133l-5 -36q-31 45 -126 137q-51 53 -185 164q-53 45 -229 92q80 -33 160 -90 q141 -100 194 -226q66 -152 123 -168h-53q10 -25 20 -43q29 -47 58 -67l-39 -4q10 -23 22 -43q31 -47 64 -72q-35 -8 -60 6q-4 -14 23.5 -53t50.5 -49h-31q8 -29 21 -53q29 -55 63 -76l-37 4q4 -23 15 -43q25 -51 73 -94q-25 -10 -47 10q4 -23 17 -47q27 -57 82 -103 q-33 0 -49 9q6 -20 18 -41q29 -49 90 -97l-41 7q2 -20 14 -41q29 -55 107 -113q-18 4 -53 16q6 -20 18 -41q33 -51 105 -100h-56q27 -33 140 -127h-48q10 -18 29 -35q39 -37 92 -61l-18 -15q-4 -2 47 -28.5t82 -32.5l-17 -14q158 -91 359 -107z" />
<glyph unicode="O" horiz-adv-x="1120" d="M885 1251q31 -57 67 -155q72 -201 72 -377q0 -156 -57 -279q-63 -133 -115 -217l-39 -61q-2 33 -10 61q-39 -35 -131 -98q6 18 6 45q-18 -2 -129 0q27 23 55 37q0 2 -24 22q-39 33 -95 56l37 8q-23 33 -45 65q-53 72 -96 105l45 -6q2 8 -20 59q-31 70 -82 148 q33 6 55 -29q4 8 -8 70q-16 86 -56 180q20 -10 52 -39q4 4 0 61q-4 78 -27 183l35 -39q29 14 39 270q8 -20 20 -68q14 2 90 222l17 -62q0 2 34 49q41 55 99 90q-12 -20 -21 -49q18 8 144 13l-19 -21q2 8 53.5 -23.5t90.5 -70.5l-23 -8q68 -100 137 -275q55 -147 113 -297 q-31 238 -29 398q0 94 -16 198q-12 88 -19 90q-8 4 -16 -51q-6 82 -39 166q-45 117 -121 156q-8 -35 6 -56q-23 25 -120 86q-72 33 -170 33q-80 0 -142 -24q16 -6 47 -17q-45 -10 -174 -67q-113 -66 -182 -152l74 25q-45 -41 -88 -80q-96 -109 -140 -242l50 31 q-31 -39 -60 -98q-59 -127 -65 -256l47 40q-4 4 -23 -77q-20 -90 -20 -162q0 -37 6 -68q12 29 37 84q-16 -53 -17 -162q0 -147 50 -233q6 25 22 72q-2 -6 -4 -13q20 -72 49 -149q41 -104 76 -148l-2 78q31 -57 61 -114q78 -121 160 -175q-16 20 -51 80l41 -41 q84 -88 227 -112q-41 35 -63 63l24 -12q45 -18 97 -18q90 0 188 55q-43 -2 -74 6q31 2 107 55q92 66 125 137l-58 -24q8 -6 60 100q55 117 57 207q12 289 -8 426q-16 106 -98 262q-39 67 -76 133z" />
<glyph unicode="P" horiz-adv-x="1048" d="M6 2048l-2 2zM408 748q49 84 43 137l-45 -37q57 88 57 151q0 14 -4 29l-43 -27q33 80 24 150l-41 -29q18 66 19 129q0 18 -2 31q-10 -18 -27 -37l-4 -2h-2q0 -4 11.5 38t6.5 79l-49 -31q14 20 15 66q0 27 -7 59q-10 -10 -36 -33q4 88 -15 133l-26 -28q-8 47 -56 153 q-18 33 -39 95q-23 74 -38 106q-18 55 -144 168q35 -45 70 -117q59 -121 59 -231q0 -20 -4 -58t-4 -57q0 -92 41 -112l-59 16q0 -27 2 -41q6 -47 26 -74l-45 10q-12 -57 39 -120q-43 4 -61 24q-16 -68 30 -104l-34 8q-8 -90 32 -127l-39 14q-16 -57 33 -133q-16 -2 -47 25 q-6 -14 -6 -35q0 -55 41 -115q-18 8 -49 25q-14 -55 47 -141l-41 22q-8 -12 -8 -33q0 -51 49 -129q-16 10 -47 37q-4 -10 -4 -24q0 -51 43 -129l-52 28q8 -47 45 -153l-43 28q-8 -55 35 -127l-26 6q12 -37 49 -116l-25 4q51 -180 86 -342q12 66 62 192q33 59 67 121 q-23 -8 -55 -20q104 82 121 120q-29 4 -43 -2q18 20 35 45q35 53 45 97l-33 -8q61 111 72 151l-48 -20q18 20 33 45q31 57 35 116l-37 -14q59 78 60 164q-18 -6 -45 -16zM66 657q-6 4 -9 5q3 -3 9 -5zM922 1583v0v0zM1059 1260q27 8 49 -25q4 16 -14 65q-31 82 -103 138 q39 2 53 -8q0 12 -30 51q-49 63 -137 96l45 6q-20 29 -48 49q-66 47 -172 56q18 8 60 16q-2 6 -35 20q-53 23 -121 23q-29 0 -61 -4l41 37q-104 16 -211 -21l31 37q-2 4 -48 0q-59 -6 -112 -41v25q-88 -31 -131 -70l-2 21q-139 -66 -334 -215q162 53 225 49q23 0 150 -11 q0 14 -39 37q2 0 68.5 -31.5t88.5 -35.5q-2 23 -10 35l51 -23q59 -25 99 -33l-9 29q8 4 132 -78l-9 41q25 -29 109 -102l4 30q14 -35 70 -123q16 23 20 33l8 -43q8 -49 21 -71l20 43q-8 -53 2 -162q14 10 33 28q-20 -92 -20 -135l36 23q-4 2 -49 -137q6 6 33 20 q-6 -8 -10 -18q-31 -41 -47 -70l49 2q-12 6 -78 -86q25 -2 41 -2q-31 -29 -98 -86l32 -6q2 -4 -47 -33q-57 -33 -104 -49q-37 -14 -78 -14q-57 0 -162 32q-123 39 -245 88q88 -51 176 -100q172 -84 331 -90q131 12 191 57q35 27 37 56q4 -27 2 -60q2 -6 52 43t60 94l17 -39 q18 23 37 46q35 59 32 131q33 -25 31 -58q39 55 39 119q0 25 -8 45l24 -22q16 45 17 106q0 61 -23 94l33 -22q6 12 2 59q-8 76 -57 144z" />
<glyph unicode="Q" horiz-adv-x="1136" d="M864 1251q33 -57 68 -155q74 -201 74 -377q0 -156 -58 -279q-63 -133 -117 -217q-37 -61 -36 -61q-4 33 -11 61q-41 -35 -131 -98q4 18 6 45q-18 -2 -129 0q27 23 56 37q0 2 -27 22q-37 33 -92 56l37 8q-23 33 -47 65q-53 72 -97 105l48 -6q0 8 -21 59q-31 70 -82 148 q33 6 55 -29q4 8 -8 70q-18 86 -55 180q20 -10 49 -39q6 4 2 61q-4 78 -26 183l34 -39q29 14 39 270q8 -20 21 -68q14 2 90 222l16 -62q-2 2 33 49q43 55 100 90q-12 -20 -20 -49q18 8 143 13l-18 -21q0 8 52 -23.5t91 -70.5l-24 -8q70 -100 139 -275q55 -147 112 -297 q-31 238 -30 398q2 94 -15 198q-12 88 -20 90q-8 4 -16 -51q-4 82 -37 166q-45 117 -121 156q-8 -35 6 -56q-23 25 -123 86q-72 33 -168 33q-80 0 -141 -24q16 -6 47 -17q-45 -10 -176 -67q-111 -66 -180 -152l73 25q-45 -41 -88 -80q-98 -109 -139 -242l47 31 q-29 -39 -57 -98q-59 -127 -66 -256l47 40q-4 4 -22 -77q-20 -90 -21 -162q0 -37 7 -68q10 29 34 84q-14 -53 -14 -162q0 -147 49 -233q6 25 21 72q0 -6 -2 -13q18 -72 49 -149q41 -104 73 -148v78l62 -114q78 -121 160 -175q-16 20 -52 80l41 -41q84 -88 228 -112 q-41 35 -66 63q2 0 27 -12q45 -18 96 -18q88 0 188 55q-43 -2 -73 6q31 2 106 55q92 66 125 137l-57 -24q8 -6 57 100q55 117 60 207q12 289 -9 426q-16 106 -98 262q-39 67 -78 133zM1106 -365l35 19q-12 16 -60 41l27 14q-4 14 -59 43q27 12 43 10q-4 12 -9 19 q-12 20 -36 24l22 7q-25 31 -51 63h26q0 12 -6 23q-12 29 -45 55q20 6 37 -6q-2 14 -8 28q-14 35 -53 64q29 0 39 -4q-2 12 -11 24q-18 33 -59 62l31 -2q0 45 -82 96q12 -2 39 -8q-2 12 -13 26q-23 31 -73 58l41 4q-18 23 -101 72l35 4q-2 -18 -41 12q-20 18 -43 39l17 10 q-51 25 -89 29l15 10q-106 41 -234 64q35 -25 95 -91q20 -39 38 -77q4 2 11 36q2 -43 10 -108q14 12 18 22q2 -29 23 -94l14 19q6 -39 19 -99l18 27q-8 -55 14 -102l17 18q-12 -59 8 -106q10 8 23 22q-8 -63 8 -94l18 33q4 -61 10 -127l21 28q-4 -61 24 -108l17 30 q14 -80 45 -114q-2 16 2 33q0 4 6 -17q10 -37 33 -65l14 37q0 -16 53 -78q0 10 5 34q18 -25 73 -65l-2 27q29 -18 107 -45q41 -16 141 -48q51 -16 154 -2q-20 -4 -97 17q-113 31 -176 97t-98 60z" />
<glyph unicode="R" horiz-adv-x="995" d="M-10 2048q-2 0 -2 2zM391 748q49 84 43 137l-45 -37q55 88 55 151q0 14 -4 29l-43 -27q35 80 25 150l-39 -29q16 66 16 129q0 18 -2 31q-8 -18 -26 -37q-2 -2 -4 -2v0q0 -4 10 38t8 79l-49 -31q14 20 14 66q0 27 -6 59q-10 -10 -37 -33q4 88 -16 133l-27 -28 q-8 47 -53 153q-20 33 -39 95q-25 74 -39 106q-20 55 -143 168q35 -45 69 -117q57 -121 58 -231q0 -20 -4 -58t-4 -57q0 -92 43 -112l-62 16q2 -27 4 -41q4 -47 25 -74l-43 10q-12 -57 37 -120q-41 4 -60 24q-16 -68 29 -104l-35 8q-6 -90 35 -127l-39 14q-16 -57 31 -133 q-14 -2 -47 25q-4 -14 -4 -35q0 -55 40 -115q-20 8 -49 25q-14 -55 45 -141l-41 22q-6 -12 -6 -33q0 -51 49 -129q-18 10 -47 37q-4 -10 -4 -24q0 -51 43 -129l-53 28q10 -47 47 -153l-43 28q-8 -55 35 -127l-29 6q12 -37 51 -116l-26 4q51 -180 86 -342q14 66 63 192 q33 59 68 121q-25 -8 -55 -20q102 82 120 120q-29 4 -45 -2q20 20 35 45q37 53 47 97l-35 -8q63 111 74 151l-47 -20q18 20 31 45q33 57 37 116l-37 -14q59 78 59 164q-18 -6 -45 -16zM49 657q-8 4 -8 5q2 -3 8 -5zM905 1583v0v0zM1042 1260q27 8 50 -25q2 16 -17 65 q-29 82 -100 138q37 2 53 -8q0 12 -31 51q-51 63 -137 96l45 6q-20 29 -47 49q-66 47 -174 56q18 8 61 16q-2 6 -36 20q-51 23 -119 23q-31 0 -62 -4l41 37q-104 16 -211 -21l31 37q-2 4 -47 0q-59 -6 -113 -41v25q-88 -31 -131 -70l-2 21q-139 -66 -334 -215q162 53 226 49 q23 0 147 -11q2 14 -37 37l68 -31q67 -32 90 -36q-2 23 -12 35l56 -24q56 -24 93 -32l-8 29q10 4 133 -78l-10 41q25 -29 110 -102l5 30q12 -35 69 -123q14 23 21 33l8 -43q8 -49 20 -71l21 43q-8 -53 2 -162q14 10 33 28q-20 -92 -21 -135l35 23q-4 2 -49 -137q8 6 33 20 l-9 -18q-31 -41 -49 -70l51 2q-14 6 -79 -86q25 -2 43 -2q-33 -29 -101 -86l35 -6q2 -4 -47 -33q-57 -33 -104 -49q-37 -14 -78 -14q-57 0 -164 32q-121 39 -244 88q88 -51 174 -100q174 -84 334 -90q131 12 191 57q33 27 36 56q2 -27 0 -60q4 -6 53.5 43t61.5 94l16 -39 q16 23 35 46q37 59 35 131q33 -25 29 -58q41 55 41 119q0 25 -8 45l24 -22q16 45 16 106t-22 94l33 -22q6 12 0 59q-9 76 -56 144zM989 -401l45 20q-12 20 -61 51l35 15q-4 12 -13 20q-16 25 -55 35q33 14 53 10q-4 14 -10 25q-14 25 -45 28l29 7q-27 35 -64 73l35 2 q-2 14 -8 27q-16 31 -58 57q25 8 43 -2q-2 16 -8 31q-20 37 -67 63q31 4 45 0q-2 14 -13 29q-23 33 -75 60h39q0 53 -103 100q35 2 49 -4q-4 14 -16 28q-27 35 -92 60l49 10q-14 14 -31 25q-43 31 -92 45l41 12q-8 10 -23 20q-35 20 -81 23l16 16q-72 20 -109 15l15 16 q-133 20 -275 -4q27 -10 49 -20q51 -25 72 -50q0 -2 51 -75q10 20 9 43q4 -47 16 -117q16 18 20 31q8 -39 29 -99l16 23q6 -43 21 -105l22 33q-10 -63 17 -115l20 25q-12 -68 13 -119q12 10 28 27q-8 -70 11 -103l24 39q-6 -31 -6 -61q0 -53 20 -80l27 33q-4 -68 29 -117 l20 37q14 -86 43 -123q2 8 8 35q2 6 7 -16q8 -41 28 -72l23 43q0 -43 47 -92q4 12 12 39q31 -57 74 -82l2 32q57 -49 113 -63q45 -23 151 -66q61 -20 174 -2q-57 6 -108 21q-121 37 -175.5 120t-101.5 83z" />
<glyph unicode="S" horiz-adv-x="1214" d="M651 1591q41 2 168 -43q63 -23 187 -35q-6 0 -113 48q-129 57 -229 114q-68 39 -115 39q-37 0 -51 -16l26 45q-74 14 -118 -17l10 37q-72 10 -127 -51q-6 41 14 57q-6 2 -10 3q-29 -10 -60 -31q-37 -25 -43 -43l-2 33q-29 -18 -55 -37q-55 -47 -55 -95l-15 37 q-16 -20 -32 -41q-35 -57 -27 -131q-12 2 -29 43q-6 -12 -10 -22q-12 -33 -12 -68q0 -55 31 -104q-16 4 -43 24q-6 -88 77 -157l-41 6q6 -31 13 -43q31 -55 112 -92q-39 -2 -55 4q2 -12 25 -33q41 -41 114 -55l-47 -21q20 -12 41 -20q55 -25 111 -25l-37 -24q29 -20 76 -21 q23 0 47 6l-10 -20q0 -8 49 1t63 17l-6 -20q139 18 279 86q-31 0 -58 4q-61 8 -92 26q-55 35 -82 58q-6 -12 8 -45q-23 45 -61 108q-10 -23 -10 -35q-14 31 -58 88l-10 -24q-4 -2 -41 90l-16 -35q0 29 -21 96l-22 -22q10 27 10 84q-14 -4 -35 -12q27 47 25 57 q-18 -4 -37 -10l28 20q29 21 27 33l-37 10q18 2 54 31l-31 18q25 6 76 23q-6 2 -27 16h12q31 -4 54 2l-25 37q29 -14 80 -6q-6 8 -21 33q53 -8 97 -6l-17 28q123 -2 129 -2zM1083 608l47 -12q-2 31 -14 57q-37 72 -139 127q23 0 67 -10q-2 14 -30 47q-51 55 -150 82l62 21 q-27 18 -58 32q-74 35 -149 39l49 27q-45 29 -109 29q-33 0 -65 -9l10 27q-102 -4 -153 -37l4 25q-190 -51 -326 -203q88 37 156 37q59 0 155 -49q4 16 -20 51q2 0 41 -51q45 -59 53 -68q10 31 8 43q23 -37 82 -106l10 30q10 4 58 -119l20 44q2 -39 35 -136l25 27 q-14 -88 -2 -127q16 6 38 18q-14 -31 -28 -90q27 8 45 19q0 -2 -36 -34t-34 -46l45 -12q-23 -8 -71 -41q16 -12 36 -23q-2 4 -106 -27q6 -4 33 -20q2 -2 2 -4l-27 4q-39 4 -69 2l28 -47q-39 20 -114 14q8 -12 24 -41q-80 14 -129 19l16 -37q-74 10 -163 33q-70 18 -195 131 q-193 178 -192 174q10 -27 98 -139q123 -158 250 -261q100 -82 174 -81q35 0 53 16q-12 -18 -37 -51q39 -10 80 -11q47 0 80 17l-19 -43q12 -4 37 -4q74 0 138 53q0 -49 -27 -68q31 4 61 9q70 20 97 67l-2 -37q39 20 77 41q82 59 88 123l13 -47q25 29 49 55q49 78 41 174 q8 -2 14 -8q16 -14 19 -45q6 16 14 31q14 45 14 90q0 72 -39 135q20 -6 54 -31q4 18 -6 62q-21 80 -91 143z" />
<glyph unicode="T" horiz-adv-x="774" d="M629 -272q-43 180 -94 178l63 -4q2 2 -16.5 46t-42.5 68l45 -2q2 68 -62 123q47 2 66 -14q0 25 -4 41q-8 45 -41 67l35 -6q-2 29 -7 54q-12 57 -43 86l41 -15q10 63 -45 148q33 2 49 -25q2 14 2 31q0 66 -47 135q18 -6 50 -25q12 63 -52 158l43 -22q6 12 6 32 q0 57 -53 148q18 -10 49 -39q16 59 -41 172l54 -29q4 0 -17 76q-20 70 -30 98l43 -30q10 63 -35 143l28 -6q-12 43 -49 133l25 -6q-39 158 -84 385q-12 -74 -64 -221q-35 -70 -67 -140q121 -205 164 -256q2 20 4 39q-33 80 -115 242q-53 -51 -123 -143q31 -4 45 4 q-18 -27 -35 -54q-37 -63 -47 -110l35 8q-63 -131 -74 -176l48 24q-16 -23 -31 -51q-31 -68 -35 -139l37 20q-57 -88 -53 -192q16 8 43 20q-45 -98 -35 -161l43 45q-47 -100 -47 -164q0 -29 8 -51l41 35q-14 -115 -8 -179l34 41q-8 -123 11 -190q6 23 20 45l4 4 q-12 -74 8 -141l41 45q-16 -57 21 -146q8 14 27 43q20 -90 57 -149l16 41q-4 -2 34 -59.5t77 -96.5q31 -23 82 -83t96 -91q51 -51 231 -86q-82 31 -159 88q-137 101 -170 236zM965 -598q0 2 -7 2q5 0 7 -2zM49 1796v0v0zM1030 1681q-94 0 -102 -32l18 51q-72 2 -108 -19 l12 35q-53 16 -115 -20q6 37 27 49q-61 18 -103 -16l13 28q-82 14 -125 -16l16 31q-16 6 -43 6q-43 0 -92 -21q2 25 29 37q-20 8 -47 8q-51 0 -107 -28q8 16 27 41q-61 14 -152 -41l21 36q-25 4 -29 5q-63 0 -152 -68q16 35 31 49q-88 0 -168 -108l2 53q-25 -23 -49 -45 q-53 -63 -59 -135l-21 45q-27 -41 -26 -97q0 -29 8 -57l-23 6q8 -82 37 -123l-20 4q37 -125 137 -297q-16 123 2 181q25 76 41 106q-12 4 -43 -18q0 -4 96 86q-27 8 -37 6q43 29 74 45l-23 14q4 8 74 0l-24 29q16 -4 30 -10q37 -10 78 -8l-14 28q18 -12 37 -18 q47 -20 94 -21q-6 16 -14 37q72 -39 118 -39l-30 41q96 -66 159 -55l-20 39q70 -37 135 -35l-25 35q102 -31 150 -27q-14 8 -31 25q-2 2 -2 4l31 -10q39 -14 80 -15l-27 43q31 -18 80 -18q18 0 39 4q-8 8 -29 31q80 -8 131 8l-26 22q45 6 149 43q57 18 193 72q74 33 160 139 q-49 -33 -101 -65q-123 -68 -235 -68q-18 0 -53.5 4t-53.5 4z" />
<glyph unicode="U" horiz-adv-x="1236" d="M188 1917l5 -4zM887 18q-143 -16 -194.5 9.5t-92.5 62.5q8 4 8 -10q2 -10 0 -29q0 -6 -2 -16q-2 0 -26.5 60.5t-34.5 74.5q-8 -14 -17 -41q-14 39 -55 113l-16 -29q-6 2 -29 119l-29 -37q2 -4 7 41q2 49 -13 90l-28 -25q18 53 18 103q0 18 -2 39q-16 -8 -41 -23 q33 86 25 125l-41 -35q51 88 51 142q0 12 -2 22l-45 -22q39 74 37 141l-43 -23q20 49 40 152l-36 -31l14 31q20 41 27 82l-56 -21q10 10 17 27q18 37 22 94q-25 -12 -45 -22q27 84 25 139l-35 -21q8 102 -4 173q-6 41 -6 106q2 92 0 123q-4 55 -43 131q-27 53 -49 80 q41 -66 40 -223q0 -121 -45 -217q-39 -84 -38 -140q0 -41 20 -55l-53 35q-12 -41 -13 -80q0 -29 9 -51l-39 22q-12 -25 -13 -59q0 -41 19 -82q-23 6 -55 39q-12 -31 -13 -62q0 -37 21 -65l-33 16q-8 -33 -8 -67q0 -55 24 -86l-36 20q-8 -18 -9 -47q0 -57 33 -117 q-16 -2 -47 29q-4 -16 -4 -39q0 -74 51 -143q-20 4 -53 22q-6 -82 80 -172l-47 15q-6 -14 6 -50q25 -68 110 -133q-20 4 -61 19q0 -16 20 -47q39 -59 127 -101l-61 -10q23 -23 47 -41q66 -43 137 -57l-51 -21q59 -53 156 -43l-15 -24q96 -12 148 8l-8 -25q92 6 186 49 q15 6 162 88zM1202 401l-39 -26q4 -2 14.5 47t10.5 94q0 35 -8 57q-8 -18 -27 -55q10 31 10 100q0 90 -28 136l-25 -43q0 31 -4 57q-10 70 -37 117l-18 -43q-12 61 -52 174q0 -10 -8 -43q-2 -8 -6 22q-6 55 -22 101l-31 -43q6 49 -31 131l-20 -39q-10 43 -41 141l-19 -33 q-16 49 -57 174q-25 76 -4 244q6 61 26 166q16 92 19 94q-10 0 -60 -166q-59 -195 -63 -358q-4 -129 27 -190q16 -33 28 -33l-55 16q4 -27 14 -53q18 -57 45 -88l-39 6q2 -23 13 -45q20 -53 65 -94q-37 -6 -59 14q20 -51 70 -117l-33 2q10 -31 20 -55q29 -59 62 -80l-37 4 q12 -41 71 -133q-25 -6 -45 14q2 -23 9 -43q14 -49 51 -94q-16 4 -43 17q-14 -14 35 -119l-29 22q-18 -14 -14 -139q-6 16 -19 47q-18 -6 -57 -135l-17 49q-18 -25 -90 -135l-2 45q-33 -14 -88 -96l-8 22q-31 -27 -94 -90l-6 21q-174 -121 -351 -183q82 6 250 11 q82 -2 166 2q2 4 -43 28q72 -23 156 -22q25 0 39 4q-4 10 -25 27q18 -2 80 12q78 16 123 45l-29 14q41 18 84 37q86 45 111 72q-12 -2 -51 -2q29 10 61 37q74 55 115 147l-39 -16q25 33 49 65q49 86 49 176z" />
<glyph unicode="V" horiz-adv-x="995" d="M-246 1942v0v0zM567 424q37 121 39 160l-41 -29q35 63 35 135q0 18 -4 37l-33 -22q29 55 29 122q0 27 -4 50q-16 -10 -41 -25q18 49 18 100q0 27 -6 43l-37 -45q25 68 25 121q0 43 -15 70l-36 -37q16 92 -15 153l-28 -38q-2 57 -31 161q-2 -10 -14 -43q-2 -2 -2 -4l-3 37 q-2 45 -18 84l-37 -45q4 2 2 33q-2 43 -35 90q-6 -12 -22 -41q-12 39 -62 123l-14 -37q-25 41 -106 123q-31 23 -74 72q-49 53 -80 79q-35 35 -115 64q-43 14 -86 27q63 -33 127 -87q119 -102 150 -221q37 -137 94 -147l-61 -6q6 -20 16 -37q20 -39 49 -58l-47 -4 q4 -18 10 -32q16 -39 60 -66q-41 -10 -64 2q0 -18 6 -35q14 -37 49 -51l-34 -2q-10 -10 18.5 -55t44.5 -53l-41 4q-4 -59 62 -119q-31 -6 -52 12q-6 -68 68 -133q-20 2 -53 12q0 -57 73 -125l-43 13q-2 -6 -2 -17q0 -51 76 -131q-18 6 -53 25q-6 -53 70 -142l-58 17 q10 -31 80 -139l-49 16q0 -14 6 -33q16 -41 55 -82h-26q20 -35 75 -104h-26q117 -203 176 -303q-12 131 5.5 195.5t35.5 129.5q-14 4 -49 -30q41 51 90 141q-29 -2 -43 -12q14 27 22 51q25 59 25 102zM944 1886q6 -2 -8 -131q-16 -158 -66 -264q-39 -86 -39 -135 q0 -23 9 -33l-33 31q-25 -68 -16 -111l-25 21q-16 -31 -16 -72q0 -25 6 -47q-27 12 -33 35q-16 -35 -16 -68q0 -18 4 -35l-19 17q-20 -49 -20 -90q0 -18 4 -33l-21 20q-18 -35 -18 -88q0 -18 2 -39q-10 6 -23 31q-25 -45 -24 -100q0 -18 2 -39q-18 16 -25 30 q-14 -29 -14 -77q0 -27 6 -58l-22 25q-23 -29 -23 -101q0 -23 4 -47q-16 25 -20 39q-20 -31 -21 -98q0 -20 2 -43l-26 33q-14 -57 -17 -142l-20 31q-23 -45 -15 -115l-16 9q-8 -72 -2 -109l-16 8q-10 -74 -50 -305q29 55 103 158q63 70 82 92q-8 8 -41 -8q47 29 115 88 q-18 6 -29 4q33 27 96 109l-24 -3q2 0 40.5 51.5t49.5 69.5l-37 -10q18 16 35 35q37 45 57 96l-29 -8q16 16 33 37q35 45 51 96q-14 -4 -35 -8q27 33 68 113l-41 -23q25 25 41 47q39 55 41 98l-33 -14q20 29 56 123l-33 -16q23 43 53 133q-10 -12 -25 -25q2 8 7 19 q23 39 30 77l-39 -16q14 12 41 104q-10 -6 -32 -18q14 35 30 119l-24 -19q14 76 12 148q-2 37 8 94q10 72 15 102q3 74 -17 205z" />
<glyph unicode="W" horiz-adv-x="1562" d="M-371 1944q2 0 4 -2zM449 115q16 6 45 4q-27 -66 -129 -137q39 23 53 16q-84 -119 -94 -135q-152 -199 -158 -197q51 115 51 246q0 61 -12 135l24 -8q-25 61 -43 123l29 -6q-43 80 -37 127l45 -27q-51 121 -57 154l55 -25q-66 94 -59 152q35 -23 53 -31q-72 84 -72 139 l2 19l45 -15q-78 78 -75 135q33 -12 53 -14q-74 74 -70 143q18 -20 52 -14q-68 70 -68 127l43 -4q-12 6 -44 63.5t-28 57.5l35 2q-55 20 -63 94q25 -14 65 -4q-43 31 -78 108l45 5q-20 12 -69 104l63 4q-66 12 -108 162q-37 125 -164 231q-76 61 -146 93q170 -43 217 -93 q31 -25 83.5 -83t84.5 -80q90 -90 117 -136l12 39q35 -37 70 -131l23 45q49 -82 39 -131l34 49q16 -39 23 -92l4 -37l2 4l14 45q18 -55 31 -104q12 -68 8 -70l29 43q31 -72 22 -168l35 41q18 -33 19 -86q0 -55 -21 -123l35 50q8 -20 8 -52q0 -45 -16 -108l39 27q6 -27 6 -58 q0 -72 -29 -137l29 25q12 -106 -39 -195l39 29q0 -14 -24.5 -99.5t-26.5 -83.5l30 13q-8 -49 -43 -115q-32 -57 -38 -55zM938 1597l-18 11q10 -78 12 -111l-23 10q10 -39 11 -67q0 -27 -9 -47l-28 30q12 -76 4 -141l-37 33q10 -45 10 -82q0 -39 -12 -57q-16 29 -29 41 q16 -55 17 -95q0 -39 -15 -55l-28 27q16 -49 16 -88q0 -29 -8 -48q-20 23 -35 33q12 -37 12 -71q0 -41 -16 -70q-8 27 -31 33q8 -33 8 -64q0 -39 -16 -63l-29 22q12 -20 13 -49q0 -37 -17 -76l-24 17q14 -18 14 -43q0 -31 -21 -60q-6 23 -41 37q10 -27 11 -53q0 -39 -19 -66 l-30 23q4 -12 4 -25q0 -41 -21 -86l-41 35q10 -8 10 -29q0 -51 -53 -137q-63 -102 -141 -235q-68 -117 -74 -117q10 4 76 192q27 76 55 181q4 61 23 141l-31 -14q18 80 33 110q-18 -8 -37 -16q27 88 41 100l-47 -12q10 37 35 74q4 8 6 16q-16 -10 -29 -22q29 86 51 129 l-39 -17q4 47 54 121l-41 -12q0 61 80 141l-43 -22q35 80 63 110q-25 -2 -41 -6q14 68 78 133l-29 -8q18 70 88 131l-43 -10q20 39 92 121h-28q63 82 100 108q-16 -2 -41 6q74 57 127 82q-27 -10 -41 -8l-6 2q39 47 82 92q74 100 100 154q-16 -220 -14 -314zM1212 -55 q-119 90 -223 207l21 4q-37 25 -82 77l22 7q-63 45 -69 94l43 -10q-78 90 -88 118l53 -8q-76 72 -72 123q14 -10 43 -20q-82 82 -69 133l36 -11q-66 66 -63 119q12 -8 43 -12q-59 63 -53 129q16 -20 43 -16q-51 61 -45 118l34 -10q-41 33 -41 117l31 -6q-41 31 -33 94 q16 -18 54 -18q-47 53 -37 108l37 -8q-27 35 -25 104l49 -16q-31 -2 -30 86q0 27 7 82t7 84q0 145 -53 282q74 -109 88 -176q35 -166 41 -180q31 -96 37 -135l22 25q14 -43 12 -115q14 12 31 26q6 -29 6 -51q0 -31 -12 -51l41 27q4 -33 -4 -70l-6 -29l24 33q4 -18 4 -45 q0 -37 -6 -88l29 29q6 -29 6 -60q0 -33 -6 -65l28 24q8 -16 9 -41q0 -49 -27 -110l31 35q4 -12 4 -29q0 -37 -17 -88l9 4l26 16q4 -20 4 -43q0 -51 -22 -98l29 21q4 -23 4 -48q0 -51 -19 -96l31 27q2 -27 -14 -135l24 14q6 -53 -16 -131q8 8 35 16q-25 -82 -50 -131 q27 35 33 35q0 -55 -2 -113q26 -108 53 -155zM1645 1937zM1585 1796q49 98 60 141q-18 -141 -50 -208q-53 -117 -67 -193q-16 -94 -39 -145l33 10q-25 -82 -41 -115q27 8 39 12q-29 -61 -52 -100l50 10q-18 -31 -50 -92q20 10 33 23q-35 -88 -57 -131l39 16 q-10 -66 -56 -125l41 14q2 -57 -75 -149l43 27q-31 -84 -56 -117q27 6 39 8q-12 -72 -67 -141l32 12q-18 -94 -67 -143l41 16q-37 -84 -66 -137l27 8q-14 -61 -66 -133q12 8 37 6q-53 -78 -96 -121q31 27 45 23q-23 -59 -47 -117q-20 -111 -29 -188q-92 262 -104 313l20 -4 q-35 76 -45 112l25 -4q-41 68 -33 123l37 -26q-33 119 -33 153l43 -28q-31 68 -31 116q0 25 7 37q12 -16 36 -37q-27 66 -26 115q0 31 12 49l33 -24q-29 57 -29 104q0 27 8 43q20 -20 37 -31q-16 43 -16 84q0 43 16 74q18 -31 33 -35q-10 35 -10 66q0 47 18 75l27 -22 q-10 20 -10 49q0 41 20 88l25 -18q-10 18 -11 39q0 37 23 73q8 -27 39 -43q-6 23 -6 45q0 49 24 84l29 -26q-8 49 27 119l34 -39q-4 8 -4 24q0 39 88 184q115 189 119 197z" />
<glyph unicode="X" horiz-adv-x="1001" d="M928 25q-68 156 -135 159l63 11q-14 27 -25 41q-31 45 -65 61l45 10q-14 25 -31 43q-37 45 -69 62q41 16 67 6q-35 43 -84 90l35 8q-12 27 -24 49q-33 51 -76 66l43 2q-6 20 -17 41q-29 45 -84 82q31 14 56 -4q-12 27 -27 51q-37 55 -82 84q41 4 55 -2q-4 18 -16 37 q-33 45 -96 86l45 -2q2 61 -117 143q20 -2 60 -14q-4 18 -15 39q-27 47 -94 98l61 -4q-18 33 -114 137l53 -8q-25 41 -88 114l29 7q-29 33 -97 102l25 4q-117 162 -207 336q20 -141 12 -238q-8 -78 -14 -157q8 -2 41 43q-57 -133 -57 -183q31 10 39 23q-14 -53 -15 -121 q0 -37 6 -65l27 22q-4 0 0 -94q6 -90 8 -98l33 43q-6 -29 -6 -66q0 -74 26 -137l25 35q-12 -115 33 -197q12 14 30 37q0 -33 5 -59q8 -68 28 -103l21 60q-6 -141 49 -207l24 47q-12 -2 12.5 -67.5t47.5 -96.5l20 49q33 -119 72 -168q-2 23 4 49q2 8 10 -24q14 -55 41 -99 l27 56q-2 -53 59 -127q8 25 17 47q18 -41 88 -125l6 41q35 -43 135 -129q37 -25 88 -76q68 -63 96 -88q86 -72 236 -90q-55 16 -152 88q-141 107 -196 240zM1278 -303v0v0zM1276 -303v0v0zM924 1577q23 70 20 213q-16 -68 -41 -131q-55 -150 -137 -244q-72 -82 -72 -135 q0 -20 11 -31l-46 45q-37 -66 -28 -112l-35 28q-27 -31 -27 -77q0 -23 6 -46q-20 12 -45 48q-27 -31 -26 -68q0 -20 8 -39l-27 25q-29 -47 -28 -90q0 -23 8 -39l-31 28q-27 -31 -26 -86q0 -23 6 -47q-14 6 -35 41q-29 -33 -29 -88q0 -29 8 -59q-16 14 -36 41 q-18 -23 -19 -68q0 -33 10 -74l-30 35q-25 -18 -25 -80q0 -35 8 -78q-12 16 -30 50q-20 -20 -21 -84q0 -29 4 -62l-37 45q-16 -57 -14 -149l-29 43q-18 -27 -18 -78q0 -20 2 -41l-21 18q-10 -74 -8 -118l-18 18q-57 -211 -176 -299q6 -6 213 92q111 53 129 68q-23 12 -56 10 q35 8 70 14q76 16 98 35q-14 10 -41 19q27 12 52 26q57 33 84 68l-35 6q53 41 125 109h-50q25 12 46 28q49 39 75 92h-39q23 12 43 31q47 41 68 92q-18 0 -47 2q20 16 39 33q39 39 49 70l-55 -13q31 20 55 41q53 49 57 93l-49 -5q18 14 33 33q35 41 45 84l-47 -8 q31 39 76 125q-14 -10 -39 -19q6 10 12 19q33 33 47 70l-55 -3q25 27 61 95q-25 -4 -47 -6q20 31 49 112l-37 -8q14 39 35 147q2 41 21 91.5t39 101.5z" />
<glyph unicode="Y" horiz-adv-x="1112" d="M0 195v0v0zM-61 385v0v0zM721 219q-14 0 -133 12q0 -16 37 -43q-2 -2 -61.5 36t-74.5 44q2 -16 9 -43q4 4 -92 68l-5 -33q-8 0 -19 33t-9 39q-14 -18 -25 -35q8 23 0 96l-31 -22q31 68 25 129q-18 -6 -43 -19q39 82 37 121l-45 -31q72 100 65 160l-47 -16q14 20 25 41 q25 49 28 96l-45 -18q27 47 62 147q-14 -14 -37 -25q4 10 10 19q31 41 43 84l-57 -10q12 8 22 22q25 35 39 90l-47 -14q20 37 51 131l-38 -12q16 47 45 168q6 41 82 219q29 66 59 241q-33 -74 -66 -147q-82 -168 -172 -281q-84 -100 -84 -166q0 -18 9 -28l-43 47 q-43 -80 -33 -137l-35 30q-29 -39 -29 -94q0 -27 8 -55q-39 18 -47 49q-25 -41 -24 -84q0 -27 12 -49l-31 20q-20 -47 -20 -100q0 -37 14 -63l-35 26q-14 -29 -14 -74q0 -49 21 -100q-16 0 -45 37q-10 -29 -11 -66q0 -66 39 -133q-20 8 -51 31q-6 -8 0 -51q12 -68 70 -139 l-45 18q-10 -106 129 -211q-43 6 -68 21q10 -35 39 -66q55 -63 162 -84q-27 -16 -60 -27q-8 -4 47.5 -22.5t112.5 -18.5q43 0 80 13q-12 -16 -39 -41q10 -6 35 -6q72 0 133 47v-29q27 12 51 27q51 31 72 57l4 -25q117 76 285 252q-142 -57 -201 -53zM1071 928q14 63 -41 168 l45 -25q-14 59 -53 164l39 -23q0 55 -41 125l24 -4q-12 39 -47 119l23 -4q-8 35 -82 354q-14 -131 -45 -211q-29 -66 -55 -135q113 -180 153 -229q2 16 4 33q-33 78 -112 223q-25 -27 -45 -56q-45 -61 -54 -92q25 0 37 8q0 6 -24 -55q-25 -68 -29 -110l29 12 q-20 -63 -47 -160l36 25q-12 -23 -22 -49q-25 -59 -27 -121l31 18q-14 -25 -25 -49q-25 -59 -28 -117q16 6 39 17q-23 -41 -45 -136l41 33q-70 -106 -64 -174l39 21q-18 -35 -45 -144l39 23q-20 -49 -51 -152q12 14 32 29l2 2q2 0 -14 -31q-23 -39 -31 -78l48 17 q-14 -14 -48 -115q12 4 39 17q-16 -37 -41 -129l33 14q-12 -45 -37 -164q-10 -63 -84 -209q-23 -55 -65.5 -136t-46.5 -81q16 -6 278 403q70 106 70 168q0 16 -6 29l37 -43q35 80 24 135l31 -24q20 37 20 86q0 29 -8 59q35 -16 41 -43q18 39 19 78q0 29 -13 49l27 -16 q14 47 14 90q0 39 -14 63l31 -22q10 27 10 67q0 45 -15 90q12 0 35 -30q10 27 11 63q0 55 -23 111q16 -8 39 -31q16 68 -31 164l33 -23q8 12 8 37q0 59 -43 144q14 -10 41 -37z" />
<glyph unicode="Z" horiz-adv-x="1153" d="M-260 1595l4 2q-2 -2 -4 -2zM1100 57q33 10 63 25q82 -25 -110 -76q-180 -49 -254 -49q-88 0 -230 2q-113 2 -151 2q-137 -2 -268 27v0q-14 4 -19 4l35 -41q-39 6 -78 16l-39 10l-18 5l-6 2h-2l-43 141l6 8q12 16 53 57q-29 -4 -59 -10q80 115 143 150l-70 -4 q14 18 133 137q-43 -18 -57 -27q111 135 174 201l-61 -16q68 115 159 188l-61 -12q29 68 115 153q78 78 80 74l-68 -31q35 76 141 183q-33 -6 -55 -9q57 123 154 219l-9 3l-30 -9l8 15q-158 53 -207 80q12 -16 12 -45q-150 74 -231 129q27 -31 45 -58l-221 68 q-66 20 -168 28q-106 8 -162 0q102 41 264 74q104 20 285 51l-4 -26q133 35 198 45l-4 -29q88 31 164 31q29 0 53 -4l-41 -43q205 37 263 39l-39 -52q23 6 61 19l25 8l8 2h4l139 -219l-2 -16q-12 -109 -43 -152q-14 51 -24 72q2 -143 -33 -234q-25 -61 -35 -61l-25 47 q-2 -164 -71 -260q0 20 -25 59q-16 -156 -106 -268q2 12 2 22q0 31 -21 41q-25 -135 -110 -235l-19 45q-6 -98 -116 -221l-15 35q-8 -86 -102 -179q10 43 -19 78q-25 -88 -77 -157q39 -12 139 -46q170 -57 373 -57q170 0 309 51z" />
<glyph unicode="[" horiz-adv-x="565" d="M205 -205q14 88 8 139q-4 20 -16 52l45 -41q14 104 -4 184l34 -25q6 27 7 60q0 66 -23 133q37 -10 47 -43q8 33 8 65q0 59 -22 103l28 -19q4 37 5 70q0 82 -25 135l33 -24q6 23 6 53q0 70 -29 156q25 2 39 -37q6 27 6 57q0 80 -35 172q33 -16 43 -33q2 12 2 31 q0 74 -43 182l33 -26q6 16 6 41q0 74 -47 198q27 -25 41 -47q2 12 2 31q0 72 -45 192l45 -30q-6 70 -37 174q4 2 13 6v-25q98 31 157 64v-23l459 144q-180 -10 -295 6l-192 31q-6 -10 43 -39q-139 63 -207 75q2 -25 14 -36q-27 10 -71 20l-21 6l12 12l-157 -151v-4l-4 -8 l-9 -37q-8 -37 -10 -78l27 18q-39 -168 -47 -229l37 37q-41 -96 -46 -242l29 29q-41 -102 -43 -240q6 4 27 21q8 4 10 6q-35 -111 -35 -197l39 54q-57 -145 -47 -256l37 36q-31 -96 -27 -211l35 41q-27 -139 -27 -223q10 23 27 47q2 2 2 4v-2q0 4 -12 -52t-15 -109l46 36 q-25 -45 -25 -174q18 20 35 39q-14 -104 -10 -192l26 32v-79q0 -33 4 -76l2 -33l33 -35v0v0l6 2l39 4q47 8 313 13q63 2 326 47q-102 -8 -213 -8q-211 -1 -397 26z" />
<glyph unicode="\" horiz-adv-x="794" d="M858 -201q-61 123 -78 193l-32 133q-10 0 -17 -41q6 111 -4 158q-16 -10 -20 -21q-6 84 -33 154l-12 -21q-25 121 -39 162l-15 -37q0 76 -43 168l-12 -26q-2 78 -43 163q-4 -6 -14 -22q-2 -4 -2 -6q-10 82 -37 135l-11 -45q-6 109 -47 176l-14 -37q-8 72 -45 143l-12 -36 q-25 96 -52 149q0 -18 -2 -39q-2 -6 -6 21q-10 47 -28 88l-19 -39q4 37 -37 117q-6 -18 -12 -35q-20 72 -51 125l-8 -31q-37 80 -80 145q-14 25 -94 199q-18 39 -125 195q111 -203 163 -426q12 -49 25 -84q29 -86 55 -95l-43 11q23 -70 60 -113l-31 4q10 -57 70 -117 q-27 -6 -45 13q14 -68 61 -103l-25 2q27 -84 76 -121l-28 5q12 -55 79 -125q-16 -8 -38 10q14 -63 90 -135q-25 0 -39 8q14 -51 94 -121l-31 6q2 -49 103 -137q-27 6 -43 16q10 -49 98 -127l-41 4q35 -55 102 -120l-34 6q18 -47 83 -98l-16 -9q49 -53 86 -82l-14 -6z" />
<glyph unicode="]" horiz-adv-x="622" d="M502 416l-29 -29q39 102 37 236q-6 -4 -27 -21q-6 -4 -10 -6q33 111 29 195l-37 -54q53 143 39 252l-35 -37q27 96 20 207l-32 -41q20 137 18 221q-8 -23 -24 -47l-2 -4l-3 2q0 -6 11.5 50.5t11.5 109.5l-43 -37q23 43 18 170q-16 -20 -32 -39q12 102 4 191l-27 -35 q0 31 -2 78q0 33 -4 75l-2 21l-31 31v0l-4 2v0v0v0h-4h-4l-10 -2l-37 -4q-47 -8 -309 -13q-61 -2 -320 -47q100 8 209 8q213 0 401 -28q-2 -25 -4 -41q-2 -49 2 -84q4 -18 19 -49l-47 39q-4 -33 -4 -66q0 -66 14 -115l-35 23q-6 -23 -6 -51q0 -66 27 -138q-37 10 -50 41 q-6 -29 -6 -55q0 -63 25 -108l-27 16q-4 -29 -4 -53q0 -90 29 -146l-33 23q-4 -20 -4 -43q0 -72 33 -162q-25 -4 -39 35q-6 -23 -6 -47q0 -80 41 -178q-33 16 -43 32q-12 -74 47 -209l-35 27q-6 -14 -6 -35q0 -74 55 -201q-29 25 -43 46q-2 -10 -2 -25q0 -72 53 -193l-47 29 q8 -68 41 -168q-100 -35 -143 -59v22l-451 -143q174 8 289 -6l190 -33q4 12 -45 41q137 -63 205 -76q-2 25 -16 35q29 -8 73 -20h3v0v0l-13 -13l154 156l2 8l4 17l8 36q6 37 8 76l-26 -18q35 166 41 225l-37 -37q39 97 39 240z" />
<glyph unicode="^" horiz-adv-x="860" d="M526 1743q-35 -66 -34 -105q0 -37 2 -75q-10 2 -31 30q45 -80 45 -100q-25 10 -33 18q16 -41 17 -71q0 -12 -5 -21l-20 15q10 -78 6 -95l-29 25q23 -47 5 -98l-25 18q12 -25 12 -51q0 -27 -12 -47l-29 22q14 -57 -2 -82l-26 33q14 -35 14 -63q0 -31 -16 -45l-29 26 q8 -51 -14 -86l-25 29q0 -31 -21 -88l-14 29h-2q-8 -6 -7 -33t-3 -35l-33 33q10 -31 -16 -70q-12 16 -23 29q-4 -23 -33 -68l-16 25q-25 -39 -68 -66q-18 -12 -41 -41q-27 -35 -40 -49q-37 -33 -117 -57q6 -2 59 53q66 66 74 148.5t55 80.5l-47 11q12 23 41 51l-35 10 q0 10 4 18q12 23 47 31q-33 12 -51 8q0 12 4 21q12 20 39 24l-26 7q2 14 8 26q16 25 45 31l-35 4q2 10 6 21q14 23 51 36q-25 10 -41 2q-2 43 64 68q-31 4 -45 2q2 10 10 21q16 20 64 36l-37 4q-6 33 80 68q-31 0 -47 -2q-4 29 77 61l-49 7q12 14 86 57l-41 4q2 8 10 16 q20 18 60 31l-23 8q23 14 78 35l-18 8q83 50 196 107zM778 1106q4 -6 6 -10q23 -20 31 -43h-45q16 -12 37 -58q-18 2 -35 4q23 -41 23 -69l-29 6q10 -47 0 -88q-4 -25 -2 -55q6 -55 6 -62q2 -41 -47 -115q10 29 10 72q0 88 -51 146q-33 39 -33 65q0 18 15 29l-43 -27 q-18 35 -7 62l-30 -19q-12 10 -13 29q0 16 15 39q-35 -16 -43 -31q-12 12 -13 29q0 14 13 30l-25 -16q-12 16 -12 37q0 18 12 35l-26 -21q-14 10 -15 33q0 18 12 43q-12 -6 -30 -29q-16 10 -17 35q0 20 15 49q-14 -10 -33 -28q-8 20 -8 24q0 25 16 62l-26 -27q-12 6 -13 31 q0 25 17 65q-10 -12 -29 -35q-10 16 -10 29q0 25 14 64l-35 -35q-4 41 10 98l-28 -31q-14 25 8 78l-21 -12q2 25 19 80l-16 -13q8 92 16 218q18 -31 70 -82q33 -18 67 -39q-8 -8 -43 -11q43 -2 107 -18q-20 -14 -33 -16q29 -6 80 -43l-25 -9q33 -20 78 -53l-37 -6 q35 -23 78 -59l-31 -6q18 -6 31 -13q33 -20 45 -49l-37 -8q14 -8 27 -16q29 -20 33 -39l-41 2q76 -31 75 -72l-39 -2q12 -8 23 -16q25 -23 29 -50h-37q23 -23 49 -73q-6 4 -29 10z" />
<glyph unicode="_" horiz-adv-x="1505" d="M1448 -190q-63 10 -109 10q-45 0 -55 -10l23 24q-61 6 -109 -6l14 18q-14 4 -28 4q-41 0 -86 -16q6 18 24 27q-16 4 -32 4q-37 0 -66 -17l10 17q-74 6 -121 -17l15 19q-47 8 -123 -17q-2 14 20 23q-12 2 -26 2q-49 0 -109 -22q10 18 21 22q-45 6 -125 -27l14 19 q-8 4 -20 4q-43 0 -119 -33q12 16 26 25q-41 6 -131 -29l17 27q-55 -8 -129 -35l18 22q-43 0 -104 -26v12q-59 -16 -95 -35v13l-270 -78q106 6 174 -4l115 -17q2 6 -27 23q82 -35 123 -41q-2 12 -10 18q68 -20 131 -22l-12 14q100 -18 137 -20l-23 18q57 -20 144 -18l-17 14 q61 -20 142 -18q-2 4 -13 14q-2 4 -4 6q66 -16 117 -14l-33 18q88 -27 152 -18l-23 18q59 -14 125 -10l-24 18q84 -10 133 -8q-14 4 -29 12q16 -8 94 -8l-22 23q27 -12 102 -8q-12 8 -22 16q61 -4 114 0l-22 14q74 0 139 10q55 4 184 7q37 0 193 26q-61 -6 -127 -6 q-137 1 -256 19z" />
<glyph unicode="`" horiz-adv-x="802" d="M737 1794q-6 2 -39 96q-4 23 -32 74q-4 0 -7 -25q-12 68 -43 86q-6 -14 -4 -22q-33 45 -67 57v-18q-25 20 -62 45l4 -25q-12 16 -59 45v-20q-6 10 -14 18q-16 20 -56 29l4 -25q-18 16 -63 35l12 -26q-45 45 -73 41l6 -25q-12 12 -54 27l5 -23q-16 12 -48 29q2 -6 5 -19 q-2 10 -27 29l-8 -29q0 10 -27 35q-2 -6 -8 -22q-8 12 -35 39l-6 -19q-12 14 -49 49q-16 14 -49 84q-16 39 -62 86q4 -2 25 -63q27 -72 41 -137q18 -80 57 -76l-31 -10q12 -18 56 -41l-21 -13q23 -33 70 -28q-14 -20 -29 -21q20 -20 45 -20q10 0 21 6l-13 -17q27 -12 50 -12 q16 0 26 8l-12 -18q31 -18 72 2q-2 -8 -17 -23q31 -16 70 9q-10 -20 -15 -25q20 -10 62 14l-16 -18q8 -10 30 -10q23 0 56 14q-6 -8 -23 -23q25 -14 78 11l-19 -27q33 0 74 16l-14 -20q16 -6 51 10l-6 -12q35 8 51 8l-8 -10q49 -4 145 -80z" />
<glyph unicode="a" horiz-adv-x="985" d="M881 424q37 53 37 119q0 18 -3 37l-32 -25q10 35 10 76q0 43 -16 74l-19 -48q6 51 -16.5 110.5t-63.5 84.5l-2 -49q-6 18 -35 51q-43 47 -92 59l15 -43q2 6 -53.5 35t-88.5 27q8 -4 27 -29q-10 4 -19 8q-39 20 -77 23l20 -45q-35 29 -98 20q6 -10 20 -32q-63 10 -102 -5 l20 -24q-35 -4 -116 -35q-29 -14 -72 -24.5t-84 -20.5q-51 -14 -143 -90q127 59 243 59q25 0 71 -7t69 -7q53 0 67 27l-14 -50q55 -4 82 17l-10 -35q35 -18 79 16q-10 -37 -22 -47q16 -8 24 -8q18 0 35 16l-12 -24l16 -8q20 -4 41 10l-24 -23q6 -10 47 -6q-16 -10 -39 -16 q-6 -2 51 -33h-45q-2 -16 55 -65l-37 10q-12 -29 43 -103q-14 8 -38 27q-14 -33 30 -111l-43 23q2 -23 37 -121l-37 23q0 -14 -2 -29q4 -41 41 -96l-24 -4q20 -25 73 -72l-20 -4q45 -63 121 -80q4 0 133 -12q-94 55 -92 84q2 12 8 33.5t4 23.5q-4 0 -35 -27q10 14 25.5 36 t19.5 36q-2 6 -6 12h-6q16 4 51 68l-29 -2q55 80 64 108l-39 -12q14 16 27 33q27 45 28 100zM397 41q-53 49 -78 43l-8 -4l31 24q-23 23 -49 25l22 16q4 10 -17.5 17.5t-31.5 7.5q12 8 37 16q-2 25 -37 23l23 6q0 12 -33 29l27 2q10 6 -25 26q12 -2 31 -8q4 2 -19 33 q12 -10 29 -23q0 4 -10 48l14 -25q6 -8 27 59q0 -14 2 -37q8 -4 47 54l-2 -39q12 8 63 53l-10 -33q2 -2 23.5 11.5t35.5 27.5l-2 -18q18 10 62 41l-4 -17q37 18 194 70q-37 6 -110 37q-37 18 -74 37q-2 -10 14 -35q-53 63 -80 74q0 -20 7 -31q2 4 -34 19.5t-65 15.5l9 -21 q-43 12 -113 15l24 -23q-31 8 -49 8q-41 0 -80 -24l25 -13q-16 4 -49 -8q-47 -14 -80 -55q12 -4 33 -8q0 8 -38 -27t-46 -68q10 6 35 19q-57 -49 -58 -119q0 -16 6 -31l27 25q-6 -27 -6 -53q0 -41 16 -70l19 31q-4 0 10 -46t33 -63q-2 14 2 31q0 4 6 -14q10 -35 33 -56 l12 37q0 -16 49 -63q0 8 4 30q-2 -2 21.5 -20t46.5 -25l-2 25q25 -12 90 -25q41 -4 119 -20q43 -2 122 31q-27 -2 -49 -2q-113 0 -172 57z" />
<glyph unicode="b" horiz-adv-x="833" d="M813 412q2 61 -43 77h31q-8 -16 -31 29q-27 55 -39 57l35 7q2 6 -14 28q-25 35 -76 47q20 18 45 11q-8 -18 -39 16q-43 49 -84 49q14 10 43 23q-14 29 -82 28q-27 0 -57 -8l26 27q-4 4 -10 8q-16 8 -39 8q-49 0 -104 -39q6 16 26 43q-18 -2 -36 -2q-47 -14 -86 -67v51 q-4 0 -31 -27q-37 -35 -51 -80l-9 43q-10 -8 -20 -20q-18 -29 -23 -72l-14 19q-10 -33 -8 -99l-19 13q-6 -68 24 -118t75 -56q2 27 6 53q23 14 45 16q-8 6 -39 19q2 0 42 -9.5t46 -9.5q-16 20 -24 25q45 -10 67 -6l-16 22q47 -10 47 -24l-10 34q6 -10 12 -18q10 -16 16 -16 l2 28l3 -20q3 -21 14 -21q6 12 14 33q0 -18 12 -43l17 33q-2 6 -4 -31q-2 -31 12 -37l24 29q-8 -37 9 -57l26 24q-2 -49 4 -65q6 8 21 18q0 2 2 2q-10 -41 -10 -49l41 16q-14 -16 -15 -35q0 -10 4 -18q8 2 31 12q-6 -51 -4 -63l27 10q0 -25 2 -86q4 -47 -43 -108 q-59 -123 -58 -125q49 49 183 211q37 49 36 84q0 27 -16 36l43 -18q16 55 -12 86l37 -8q4 6 2 28q-4 35 -39 62q35 4 53 -10zM635 41q-57 -16 -111 -16q-33 0 -51 8q-51 16 -84 45q-6 -8 8 -37q-4 0 -24.5 41t-24.5 55q-12 -14 -14 -24q-6 27 -31 94l-14 -17q2 0 -10 115 l-23 -26q14 70 4 133l-20 -19q25 70 18 135q-10 -6 -27 -16q27 78 25 115l-31 -31q47 96 41 147l-30 -18q16 29 34 121l-30 -21q14 45 36 131q-8 -12 -24 -24q4 8 6 18q20 37 29 74l-39 -14q12 10 39 98q-16 -8 -31 -16q12 33 33 112l-27 -14q12 41 31 143q4 37 61 185 q2 6 60 198l-60 -123q-70 -147 -127 -242.5t-57 -146.5q0 -16 6 -24l-31 34q-27 -72 -20 -116l-25 22q-16 -33 -16 -76q0 -25 6 -49q-25 10 -33 35q-14 -35 -14 -67q0 -25 10 -43l-20 14q-12 -39 -13 -76q0 -35 13 -57l-25 18q-8 -20 -8 -51q0 -43 16 -88q-10 0 -28 27 q-6 -18 -6 -45q0 -55 26 -109q-12 6 -33 22q-10 -61 41 -143l-28 17q-6 -4 0 -39q10 -53 59 -119q-14 6 -39 24q-4 -6 8 -39q18 -51 72 -102l-43 6q10 -20 27 -41q39 -49 90 -82h-39q14 -18 27 -30q39 -35 94 -45l-13 -15q45 -16 95 -16q18 0 30 4l-6 -16q135 -4 285 102z " />
<glyph unicode="c" horiz-adv-x="782" d="M692 203q2 0 2 -6q0 4 -2 6zM748 631q-20 47 -52 90q-14 14 -26 31q-2 0 -4 -4q-4 -14 4 -46q-14 31 -27 62q-33 66 -65 80q-6 -25 -3 -37q-12 18 -55 43q-61 33 -123 29l21 -25q-45 0 -90 2q-94 -8 -117 -33q25 -6 45 -12q-39 2 -96 -37q-49 -35 -74 -69h37 q-25 -18 -49 -35q-53 -49 -68 -111l41 8q-4 4 -33 -43q-31 -53 -30 -90l41 31q-51 -55 -52 -139q0 -25 9 -45l32 32q-8 -27 -8 -63q0 -51 21 -92l22 39q6 -31 12 -60q16 -66 41 -92q-4 20 2 41q0 4 9 -20q16 -45 45 -82l16 49q0 -12 8 -27q18 -35 64 -63q0 25 2 41 q12 -16 28 -31q39 -31 76 -39l-10 35q43 -20 94 -21q29 0 51 9q55 23 80 36q43 25 76 60q51 55 51 164q-12 -49 -53 -103q-59 -78 -129 -78q-18 0 -37 4q-88 53 -110 31l38 31q-14 16 -67 37l31 20q-6 8 -13 17q-18 16 -55 22q35 18 49 17q-2 10 -6 18q-12 18 -41 20l29 9 q-4 10 -8 22q-12 25 -41 35l34 -2q6 29 -34 72q14 0 41 -15q10 35 -27 86q16 -6 39 -22q8 29 -17 88l27 -27q20 12 8 94q6 -14 19 -41q6 2 24 78l11 -49q-2 0 8 20.5t39 47.5l-13 -39q4 -4 66 31l-10 -21l90 16l-13 -18q70 0 125 -45q68 -55 68 -154q10 -2 10 93 q1 92 -28 139z" />
<glyph unicode="d" horiz-adv-x="903" d="M567 705q-55 35 -94 34q-35 0 -47 -20l16 45q-10 0 -22 2q-20 -6 -46 -15.5t-30 -15.5l2 37q-16 -2 -33 -4q-39 -14 -61 -55q-12 33 0 55q0 4 -37 -28.5t-39 -39.5l-8 29q-2 6 -38 -28.5t-34 -71.5l-14 33q-55 -29 -55 -115q-23 14 -21 39q-2 8 -19.5 -23t-17.5 -71 q0 -23 4 -46q-12 10 -30 33q-12 -10 -13 -47q0 -43 25 -90l-33 20q-6 -4 -6 -28q0 -53 55 -115q-16 6 -47 23q-2 -10 6 -35q16 -43 70 -82l-51 2q12 -18 24 -33q35 -37 78 -57l-43 -6q6 -10 21 -21q29 -25 71 -33l-18 -12q57 -29 98 -24l-14 -15q29 -10 57 -10q55 0 92 27.5 t31 66.5q-10 -12 -27 -12q-14 0 -24 24.5t-10 38.5q-8 -14 -19 -36q4 20 8 41q10 47 11 57q-20 -16 -27 -25q12 8 4 80l-22 -14q6 31 18 69l-35 -16q4 2 17.5 24.5t13.5 41.5l-29 -7q20 12 43 54q-31 4 -37 4l21 13q20 13 22 26l-36 2l32 11q33 11 35 30l-35 14q0 -2 23.5 6 t32.5 25l-29 16l27 9q28 8 36 16l-26 16q16 -4 55 2l-27 35q23 -12 58 0q-4 8 -19 31q37 -2 66 4l-12 26q25 2 94 7q53 2 117 -52q139 -76 133 -77q2 0 -68 73q-82 87 -164 138zM813 393q49 80 41 168l-35 -20q25 59 25 110q0 14 -4 27l-33 -39q29 63 29 125q0 29 -9 49 l-32 -31q18 80 -2 142l-27 -33q2 104 -12 147q-2 -8 -17 -34q-2 -2 -2 -5l2 33q2 39 -6 76l-37 -35q16 43 -10 113q-14 -16 -27 -33q-12 55 -30 119l-19 -29q-14 41 -63 135q-20 33 -43 82q-39 96 -39 99q-37 80 -135 155q8 16 69 -110q68 -137 70 -261q4 -141 53 -159 l-51 8q10 -39 41 -102l-37 4q-2 -59 49 -107q-37 -4 -53 12q-2 -66 39 -92l-29 4q2 -25 6 -43q12 -49 41 -69l-34 8q-4 -55 45 -117q-27 -2 -41 17q-10 -59 45 -127q-16 4 -43 16q-6 -49 47 -119l-33 17q-6 -6 -6 -21q0 -43 43 -113q-14 10 -39 31q-20 -20 22 -123l-38 31 q0 -37 8 -119l-25 33q-14 -14 -14 -90l-14 18q-12 -45 -37 -88l-9 21q-76 -102 -276 -144q125 -18 207 -24q80 -14 155 6q0 6 -36 22q129 -18 178 29q-20 16 -33 17q29 16 59 30q66 43 91 94l-31 -2q6 -2 51 64.5t49 93.5l-41 -20q18 23 31 47q33 61 37 125z" />
<glyph unicode="e" horiz-adv-x="882" d="M831 406q-20 0 -34 -7q29 45 28 131q0 80 -41 134l-8 -33q6 10 -55.5 92t-93.5 96l12 -51q-6 18 -51 51q-78 57 -189 51l31 -26q-23 10 -72 10q-111 0 -186 -63q18 -4 43 -13q-31 -14 -63 -30q-70 -43 -93 -86q20 8 56 16q-31 -14 -74 -62q-61 -66 -66 -124l45 22 q-63 -86 -57 -182l37 35q-2 2 -8 -37t-6 -76q0 -57 14 -90q0 12 12 49q0 2 2 4v0q2 -4 7.5 -55t27.5 -94l21 51q-4 -4 6 -37q16 -49 69 -96q0 31 2 47q-4 -2 38 -42t85 -54l-12 36q-4 -4 47 -21.5t96 -17.5q125 0 246 50q57 23 107 98q16 35 32 68q2 0 -20 -31 q-31 -37 -72 -66q-72 -53 -168 -53q-53 0 -94 23q-129 68 -149 55l43 26l-26 22q-26 21 -50 28l37 14q-4 16 -60 65q39 4 52 -2q2 39 -35 64l30 -6q2 59 -20 94l31 -18q16 39 6 100q10 -6 26 -33q29 12 29 98q8 -14 19 -38q16 -2 32 75l4 -35q6 -2 68 46q-10 -12 -27 -35 q4 -6 101 2l-41 -29q18 -2 94 -22q-23 -2 -41 -7l17 -13q16 -13 30 -30l-22 11q8 -25 6 -90l-15 16q-25 -70 -106.5 -116t-183.5 -38q0 -4 63 -18q74 -14 131 -14q33 0 57 4q90 4 175 61q-4 8 -43 4q47 14 94 47q61 46 73 95z" />
<glyph unicode="f" horiz-adv-x="841" d="M-340 -653l-2 -2q0 2 2 2zM676 1608q-51 29 -127 28q-43 0 -80 -8t-33 -12q0 -6 68 -14q-53 4 -111 -21q-92 -41 -129 -108q25 -8 39 0q-4 6 -49 -68q-49 -82 -57 -141l28 14q-2 -2 -28 -90q-29 -94 -31 -121l37 31q-45 -102 -41 -215l28 24q-41 -106 -34 -209 q10 6 18 13l8 6q6 4 11 6q-33 -109 -27 -170l35 47q-39 -106 -39 -180q0 -20 2 -37l37 33q-29 -96 -25 -176l35 32q-14 -61 -31 -182q6 10 29 37l2 2h2l-15 -43q-16 -43 -22 -86l47 25q-14 -18 -43 -131l39 20q-16 -43 -47 -143l35 14q-18 -51 -80 -168 q-55 -82 -207.5 -157.5t-259.5 -112.5q141 31 199 51q201 63 336 168q127 119 127 201q0 27 -7 30l35 -49q35 74 35 141q0 14 -2 27l31 -27q16 43 16 95q0 43 -12 84q37 -14 45 -45q12 35 12 77q0 45 -18 76l26 -16q16 125 -20 180l33 -21q16 86 -29 185q29 0 41 -31 q16 94 -39 197q35 -14 43 -27q8 76 -49 180l35 -22q4 10 4 28q0 68 -53 172q14 -12 40 -38q12 66 -40 182l45 -27q-8 70 -35 176l33 -30q10 53 -7 131l21 -13q0 66 24 101l7 -19q47 49 161 49q92 0 226 -32q-72 43 -248 127zM854 815q-47 6 -63 12q0 -4 18 -30 q-27 25 -74 53q4 -18 8 -27q-43 27 -69 25l6 -19q-29 12 -74 27l12 -29q-37 31 -77 27l10 -23q-41 31 -80 27l10 -29q-43 25 -65 21l18 -29q-41 31 -72 31q-8 0 -16 -2l14 -29q-35 20 -73 15l16 -27q-53 16 -78 12q8 -8 17 -18q-4 0 -11 2q-25 8 -45 8l15 -35q-20 18 -62 10 q8 -12 17 -24q-45 6 -66 -4l12 -19q-41 -8 -75 -26q-31 -8 -103 -29q-41 -14 -94 -65q0 2 43 18q55 18 102 18q20 0 56.5 -9t54.5 -9q35 0 43 23l-10 -39q39 -4 59 14l-6 -29q31 -12 61 23q-2 -29 -12 -41q33 -10 53 18l-6 -22q47 -6 66 24l-6 -26q31 -12 67 24 q2 -20 -10 -33q35 -12 76 31q-6 -27 -10 -35q31 -6 71 41l-10 -28q29 -16 82 43q-8 -23 -14 -35q31 -6 75 45l-8 -39q23 12 72 55l-6 -32q12 0 57 47l2 -21q16 16 47 55l2 -16q55 55 123 143q-59 -18 -90 -14z" />
<glyph unicode="g" horiz-adv-x="954" d="M623 197v4v-4zM684 623q-14 45 -43 90q-12 16 -25 32q-8 -10 -2 -49q-4 18 -20 62q-29 68 -64 82q-6 -23 -2 -35q-12 18 -55 43q-61 37 -125 29l21 -23q0 4 -25 4q-150 0 -184 -45l47 -10q-29 -10 -57 -21q-68 -33 -103 -92l37 2q-25 -14 -45 -37q-49 -47 -62 -106l41 8 q-4 4 -30 -41q-29 -51 -27 -86l39 31q-49 -55 -49 -133q0 -23 8 -41l33 28q-10 -31 -10 -67q0 -43 16 -78l27 37q2 -29 6 -57q14 -63 35 -93q-2 18 6 41q0 4 6 -20q10 -45 39 -80l18 47q0 -14 6 -29q16 -35 58 -65q2 12 4 41q12 -16 28 -31q35 -33 70 -41l-8 33 q45 -25 96 -25q25 0 45 9q98 41 146.5 97t42.5 163q-10 -49 -48 -103q-53 -78 -118 -78q-16 0 -35 4q-78 55 -98 33l38 31q-12 16 -61 37l31 18q-4 8 -10 17q-16 18 -52 24q33 14 52 15q-4 12 -9 18q-10 18 -37 20l29 7q-4 16 -8 22q-12 27 -39 37l35 -2q16 18 -35 74 q14 -2 41 -15q12 33 -27 86q14 -8 39 -22q10 25 -20 86l26 -25q23 10 0 92q8 -12 23 -38q6 2 14 75l15 -47l5 19q5 20 27 47l-10 -39l60 33l-11 -23l86 14l-14 -16q66 -2 119 -49q63 -55 67 -148q10 -2 11 97q0 82 -25 125zM285 -637v-2v2zM848 -43q68 104 53 174l-37 -25 q35 76 29 142l-35 -27q27 102 23 148q-14 -16 -29 -33l10 29q12 39 15 75l-43 -22q25 37 20 110q-8 -6 -33 -22q14 76 6 125l-26 -23q0 45 -10 152q-14 82 28 196q6 49 39 131q29 74 35 76q-12 2 -80 -125q-76 -147 -108 -278q-25 -74 -25 -123q0 -43 18 -59l-45 26 q-12 -74 6 -119l-34 17q-6 -16 -7 -37q0 -43 25 -90q-37 8 -49 31q-18 -70 18 -109l-28 10q-12 -88 20 -129l-31 17q-16 -57 19 -132q-12 2 -37 27q-6 -18 -6 -43q0 -45 24 -94q-14 6 -38 24q-14 -45 22 -124l-31 24q-12 -10 -12 -47q0 -33 12 -84q-10 14 -26 41 q-18 -10 -19 -113q-10 18 -24 43q-18 -45 -45 -106q-2 25 -6 41q18 -2 -13 -27q-45 -35 -55 -55l-6 22q-20 -23 -70 -71v20q-25 -20 -53 -20q-39 0 -57 43q-29 61 -19 174q-14 -29 -29 -60q-25 -59 -24 -118q0 -39 12 -78q49 -84 125 -109q33 -6 68 -10q0 10 -31 31 q84 -41 158 -41q14 0 22 4q-4 12 -22 29q29 2 59 2q70 6 121 39l-29 12q2 -8 81 39t95 76l-47 -7q20 8 58 43q51 51 75 119l-34 -12q20 23 38 47q39 61 48 123l-39 -14q51 82 51 137zM285 -639v0v0zM133 -262q2 6 1 5t-1 -5z" />
<glyph unicode="h" horiz-adv-x="933" d="M362 1544q16 92 35 187q-23 -57 -45 -115q-57 -135 -114 -225q-47 -74 -48 -121q0 -23 11 -35l-41 33q-14 -39 -15 -74q0 -18 5 -33l-33 21q-10 -23 -11 -52q0 -31 15 -63q-37 12 -45 33q-12 -25 -13 -49q0 -29 17 -50l-27 15q-8 -29 -8 -58q0 -39 18 -63l-30 18 q-8 -16 -8 -41q0 -41 22 -84q-25 0 -37 25q-8 -16 -8 -41q0 -47 31 -94q-16 6 -41 22q-12 -51 39 -127l-33 17q-6 -8 -6 -23q0 -47 49 -116q-27 14 -41 26q-12 -49 49 -131l-47 19q20 -72 64 -127l-41 14q0 -14 6 -29q12 -39 47 -71l-23 -2q20 -31 72 -87l-23 -2 q131 -172 203 -178q-10 16 -20 33q-23 43 -19 84q8 70 15 100q-14 0 -37 -28q29 43 63 114q-25 -2 -35 -10q18 33 39 119l-26 -10q18 47 39 123l-35 -21q41 63 41 129l-31 -14q43 63 43 127l-12 -4q-4 0 -25 -9q37 68 37 107l-39 -27q63 82 51 135l-37 -16q35 59 35 111 l-37 -17q16 39 37 117q-10 -10 -28 -20q4 8 6 16q20 33 26 68l-45 -15q12 12 35 90q-20 -6 -37 -12q12 29 25 102l-29 -12q14 86 12 129q0 31 43 172zM829 236q37 43 45 96l-32 -8q59 61 57 145l-33 -18q20 51 21 106q0 23 -4 41q-8 -20 -25 -41q8 25 8 61q0 102 -65 154 q0 -27 -4 -51q-4 23 -39 63q-45 57 -105 68q10 -20 19 -41q-6 8 -60 29q-63 29 -96 22q8 -6 33 -26q-80 18 -105 16l27 -41q-43 27 -104 8q8 -8 26 -28q-66 2 -104 -19l22 -20q-33 -10 -112 -52q-4 -2 -150 -63q-57 -23 -137 -109q172 104 311 95q113 -8 129 34v-51 q27 0 80 29l-6 -37q41 -12 78 27q0 -20 -6 -52q27 -16 45 17l-11 -27q23 -6 39 15l-20 -25q10 4 33 4l-39 -12q-6 -6 43 -45q-16 6 -43 12q-6 -23 43 -82l-33 16q-8 -8 -8 -22q0 -31 31 -90q-10 10 -33 31q-8 -8 -6 -31q0 -33 22 -82l-39 29q-4 -51 15 -119l-31 28 q-14 -39 10 -100l-18 12q2 -31 14 -100l-14 10q8 -150 4 -276q23 49 84 133q39 35 73 74q-12 6 -45 -2q47 20 117 65q-20 8 -37 8q33 18 90 92h-26q70 78 82 109l-39 -8q16 13 28 29zM856 555q0 -4 -2 -4q2 2 2 4z" />
<glyph unicode="i" horiz-adv-x="532" d="M430 1143q-12 2 -27 20q-4 8 -8 33q-4 -4 -12 -31q12 55 10 64q-4 -8 -12 -25q4 35 -2 41l-10 -20q0 18 -2 39l-15 -27q8 35 0 37l-12 -21q10 33 0 35l-16 -24q6 29 2 26l-17 -22q16 39 4 35l-18 -23q8 23 2 23l-21 -19q6 20 0 23q-4 -6 -12 -15q8 8 2 19l-26 -23 q14 14 4 21q-6 -4 -21 -15q2 14 -8 17l-16 -13q-4 6 -25 19q-12 6 -20 33q-2 10 -45 32q14 -16 14 -43q0 -16 -9.5 -38.5t-9.5 -30.5q0 -16 23 -13l-35 -10q0 -10 23 -20l-27 -13q-4 -20 33 -16q-25 -14 -39 -16q0 -16 16 -17q6 0 15 4l-19 -12q6 -16 23 -16q6 0 16 4 l-22 -15q4 -20 41 -8q-6 -8 -27 -18q2 -12 18 -12q12 0 31 8q-10 -10 -27 -23q8 -16 52 10l-21 -20q0 -6 8 -6q14 0 45 18l-24 -24q6 -14 49 16l-25 -29q10 0 54 25l-21 -25q16 6 41 23l-8 -16q12 8 41 32l-8 -14q53 37 100 76zM444 260l-36 -8q37 47 32 76l-37 -19 q43 47 43 82q0 8 -2 17l-36 -15q29 43 20 80l-33 -14q20 57 17 84q-4 -6 -23 -19q0 6 2 11q14 27 12 49l-41 -15q23 20 15 64q-18 -8 -33 -15q10 37 0 70l-27 -14q-6 35 -22 84q-6 14 -16 112q-4 41 -52 117q10 -49 11 -102q0 -76 -27 -135q-16 -35 -16 -60q0 -31 24 -39 l-49 13q-8 -43 14 -66l-34 8q-16 -35 24 -67q-35 2 -49 14q-16 -37 20 -57l-28 4q-8 -47 28 -70l-32 8q-14 -31 26 -69q-25 0 -39 12q-16 -33 33 -76q-33 8 -43 14q-10 -27 43 -73l-35 14q-4 -4 -4 -12q0 -25 43 -68q-14 6 -39 23q-12 -20 33 -74l-43 25q6 -20 35 -70 l-31 27q4 0 14 -58l-16 19q2 -47 0 -78l-10 18q-20 -98 -117 -184q41 10 129 25q6 0 94 12q-8 8 -32 22q84 -23 118 2q-8 8 -26 21q18 0 49 18q43 25 59 56l-28 4q4 0 39.5 40t40.5 54l-39 -6q16 10 28 24q27 35 31 72l-29 -6q47 43 47 94z" />
<glyph unicode="j" horiz-adv-x="598" d="M483 1143q-10 2 -26 20q-2 8 -8 33q-4 -4 -11 -31q10 55 8 64q-4 -8 -12 -25q4 35 -2 41l-10 -20q0 18 -2 39l-14 -27q8 35 0 37l-13 -21q10 33 0 35l-16 -24q6 29 2 26l-17 -22q16 39 5 35l-19 -23q8 23 2 23l-20 -19q6 20 0 23q-4 -6 -13 -15q8 8 5 19l-29 -23 q14 14 4 21q-6 -4 -21 -15q2 14 -8 17l-16 -13q-4 6 -25 19q-12 6 -20 33q-2 10 -45 32q14 -16 14 -43q0 -16 -9 -38.5t-9 -30.5q0 -16 22 -13l-35 -10q0 -10 23 -20l-27 -13q-4 -20 33 -16q-25 -14 -39 -16q0 -16 17 -17q6 0 14 4l-19 -12q6 -16 23 -16q8 0 16 4l-22 -15 q2 -20 41 -8q-6 -8 -27 -18q2 -12 19 -12q12 0 30 8q-10 -8 -26 -23q8 -16 51 10l-21 -20q0 -6 9 -6q14 0 45 18q-16 -16 -25 -24q6 -14 49 16l-24 -29q10 0 53 25l-21 -25q16 8 41 23l-8 -16q12 8 41 32l-8 -14q53 37 100 76zM-334 -424v0q-4 2 0 0zM412 154l37 -15 q4 6 4 19q0 49 -58 121q29 -14 43 -27q8 49 -51 129l47 -16q-23 53 -57 127l39 -19q0 47 -43 102l24 -2q-12 31 -51 97l23 -4q-51 150 -52 260q0 25 5 49q-25 -59 -80 -180q-45 -88 -56 -117q14 -4 45 20q-41 -43 -92 -120q25 -2 37 6q-14 -23 -24 -45q-25 -53 -27 -93 l27 13q-39 -111 -41 -144l34 25q-41 -72 -34 -147l28 16q-39 -72 -33 -141q14 6 35 16q-33 -74 -26 -115l37 31q-45 -74 -46 -123q0 -10 5 -18l36 18q-33 -59 -30 -106l35 14q-16 -35 -39 -94q6 2 28 10l-8 -12q-25 -23 -31 -31q20 -10 43 -16q-6 6 -63 -41l39 -13 q-27 -16 -82 -61l31 -10q-29 -23 -105 -72q-23 -12 -49 -12q-49 0 -106 49q-39 41 -144 94q-4 -4 10 -14q29 -18 58 -60q115 -150 256 -139q115 10 151 55q20 25 15 37l8 -53q4 -2 39 27.5t47 60.5l12 -35q18 16 37 33q43 55 33 115q33 -23 33 -52q33 43 32 93q0 23 -10 39 l25 -19q14 33 14 78q0 43 -20 68l32 -19q6 18 6 39q0 49 -28 96q12 2 39 -22q4 12 4 33q0 55 -39 108q16 -4 43 -18q8 55 -51 127z" />
<glyph unicode="k" horiz-adv-x="751" d="M315 549q45 61 39 135l-26 -10q-6 -4 -9 -4q35 72 29 112l-37 -30q41 63 41 116q0 16 -4 29l-35 -23q18 45 19 91q0 16 -4 30l-33 -24q20 92 12 127q-8 -14 -22 -29l-2 -2l6 27q8 35 6 65l-41 -24q20 35 8 98q-16 -12 -31 -25q6 68 -6 107l-24 -21q-6 37 -35 125 q-14 31 -21 80q-12 82 -14 90q-14 63 -76 168q39 -139 39 -246q0 -31 -10 -91t-10 -91q0 -61 28 -76l-47 17q-6 -63 19 -96l-35 8q-12 -51 31 -101q-35 2 -52 19q-10 -57 27 -86l-29 6q-6 -74 31 -107l-33 13q-12 -51 33 -111q-27 0 -41 19q-12 -57 37 -119q-18 4 -43 18 q-10 -47 45 -115l-35 17q-4 -8 -4 -21q0 -41 47 -108q-14 8 -41 29q-12 -43 41 -123l-45 22q8 -47 45 -123l-37 21q-6 -43 33 -101l-24 7q12 -31 45 -97l-21 6q25 -80 70 -282q10 53 53 160q31 47 57 98q-14 4 -45 -17q41 35 97 103q-25 2 -37 -2q27 31 65 119l-26 -9 q23 49 51 127l-39 -18q14 18 24 39q25 47 27 98zM698 1270q2 -4 -24 -70q-33 -82 -92 -123q-51 -37 -52 -67q0 -8 5 -15l-25 33q-29 -27 -29 -55l-18 22q-25 -41 -23 -61q-20 20 -22 35q-31 -18 -23 -51l-12 18q-37 -29 -29 -64l-14 23q-14 -14 -31 -66q-14 14 -14 31 q-8 -4 -16 -12q-16 -20 -19 -60q-6 12 -14 33q-6 -4 -13 -12q-12 -23 -14 -64l-12 27q-8 -2 -14 -10q-16 -20 -23 -70q-6 23 -8 37q-6 -4 -12 -12q-16 -20 -23 -66l-14 37q-16 -27 -33 -82l-8 33q-14 -16 -31 -66l-10 17q-8 -20 -23 -72l-8 17q-31 -66 -92 -177q29 18 98 43 q37 4 74 13q0 4 -29 18q76 -18 96 -12q-12 18 -20 22q59 -4 90 13l-18 14q63 12 90 27l-29 14q53 0 92 31l-24 12q16 0 32 4q35 10 56 33l-27 16q27 4 72 33l-35 8q23 6 41 15q43 18 49 32l-31 11q23 6 66 47l-31 6q27 14 68 55q-10 -2 -27 -2q-4 0 10 8q23 12 37 31l-35 10 q12 2 50 43q-8 2 -29 4q16 14 43 58h-25q12 23 31 82q14 31 43 104q16 41 12 119zM760 -127l37 18q-12 16 -56 37l25 17q-4 8 -10 16q-18 16 -51 21q25 16 40 16q-16 35 -51 33l21 10q-6 12 -17 20q-20 20 -45 23l25 8q-2 10 -10 19q-16 20 -52 28q18 12 33 8q-2 10 -10 21 q-18 23 -57 33q27 8 34 6q-4 10 -10 18q-20 18 -61 31l28 4q0 10 -6 19q-18 23 -69 40q29 2 39 0q-2 8 -11 17q-18 23 -61 41l39 4q-12 14 -76 57l33 2q-12 16 -60 49l19 7q-20 14 -68 41l17 4q-76 63 -158 143q27 -72 25 -117v-82q4 2 24 29q-33 -78 -31 -100q20 8 25 16 q-12 -61 0 -98l16 14q2 -72 11 -100l18 26q-10 -55 18 -104l15 22q-6 -59 24 -102l19 25q2 -57 26 -84l11 34q0 -82 37 -106l14 31q2 -27 41 -82l10 31q12 -31 49 -82q-2 14 2 26q0 6 6 -10q10 -29 29 -49l14 37q0 -14 41 -62q2 8 9 31q12 -20 57 -55l2 24q39 -31 82 -45 q25 -6 55 -24q39 -27 58 -33q35 -20 129 -19q-59 18 -78 27q-86 39 -129 109.5t-80 60.5z" />
<glyph unicode="l" horiz-adv-x="538" d="M395 14q-4 51 0 103q-6 0 -33 -33q23 45 52 119q-12 -2 -35 -15q31 72 29 117l-25 -12q29 94 33 121l-37 -21q41 61 39 129l-29 -14q43 63 39 129l-27 -10q-6 -2 -10 -4q39 68 35 108l-37 -29q49 72 49 123q0 10 -2 19l-39 -19q33 61 29 121l-35 -22q29 88 25 129 q-10 -14 -25 -27q-2 -2 -4 -2l10 27q12 35 15 67l-43 -20q25 33 16 100q-16 -12 -33 -22q12 74 0 112l-24 -20q-2 39 -29 133q-14 31 -23 82q-16 76 -20 92q-12 49 -98 158q70 -119 69 -258q0 -33 -12 -89.5t-12 -85.5q0 -51 24 -67l-47 20q-10 -63 13 -98l-35 12 q-16 -49 20 -106q-18 4 -49 26q-18 -57 16 -92l-26 11q-14 -76 20 -115l-33 16q-18 -53 21 -119q-23 0 -37 23q-6 -14 -6 -35q0 -47 33 -98q-33 12 -41 20q-12 -49 43 -125l-37 17q-4 -8 -4 -25q0 -47 53 -116q-16 8 -43 26q-10 -53 53 -131l-47 14q16 -41 72 -127l-43 13 q2 -14 8 -31q18 -37 55 -70l-22 -4q23 -29 82 -78l-21 -6q94 -106 228 -180q-2 0 -31 52t-27 87zM158 1735v0v0z" />
<glyph unicode="m" horiz-adv-x="1388" d="M821 567q27 4 43 -14q12 66 -76 125q37 2 50 -4q0 10 -19 37q-33 43 -104 65l41 8q-37 63 -125 64q-25 0 -51 -4q14 10 47 26q-45 16 -58 17q-51 0 -100 -37l20 47q-47 -20 -120 -70l8 41q-29 -14 -78 -69l-6 22q-37 -43 -51 -84l-6 21q-61 -86 -119 -217q33 25 112 51 q66 4 82 2q0 6 -30 31q41 -20 98 -45q-6 23 -14 32q53 -27 77 -26l-8 24q27 -16 49 -37v37q8 -23 13 -41l14 25q2 -2 -5 -14.5t-7 -18.5q0 -4 2 -6q12 8 28 20q-16 -39 -8 -51l31 25q-27 -45 -27 -66q0 -10 6 -18l35 16q-25 -41 -16 -78l33 17q-23 -59 -21 -86q6 4 25 16 q0 -6 -2 -12q-16 -27 -21 -51l45 12q-12 -8 -26 -70l36 11q-20 -47 -16 -80l29 10q-8 -61 -2 -102q2 -25 -25 -138q-8 -39 2 -151q18 55 35 110q41 119 70 164q37 51 37 88q0 25 -15 35l43 -26q20 53 2 86l33 -15q8 14 8 33q0 31 -20 59q18 -4 47 -24q8 16 8 35q0 29 -23 49 l27 -8q12 70 -29 102l35 -10q12 53 -43 110zM1317 672v0v0zM977 571v-2v2zM1339 543q16 70 -71 135q37 2 49 -6q-4 23 -23 45q-35 47 -106 69l41 9q-49 63 -123 63q-31 0 -64 -8q23 25 45 29l-51 12q-53 0 -104 -41l18 47q-4 10 -56 -25.5t-65 -48.5l9 43q-27 -12 -78 -71 l-6 24q-20 -25 -54 -84l-8 21q-66 -92 -131 -219q37 25 119 51q78 4 88 2q0 6 -33 31q43 -20 105 -46q-6 25 -15 33q49 -23 86 -24l-10 24q2 2 32 -14t30 -21q0 12 -5 37q14 -20 19 -39l14 25q-10 -16 -14 -35q12 8 31 21q-14 -25 -15 -37q0 -6 2 -10l33 22q-31 -45 -31 -65 q0 -10 4 -19l35 14q-27 -41 -20 -77l33 12q-12 -29 -27 -88q10 8 27 16q-2 -6 -5 -12q-18 -25 -24 -51l45 8q-14 -27 -31 -70l35 8q-10 -23 -22 -81l28 8q-12 -61 -10 -107q0 -25 -37 -139q-12 -41 -12 -158q16 49 31 97q43 109 100 180q45 55 45 94q0 23 -12 31l41 -29 q14 31 14 59q0 16 -6 29l33 -18q12 18 12 43q0 27 -17 55q18 -6 46 -29q10 18 10 41q0 27 -19 47l27 -12q18 74 -21 109l33 -13q16 55 -37 119q29 4 43 -16zM315 274l31 -2q2 49 -39 68l35 -4q10 35 -41 67q25 6 43 -6q6 41 -53 74q35 0 45 -4q2 33 -64 63l37 -2 q12 33 -69 70q16 0 45 -6q2 33 -68 63l47 2q-10 14 -78 56l41 2q-2 14 -63 45l22 6q-23 12 -73 33l20 6q-80 47 -184 100q29 -59 24 -94q-6 -33 -10 -68q4 0 33 25q-25 -33 -53 -86q23 8 32 16q-29 -51 -22 -80l24 13q-20 -72 -20 -80l33 20q-20 -31 -21 -59q0 -12 4 -23 l25 15q-20 -31 -21 -62q0 -10 5 -18l32 14q-16 -31 -16 -51q0 -8 2 -14l33 22q-29 -39 -29 -65q0 -10 6 -19l33 17q-14 -23 -14 -47q0 -10 4 -21l30 16q-14 -51 -8 -71q6 6 23 18q0 -6 -2 -10q-12 -23 -10 -41l40 14q-14 -12 -14 -36q0 -8 2 -19l33 14q-10 -39 0 -61l27 10 q2 -20 18 -76q12 -25 8 -102q0 -39 39 -113q-6 4 -2 72q6 84 41 148q18 35 18 59q0 29 -22 35l47 -11q6 41 -16 62l37 -6q12 35 -29 65q35 2 51 -10q12 41 -29 57z" />
<glyph unicode="n" horiz-adv-x="933" d="M332 336l-29 -10q41 45 35 88l-35 -11q33 47 25 74l-35 -20q37 43 37 75q0 10 -4 19l-35 -16q18 29 18 57q0 10 -4 20l-31 -16q18 55 11 80q-8 -8 -23 -19q2 6 2 11q12 27 10 47l-41 -17q14 14 15 39q0 12 -2 25q-18 -10 -33 -17q8 41 -4 68l-25 -16q-4 25 -28 80 q-6 12 -25 106q-8 41 -65 104q25 -61 24 -126q0 -37 -15.5 -84.5t-15.5 -67.5q0 -33 27 -41l-49 8q-6 -39 18 -59l-35 4q-14 -33 29 -64q-37 2 -51 11q-14 -37 25 -54l-29 4q-6 -47 33 -65l-35 4q-10 -31 33 -68q-23 0 -39 11q-14 -35 39 -74q-35 6 -43 10q-8 -29 49 -69 l-35 10q-4 -4 -4 -12q0 -25 53 -68q-14 6 -43 16q-8 -27 49 -73l-47 12q18 -29 53 -76l-39 14q0 -25 41 -61l-22 4q14 -18 49 -61l-20 4q59 -106 59 -170q0 -20 -4 -43q25 41 72 114q16 16 51 66q-12 4 -41 -6q76 35 88 63q-23 4 -35 0q25 20 53 80l-26 -4q43 61 45 82 l-37 -10q45 41 41 88zM829 236q37 43 45 96l-32 -8q59 61 55 145l-31 -18q20 51 21 106q0 23 -4 41q-8 -20 -25 -41q8 25 8 61q0 102 -65 154q0 -27 -4 -51q-4 23 -39 63q-47 57 -105 68q10 -20 19 -41q-6 8 -60 29q-63 29 -96 22q8 -6 33 -26q-80 18 -105 16l27 -41 q-43 27 -104 8q8 -8 26 -28q-68 2 -104 -19l22 -20q-33 -10 -114 -52q-2 -2 -148 -63q-57 -23 -139 -109q174 104 313 95q113 -8 129 34v-51q27 0 80 29l-6 -37q41 -12 78 27q0 -20 -6 -52q27 -16 45 17l-11 -27q23 -6 39 15l-20 -25q10 4 33 4l-39 -12q-6 -6 43 -45 q-16 6 -43 12q-6 -23 43 -82l-33 16q-8 -8 -8 -22q0 -31 31 -90q-12 10 -33 31q-8 -8 -6 -31q0 -33 22 -82l-39 29q-4 -51 15 -119l-31 28q-6 -14 -6 -32q0 -29 16 -68l-18 12q2 -31 14 -100l-14 10q8 -150 4 -276q23 49 84 133q39 35 73 74q-12 6 -45 -2q47 20 117 65 q-20 8 -37 8q33 18 90 92h-26q70 78 80 109l-39 -8q18 13 30 29zM856 555q0 -4 -2 -4q2 2 2 4z" />
<glyph unicode="o" horiz-adv-x="792" d="M584 543l4 -2q-2 2 -4 2zM588 541q82 -102 82 -228q0 -80 -54 -135q-100 -76 -100 -100q0 29 -4 49q-20 -4 -70 -31l7 35q-18 12 -68 -12q10 16 31 43q-27 14 -58 12l25 16q-12 12 -25 23q-29 23 -59 25l33 10q0 8 -9 20q-16 20 -53 41q27 6 43 -2q4 29 -47 82 q16 -4 43 -16q8 14 -29 94l29 -25q18 12 12 115q6 -14 19 -43q16 6 39 98l12 -47l14 21q20 29 50 59l-9 -41q6 -4 74 39l-8 -22q47 20 86 8l-19 -13q53 -20 111 -104q45 -70 90 -141q-20 109 -22 202q2 51 -21.5 115t-25.5 57q-8 -2 -9 -38q-14 45 -49 96q-43 61 -84 69 q-2 -25 6 -38q-25 14 -49 26q-61 29 -119 29q-29 0 -53 -6l25 -23q0 10 -98.5 -14.5t-122.5 -50.5q20 0 53 -7q-33 -12 -64 -26q-74 -43 -114 -117l37 8q-18 -12 -48 -49q-53 -68 -63 -147l41 18q-2 6 -20.5 -45t-18.5 -96q0 -25 6 -43q8 16 27 49q-10 -29 -10 -86 q0 -100 47 -148l14 48q8 -29 18 -60q29 -68 76 -106v51q31 -43 43 -57q51 -57 105 -80q-10 12 -31 45q12 -8 24 -19q51 -41 121 -49q-18 25 -30 47q12 -23 84 -22q35 0 73 10q-12 6 -39 25q6 -2 13 -7q33 10 78 31t57 37l-37 6q0 -8 46 42t54 99q25 143 11 218 q-17 86 -119 176z" />
<glyph unicode="p" horiz-adv-x="882" d="M362 553l3 -2q-1 2 -3 2zM285 825v0v0zM684 754v0v0zM811 434l35 -10q-2 18 -2 39q-14 47 -60 84q25 10 47 -8q0 12 -14 43q-27 49 -86 73q35 10 47 7l-24 32q-37 35 -107 45l37 15q-27 49 -113 49q-25 0 -53 -4q27 23 47 26q-33 16 -61 17q-47 0 -101 -31l23 47 q-10 2 -47 -12q-59 -20 -100 -68l6 47q-76 -35 -86 -110l-17 16q-4 0 -10 -41q-6 -45 4 -69l-18 12q0 -57 14 -133q12 -63 25 -127q12 45 59 123q8 10 61 53q-27 6 -43 6q0 2 39 4t49 -6q-14 18 -22 22q14 8 37 -28l-6 26q18 -16 37 -41l2 39q4 -23 30 -51l11 27 q-2 -23 16 -62q10 10 22 27q-2 -49 7 -57q14 12 26 28l-8 -23q-8 -22 -8 -36t6 -23l33 19q-16 -43 -10 -64q10 2 32 13q-10 -25 -24 -68q10 4 26 10q-2 -4 -4 -10q-18 -18 -24 -33l45 -4q-25 0 -43 -47q10 -2 37 -6q-8 4 -45 -55l28 -9q-12 -12 -63 -77q-35 -43 -123 -66 q-31 -14 -98 -20q-59 -6 -62 -2q-2 -18 125 -19q119 0 209 39q123 39 108 98l23 -43q51 55 47 99l27 -29q2 2 12 18q16 27 16 56q0 23 -10 45q18 -6 43 -37q16 31 17 59q0 29 -19 49l27 -12q2 25 4 49q-4 57 -35 80zM340 -582q-25 37 -37 78q-4 -2 -14 -35q4 43 4 109 q-18 -10 -23 -21q2 72 -4 105l-18 -14q0 16 2 45q2 51 2 63l-25 -22q20 57 11 116l-21 -16q25 61 19 119q-12 -6 -29 -17q25 63 20 99l-30 -27q35 63 34 109q0 10 -2 18l-28 -18q25 55 22 106l-28 -20q12 39 24 112q-8 -10 -22 -22l4 16q16 33 20 64l-37 -15q10 10 27 86 q-16 -8 -31 -16q18 59 19 98l-25 -14q10 74 8 123q-2 27 27 161q10 49 6 177q-10 -61 -22 -111q-33 -129 -78 -219q-35 -70 -35 -111q0 -25 10 -35l-33 27q-18 -61 -6 -98l-26 16q-8 -20 -9 -45q0 -31 15 -61q-31 10 -37 28q-8 -23 -8 -45q0 -29 14 -47l-23 10 q-14 -76 15 -112l-27 14q-14 -51 21 -115q-10 0 -33 21q-14 -61 31 -127q-27 8 -35 16q-4 -53 45 -116l-29 12q-12 -49 55 -127q-12 4 -36 18q0 -51 65 -114l-41 6q12 -29 84 -107l-37 4q23 -31 80 -79l-16 -9q49 -41 90 -51l-14 -10q94 -55 194 -55q31 0 57 6q-25 6 -45 18 q-49 22 -61 51z" />
<glyph unicode="q" horiz-adv-x="882" d="M780 -598q-4 41 0 84q-6 0 -26 -27q18 39 43 103q-20 -4 -29 -11q25 61 25 105l-21 -12q12 45 25 110l-27 -20q31 55 27 116l-23 -14q33 57 31 115q-12 -4 -29 -12q29 59 25 94l-29 -25q47 76 37 121l-31 -16q27 53 25 102l-29 -18q10 37 23 108q-8 -12 -21 -22q2 8 4 14 q14 33 19 63l-37 -16q10 10 22 84l-28 -16q16 57 14 94l-22 -14q6 70 0 114q-4 25 12 156q8 57 -10 166q-4 -57 -13 -107q-18 -123 -57 -209q-29 -61 -29 -100q0 -29 13 -37l-35 23q-16 -57 -2 -92l-27 14q2 -45 8 -96q-31 8 -37 24q2 -41 9 -86l-23 10q-14 -70 14 -102 l-26 12q-14 -47 16 -106q-10 0 -31 20q-16 -55 25 -116q-14 4 -35 18q-8 -47 37 -111l-29 15q-16 -43 41 -121q-12 6 -34 22q-8 -45 45 -112l-39 12q25 -49 55 -109l-33 13q2 -14 6 -27q14 -33 45 -61l-18 -4q33 -49 63 -72l-16 -4q86 -113 160 -113q14 0 26 6q-45 9 -49 70 zM829 -666v-2v2zM-45 313h2h-2zM713 274l2 -4zM678 596q-41 113 -105 113q-10 0 -18 -4q16 16 39 30q2 2 -27.5 15.5t-58.5 13.5q-14 0 -27 -4l21 33q-8 10 -51 10t-78 -31q0 20 22 53q-23 0 -43 -2q-51 -8 -67 -43v31q-25 -10 -52 -20q-53 -31 -59 -70l-6 35 q-12 -2 -35 -23q-39 -37 -47 -96q-23 16 -16 45q-12 -14 -27 -27q-27 -39 -27 -90q0 -16 2 -33q-12 12 -28 39q-18 -12 -19 -67q0 -39 21 -82l-33 22q-10 -35 -10 -38q0 -53 53 -119q-16 8 -45 26q2 -33 4 -43q16 -47 72 -86l-51 4q33 -63 108 -98l-43 -4q23 -47 98 -57 l-18 -15q33 -12 102 -18l-14 -16q39 -10 78 -11q102 0 153 62q-16 0 -34 -2q-39 6 -52.5 28.5t-29.5 63.5q-4 -4 -15 -43q2 59 4 108q-20 -16 -24 -26q4 59 -2 82l-21 -17q-2 2 15 74l-33 -18q33 45 31 67l-29 -6q20 14 45 55q-14 2 -35 4q20 10 47 37l-39 6q18 4 35 7 q35 8 37 22l-33 21q41 0 58 16l-25 25q23 0 60 2q-4 4 -17 22q4 0 8 -2q20 -12 35 -12l-10 45q8 -12 51 -27q-2 10 -4 37q25 -18 59 -29l2 29q23 -10 76 -51q33 -29 47 -131q10 -55 60 -144q-8 82 -35 322z" />
<glyph unicode="r" horiz-adv-x="892" d="M326 322q41 45 34 90l-34 -11q33 47 26 72l-37 -18q37 43 37 75q0 10 -2 19l-37 -14q27 41 15 77l-27 -18q14 57 6 82q-6 -8 -22 -19q18 10 16 60l-47 -17q25 23 12 62q-8 -4 -33 -17q10 43 -2 68l-24 -14q-8 29 -31 82q-6 12 -24 106q-8 41 -68 105q25 -59 25 -127 q0 -29 -14.5 -80t-14.5 -74q0 -35 26 -41l-49 10q-6 -43 19 -63l-37 6q-14 -35 29 -66q-35 0 -54 11q-12 -37 29 -56l-31 6q-6 -49 33 -65l-33 6q-12 -35 33 -70q-25 -4 -43 11q-10 -35 41 -76q-35 4 -43 10q-6 -29 51 -69l-37 8q-4 -6 -4 -13q0 -25 53 -65q-14 2 -43 14 q-8 -25 50 -76l-45 15q18 -29 55 -78l-41 14q-2 -25 41 -63l-25 6q14 -20 51 -64l-22 7q61 -109 61 -172q0 -10 -6 -43q27 39 74 114q18 18 53 68q-14 2 -41 -6q76 33 90 63q-25 2 -39 0q27 20 58 78l-27 -2q20 33 45 84l-37 -10q41 41 37 90zM825 631l31 -6q-2 16 -6 39 q-12 47 -49 59h37q-8 25 -15 35q-25 41 -80 49q18 20 45 16q-12 10 -20 23q-31 25 -70 24q-14 0 -34 -2q12 10 34 31q-16 10 -43 10q-33 0 -67 -22l18 33q-2 6 -24 6q-33 0 -76 -43q6 16 22 43q-8 2 -14 2q-33 0 -72 -51l13 49q-31 -25 -72 -64l8 43q-14 0 -55 -55l-2 20 q-16 -18 -39 -65l-4 20q-63 -88 -101 -168q49 25 80 13q14 -4 56 -23q0 6 -19 39q25 -31 64 -70q0 10 -6 37q14 -18 53 -41l-2 25q16 -12 51 -37l-8 37q25 -43 45 -43v31q14 -43 20 -39q6 14 13 32q0 -4 -2 -18l38 12q-14 -14 -12 -26q4 2 25 6q-14 -4 -21 -25h45 q-12 -2 -24 -32h32q-18 -25 -14 -46h27q-10 -39 -6 -67q2 -18 -31 -86q-14 -31 -6 -105q31 100 117 160q45 31 45 55q0 14 -15 27l39 -27q10 20 10 39q0 14 -8 27l37 -14q20 33 -14 75q18 -4 47 -20q22 51 -21 78z" />
<glyph unicode="s" horiz-adv-x="772" d="M592 420l37 -4q-10 23 -21 45q-33 51 -90 74q20 18 47 6q-10 20 -28 37q-41 43 -105 53q33 16 45 14q-10 18 -88 47q16 14 29 29l2 -25q29 18 86 66v-21q92 55 264 148q-117 -8 -173 5t-116 28q0 -14 29 -39q-92 63 -129 67q2 -23 12 -35q-61 29 -121 29q-14 0 -28 -2 l18 -24q-31 4 -78 2q-25 -2 -94 -33q-27 -8 -58.5 -54.5t-31.5 -72.5q20 49 82 84q-66 -49 -66 -135q0 -20 4 -41q18 -86 93 -162l6 35q8 -27 20 -47q29 -51 62 -76q6 14 14 37q12 -35 51 -90l8 43q6 -25 11 -50q14 -51 30 -61l25 31q-2 -25 12 -74l29 22q-6 6 -12 -69 q6 2 26 12q-2 -6 -4 -10q-18 -20 -26 -39l47 -2q-25 -8 -50 -59q10 0 37 -3q-20 -20 -61 -75l33 -4q-25 -27 -82 -105q-14 -23 -131 -125q-31 -27 -86 -90q-47 -57 -49 -57l106 78q121 90 221 135q127 59 119 121l20 -45q16 16 29 32q31 43 33 78l22 -31q37 47 37 101 q0 25 -6 49q18 -6 41 -45q2 -4 9.5 21.5t7.5 52.5q0 47 -27 75l31 -12q4 16 8 35q-12 31 -44 76t-38 49z" />
<glyph unicode="t" horiz-adv-x="720" d="M733 41q-57 -16 -108 -16q-33 0 -54 8q-49 16 -84 45q-6 -8 9 -37q-4 0 -24.5 41t-22.5 55q-12 -14 -15 -24q-8 27 -31 94l-14 -17l-12 115l-23 -26q14 70 4 133l-20 -19q25 70 20 135q-12 -6 -28 -16q27 78 24 115l-30 -31q49 96 43 147l-31 -18q14 29 33 121l-31 -21 q16 45 39 131q-10 -12 -25 -24q2 8 6 18q18 37 27 74l-37 -14q10 10 37 98q-16 -8 -31 -16q12 33 33 112l-25 -14q10 41 29 143q4 37 62 185q2 6 59 198l-57 -123q-70 -147 -128.5 -242.5t-58.5 -146.5q0 -16 6 -24l-28 34q-29 -72 -23 -116l-22 22q-16 -33 -17 -76 q0 -25 6 -49q-27 10 -34 35q-14 -35 -15 -67q0 -25 11 -43l-21 14q-10 -39 -10 -76q0 -35 12 -57l-24 18q-8 -20 -9 -51q0 -43 17 -88q-10 0 -31 27q-6 -18 -6 -45q0 -55 26 -109q-12 6 -32 22q-8 -61 41 -143l-29 17q-6 -4 0 -39q10 -53 61 -119q-14 6 -41 24q-2 -6 9 -39 q18 -51 71 -102l-43 6q16 -27 29 -41q37 -49 88 -82h-39q14 -18 27 -30q41 -35 94 -45l-12 -15q47 -16 96 -16q16 0 29 4l-6 -16q134 -4 284 102zM670 766q-29 20 -49 20q-27 0 -27 -14l16 37q-29 12 -51 -4l10 29q-25 14 -57 -13q8 29 16 37q-27 16 -47 -10l6 22 q-39 12 -59 -18l8 27q-29 14 -63 -21q0 20 12 33q-35 14 -72 -29q4 27 11 35q-33 4 -68 -43l6 29q-33 12 -74 -54q2 14 9 37q-35 2 -64 -59l-2 39q-16 -10 -51 -74l-4 35q-14 -16 -33 -64l-10 17q-14 -45 -13 -70l-10 15q-16 -78 -10 -170q14 23 55 49q43 10 49 10 q-2 4 -28 18q72 -23 71 -22q-10 16 -16 22q43 -14 53 -10l-10 16q39 -12 51 -14l-14 27q29 -25 53 -19l-10 21q29 -27 53 -23q-2 12 -6 29q29 -25 45 -21l-12 29q31 -35 51 -35q6 0 10 2l-8 31q27 -25 53 -20l-8 26q39 -20 60 -18q-4 4 -13 20l8 -4q16 -14 35 -16l-6 37 q12 -20 45 -21q-4 14 -8 29q29 -12 53 -8l-6 20q39 0 66 8q10 4 88 2q33 -2 90 31q-102 -14 -174 35z" />
<glyph unicode="u" horiz-adv-x="933" d="M803 188q37 39 31 80l-29 -10q39 39 33 78q-14 -4 -35 -8q31 41 24 63l-34 -16q41 39 41 69q0 6 -5 15l-34 -13q29 37 22 70l-35 -12q25 51 21 74q-8 -6 -25 -15q2 6 4 10q16 23 17 43l-43 -10q25 18 22 58l-35 -11q14 39 9 66l-27 -10q2 49 -10 82q-6 16 2 110 q4 39 -31 119q6 -133 -55 -221q-27 -39 -27 -66q0 -12 19 -33l-48 19q-12 -41 9 -66l-35 11q-18 -31 18 -70q-39 6 -49 18q-6 -10 -6 -22q0 -23 23 -39l-29 8q-10 -49 26 -74l-32 9q-16 -33 26 -76q-12 0 -39 14q-16 -39 37 -84q-35 6 -43 12q-8 -33 49 -77l-34 10 q-4 -4 -4 -12q0 -31 59 -74q-16 4 -43 14q-10 -33 57 -78l-49 7q8 -18 70 -74l-41 4q2 -8 8 -19q14 -23 51 -38l-22 -5q18 -18 71 -45l-20 -6q102 -74 164 -73q10 0 20 2q-8 8 -14 16q-16 23 -10 47q2 12 14 61q-6 0 -37 -22q29 29 61 76q-23 -4 -34 -11q35 45 34 72l-26 -8 q14 31 33 76zM311 236v0v0zM764 322l-100 -25q2 -6 41 -23q-113 18 -127 17q12 -23 22 -29q-82 4 -113 -6l19 -20q-45 2 -107 4l25 -31q-53 25 -90 18l10 -26q-2 -2 -33 35q-12 -25 -14 -35q-2 2 4 16q2 8 2 14q-12 -12 -24 -28q0 2 9 18.5t9 28.5t-8 20l-31 -20q16 43 6 82 l-31 -21q16 74 17 101q-6 -6 -25 -21q2 6 2 15q16 31 21 59l-45 -14q12 10 28 81l-36 -12q20 55 20 94l-29 -12q10 74 9 123q-2 31 32 162q14 47 13 178q-14 -55 -31 -111q-41 -125 -98 -213q-43 -68 -43 -110q0 -27 12 -37l-41 29q-12 -33 -12 -62q0 -25 8 -41l-35 19 q-8 -18 -8 -43q0 -35 20 -70q-37 8 -47 29q-8 -16 -8 -41q0 -37 25 -62l-29 10v-49q8 -55 39 -80l-37 11q-4 -8 6 -41q14 -53 68 -101q-25 -12 -47 11q4 -27 22 -56q45 -66 135 -84q-35 -20 -53 -16q16 -10 31 -20q43 -25 92 -25q39 0 78 16l-25 -32q31 -6 39 -7 q70 0 133 66q-4 -18 -20 -49q10 -2 37 8q47 20 86 78l-2 -49q18 10 32 24q39 35 64 80l2 -43q27 23 67 88l11 -20q18 27 47 94l10 -19q57 98 127 250q-39 -30 -131 -75z" />
<glyph unicode="v" horiz-adv-x="851" d="M528 -143q-35 66 -34 102q0 39 2 78q-10 -2 -33 -31q47 80 45 100q-23 -10 -31 -18q14 41 15 72q0 10 -3 20l-22 -16q10 80 8 96l-29 -27q23 49 3 101l-23 -21q10 27 10 54t-10 47l-29 -23q12 57 -2 82l-26 -33q12 35 12 64q0 31 -16 45l-27 -29q8 53 -14 86l-25 -28 q-2 33 -20 90l-17 -31v0q-10 8 -8 33.5t-4 36.5l-31 -33q10 31 -16 69q-12 -16 -23 -30q-6 23 -35 69l-14 -24q-25 39 -68 65q-20 12 -40 41q-27 35 -41 49q-37 33 -119 56q8 4 59 -51q66 -68 74 -146q8 -86 57 -84l-49 -10q14 -25 41 -53l-35 -9q0 -10 6 -20q12 -20 47 -31 q-33 -12 -51 -8q0 -10 4 -20q10 -20 39 -25l-28 -6q4 -14 10 -25q14 -27 45 -30l-35 -5q0 -10 6 -20q14 -23 51 -39q-25 -8 -43 -2q0 -43 66 -66q-31 -6 -45 -4q2 -8 8 -18q18 -23 66 -37l-37 -4q-6 -35 78 -68q-29 0 -45 2q-4 -29 75 -61l-47 -6q12 -16 86 -60l-43 -2 q4 -8 13 -16q20 -20 59 -31l-23 -8q23 -14 78 -37l-20 -6q85 -51 198 -106zM780 494q2 4 6 10q23 18 31 43h-45q14 10 37 57q-20 -2 -37 -4q25 39 23 70l-29 -6q12 47 2 88q-6 23 -2 55q6 55 6 59q0 43 -47 115q10 -27 10 -70q0 -90 -51 -147q-33 -37 -33 -66q0 -16 13 -26 l-41 26q-20 -35 -7 -61l-30 18q-12 -10 -13 -28q0 -18 13 -39q-35 16 -41 28q-14 -10 -15 -26q0 -14 15 -31l-25 16q-12 -18 -12 -36t10 -35l-26 20q-12 -10 -13 -32q0 -18 10 -43q-12 6 -30 28q-14 -12 -15 -35q0 -23 13 -51l-31 31q-8 -20 -8 -25q0 -25 16 -61l-26 24 q-14 -4 -15 -28q0 -25 19 -68q-12 12 -29 37q-10 -16 -10 -29q0 -27 12 -63l-33 33q-6 -39 10 -97l-28 31q-14 -25 6 -78l-18 13q2 -25 18 -80l-18 12q10 -92 18 -217q16 31 70 82q33 18 65 39q-8 8 -43 10q45 2 107 18q-20 12 -33 17q31 6 82 43l-25 8q33 18 78 51l-37 8 q35 20 78 60l-31 4q16 6 31 14q33 20 45 49l-37 9q14 8 27 16q27 18 33 37h-43q78 31 77 71l-39 3q12 6 23 16q25 23 29 49l-37 -2q20 23 49 74q-6 -2 -29 -8z" />
<glyph unicode="w" horiz-adv-x="1040" d="M358 160l-22 -4q2 -2 19.5 41t19.5 57l-31 -16q35 47 25 108l-23 -16q14 27 14 65q0 23 -6 41l-24 -18q14 55 -4 88l-19 -31q6 25 6 51q0 41 -18 60l-21 -27q2 55 -24 86l-14 -29q-8 31 -35 86q0 -6 -6 -26q-2 -4 -5 12q-6 27 -22 47l-18 -30q2 31 -31 61q-4 -8 -10 -29 q-12 20 -50 58l-6 -25q-33 33 -73 49q-31 18 -99 60q-35 23 -121 22q37 -12 70 -29q78 -43 109 -108q37 -78 69 -64l-37 -16q18 -31 47 -39l-26 -12q2 -8 6 -15q14 -18 45 -22q-27 -14 -41 -12q2 -10 8 -17q10 -16 33 -18l-20 -6q4 -12 10 -21q16 -20 39 -24l-27 -4 q0 -10 4 -17q12 -20 43 -33q-20 -6 -35 -2q2 -10 6 -18q10 -20 46 -37q-29 -2 -37 0q0 -10 53 -51l-29 2q-8 -25 49 -66q-12 4 -34 13q-6 -23 41 -68l-37 12q10 -27 41 -69l-31 14q-2 -20 27 -61l-19 6q8 -18 27 -64l-15 8q6 -31 7 -61q0 -66 -31 -139q61 55 94 86 q16 12 66 61q-8 4 -35 -2q72 29 88 62q-20 4 -31 2q47 39 55 88zM582 803q18 47 39 92q-31 -41 -140 -133q-43 -27 -43 -53q0 -10 6 -17l-28 29q-23 -27 -15 -51l-22 18q-14 -10 -14 -31q0 -12 6 -28q-25 14 -31 28q-14 -12 -14 -26q0 -12 10 -25l-21 15q-10 -16 -10 -35 q0 -16 8 -29l-22 16q-8 -8 -8 -26q0 -16 8 -37q-18 6 -25 20q-10 -10 -10 -26q0 -20 14 -45q-23 14 -28 20q-16 -23 16 -71l-25 16q-8 -14 -8 -16q0 -23 27 -60q-12 6 -29 23q6 29 6 30l4 -22q4 -43 11 -82l-35 20q2 -16 29 -73l-29 16q-6 -25 24 -59l-16 4q8 -16 35 -55 l-16 4q29 -51 90 -140q-2 47 16 69.5t37 43.5q-12 4 -35 -4q33 12 72 39q-18 4 -27 2q18 12 47 47h-20q20 18 47 49h-31q20 8 47 51h-22q18 8 45 49q-12 2 -29 5q18 10 37 41l-31 -3q55 23 51 52l-30 2q16 8 37 43l-29 2q14 14 35 47q-4 0 -23 -2q4 2 6 6q18 10 25 25l-35 6 q10 2 31 34l-27 5q10 10 25 43l-23 2q8 16 19 61q2 15 41 74zM885 -31q-16 25 -33 80q0 29 2 60q-6 0 -27 -25q37 63 37 80q-20 -8 -26 -14q16 45 10 71l-19 -12q12 61 9 74l-23 -19q20 41 6 76l-20 -14q12 25 12 49q0 14 -6 28l-25 -16q14 43 4 62l-22 -23q14 33 14 57 q0 16 -8 25l-25 -19q14 35 0 68l-22 -20q4 51 -6 69q-2 -4 -15 -18v10q6 23 3 41l-31 -21q12 18 0 56q-12 -10 -25 -19q2 33 -12 58l-16 -15q-6 18 -35 66q-4 4 -35 90q-12 35 -66 84q41 -78 41 -152q0 -14 -4 -39.5t-4 -37.5q0 -45 27 -47l-39 2q0 -33 24 -52l-30 -2 q-4 -31 35 -51q-29 -4 -43 2q-4 -35 28 -45l-22 -2q2 -43 39 -53h-29q-2 -33 41 -58q-23 -6 -35 3q-2 -35 49 -60q-29 -2 -37 0q2 -8 6 -16q14 -20 52 -37h-31q-6 -29 61 -60q-23 0 -36 3q0 -8 6 -17q14 -20 55 -37l-39 -4q10 -12 70 -49l-35 -2q4 -12 57 -39l-16 -6 q18 -12 63 -29l-16 -6q58 -35 162 -78zM1018 809q16 29 24 96q2 -2 -28 -57q-39 -63 -80 -107q-53 -53 -35 -75l-20 20q-20 -29 -15 -55l-16 14q-18 -25 -6 -61q-20 10 -25 22q-20 -29 -6 -53l-14 10q-18 -39 0 -65l-19 12q-14 -27 2 -68q-14 2 -20 17q2 -35 6 -74 q-10 4 -23 14q-10 -27 15 -69l-19 12q-16 -25 19 -76q-10 4 -25 17q-8 -25 21 -72l-27 14q2 -16 27 -71l-23 12q-2 -25 23 -55h-15q8 -16 31 -52l-12 2l69 -145q0 53 13.5 84t25.5 57q-6 2 -24 -10q23 18 53 55q-14 0 -23 -2q14 16 35 60l-16 -2q14 25 33 61l-25 -8 q14 14 33 65l-19 -4q16 12 35 64q-18 -2 -22 -4q12 14 26 51l-24 -10q41 41 39 65l-25 -4q12 10 27 53l-21 -6l29 58q-8 -4 -19 -9q12 4 25 41l-29 -2q12 12 27 43l-23 -4q8 14 23 51l-18 -2q8 16 18 66q2 25 37 86z" />
<glyph unicode="x" horiz-adv-x="827" d="M791 -123q-25 37 -54 119q-4 45 -12 90q-6 -2 -25 -37q25 92 19 117q-20 -14 -27 -25q6 70 -14 107l-16 -23q-8 45 -25 107l-21 -35q6 66 -28 111l-17 -27q2 63 -34 104l-23 -30q-6 35 -31 86l-14 -41q0 90 -39 110l-18 -35q-8 31 -43 84l-15 -34q-10 33 -47 86 q0 -8 -6 -31q0 -6 -6 12q-8 31 -27 51l-20 -41q0 33 -37 68q-8 -18 -14 -35q-12 23 -54 64l-8 -29q-39 41 -82 59q-27 12 -51 39q-47 45 -51 50q-39 33 -131 59q39 -29 69 -55q76 -72 105 -154q33 -94 82 -82l-47 -20q8 -12 16 -23q20 -23 43 -27l-33 -16q4 -10 13 -20 q18 -20 57 -23q-29 -20 -49 -20q45 -39 59 -39l-24 -13q27 -49 73 -47l-32 -12q4 -12 12 -20q23 -23 65 -29q-23 -16 -41 -12q4 -14 15 -23q23 -25 71 -31q-29 -12 -43 -14q4 -10 15 -16q27 -18 78 -25l-37 -10q2 -12 12 -21q25 -20 86 -30q-14 -4 -45 -9q4 -10 14 -18 q23 -18 80 -29l-47 -16q18 -12 100 -41l-41 -12q20 -14 80 -35l-20 -12q25 -10 86 -27l-19 -10q73 -31 218 -109zM586 623q0 -10 4 -17l-29 41q-37 -33 -37 -67l-22 28q-33 -55 -29 -78q-27 27 -29 45q-31 -18 -30 -47q0 -10 4 -18l-19 22q-33 -29 -32 -63q0 -10 2 -18 l-21 28q-33 -51 -31 -86q-10 8 -20 39q-39 -49 -35 -94q-18 25 -22 39q-27 -47 -23 -98l-18 32q-35 -12 -31 -106q-6 14 -16 43q-31 -16 -27 -101l-25 43q-10 -20 -22 -108l-19 39q-23 -68 -20 -86l-16 18q-10 -57 -9 -90l-12 17q-16 -76 -65 -234q31 31 106 74q43 14 84 30 q-2 6 -39 19q94 -8 117 2q-16 18 -29 23q35 2 103 34l-25 13q41 16 98 45l-37 12q18 2 35 8q41 14 66 43l-29 10q39 14 96 56l-34 14q31 8 77 47l-43 6q27 4 47 13q47 18 56 49l-39 10q16 4 28 12q31 18 46 45l-37 8q29 18 75 64q-16 -2 -32 0q-4 0 12 8q29 14 45 35l-45 14 q16 0 59 49q-20 2 -36 7q20 16 53 63l-31 4q31 47 43 92q6 27 27 58q35 55 39 59q23 39 32 141q-20 -45 -41 -79q-55 -88 -126.5 -130t-71.5 -81z" />
<glyph unicode="y" horiz-adv-x="962" d="M573 98q-61 0 -75 -28l14 49q-59 2 -86 -19l10 35l-24 4q-31 0 -62 -24q4 18 23 49q-23 6 -27 6q-20 0 -37 -20l13 26q-12 4 -27 8q-12 0 -31 -16l23 27q-2 2 -35 -7q12 4 39 15q0 2 -41 28q16 -4 43 -8q4 10 -41 74l33 -18q6 6 6 20q0 31 -27 90q12 -12 33 -35q2 2 6 15 q8 33 -12 100l37 -33q4 51 -6 121l28 -33q16 37 0 101l21 -13q0 31 -11 101l19 -13q6 152 27 279q-29 -45 -103 -123q-41 -33 -84 -68q12 -10 47 -2q-100 -31 -125 -55q23 -12 35 -10q-20 -12 -37 -25q-43 -31 -61 -61l28 -4q-78 -70 -92 -103l41 7q-18 -12 -35 -29 q-37 -41 -51 -96l33 8q-18 -16 -31 -37q-33 -51 -34 -115l38 19q-27 -49 -26 -109q0 -29 8 -51q8 23 23 45q-4 -14 -5 -41q0 -127 82 -176q-2 25 0 49q6 -20 41 -55q49 -49 101 -58l-17 41q-2 -4 56.5 -29.5t89.5 -23.5l-29 33q0 -2 27 -12q37 -16 73 -17l-22 43 q23 -18 65 -18q16 0 35 4q-8 8 -24 33q68 -8 106 6l-22 24q35 6 118 37q29 16 73 27.5t85 21.5q59 16 150 93q-137 -63 -263 -64q-23 0 -63.5 5t-63.5 5zM821 436l45 -18q-18 45 -53 114l39 -16q6 29 -41 80l23 -4q-12 25 -46 82l21 -6q-6 23 -78 252q-14 -86 -45 -136 q-29 -41 -55 -86q12 -4 43 13q-82 -51 -96 -99q25 0 34 4q-6 -6 -26 -45q-23 -45 -25 -67l27 6q-20 -39 -47 -98l37 12q-12 -14 -23 -29q-25 -37 -29 -76l31 9q-14 -14 -25 -29q-25 -37 -26 -72q14 2 37 6q-23 -25 -45 -83l39 16q-68 -61 -64 -103l39 7q-20 -18 -47 -86 l39 8q-23 -29 -51 -90q12 6 30 10q-4 -6 -8 -10q-25 -25 -35 -49l45 -3q-18 -18 -47 -65l39 2q-16 -20 -43 -78l31 2q-25 -49 -41 -104q-12 -45 -82 -123q-49 -68 -100 -135q-4 0 256 215q74 61 73 104q0 12 -4 19l33 -39q37 51 31 92l26 -27q23 25 23 66q0 16 -6 37 q18 -10 39 -39q20 27 20 55q0 18 -10 33l25 -17q18 31 18 66q0 25 -12 43l28 -20q14 18 15 51q0 29 -15 61q14 -8 35 -29q12 18 12 50q0 35 -20 75q14 -8 37 -26q18 45 -27 117l33 -19q8 8 8 27q0 41 -41 102q14 -8 39 -29q18 41 -37 119z" />
<glyph unicode="z" horiz-adv-x="876" d="M829 61q-133 -61 -364 -114l4 20q-88 -31 -131 -41l4 23q-82 -37 -139 -33l24 37q-82 -31 -116 -37l-5 -4h-4l-110 219l4 10l6 15q4 8 4 12l27 -45q12 133 57 176q2 -23 14 -55q12 143 70 186l16 -37q12 117 66 168q-2 -16 16 -47q10 76 56 129q33 41 39 41 q-10 -33 10 -51q31 94 88 143q-57 0 -180 29q-129 29 -203 29q-59 0 -174 -19q-104 -16 -101 -18q-53 12 76 45q117 31 168 32q29 2 131 5q72 0 117 10q76 12 186 6l-24 29q59 6 153 -19l-28 37q41 0 76 -8l8 6h2l2 -10q43 -16 49 -21l-25 45q35 -4 60 -12l24 -8l2 -2 l50 -213l-13 -4q-25 -14 -20 -15q23 0 41 5q-86 -66 -135 -93l47 -6q-90 -74 -125 -92l45 -4q-31 -53 -154 -117l53 8q-37 -49 -112 -100q25 -2 41 -4q-29 -43 -80 -84q-18 -16 -53 -39q2 -2 4 -2l28 2q-2 -4 -8 -12q78 -53 105 -78q-31 31 -27 47l141 -51q74 -29 217 -19z M475 776l8 -31q2 16 13 35q-9 0 -21 -4z" />
<glyph unicode="{" horiz-adv-x="579" d="M-238 809v0v0zM786 1663q-43 35 -120 119q-33 47 -74 94q-8 -10 -2 -47q-27 102 -74 133q-10 -23 -6 -37q-18 23 -39 41q-53 43 -119 51l15 -28q-47 16 -103 14q-43 -2 -91 -23.5t-62 -40.5q29 4 53 3q-33 -10 -78 -54q-61 -59 -70 -125l33 15q-66 -80 -59 -168l37 18 q-29 -59 -29 -108q0 -10 2 -21l35 37q-31 -59 -31 -117q0 -27 10 -45l31 29q-18 -74 4 -131l27 31q0 -10 4 -60q6 -55 12 -65q10 14 21 26q2 0 -4.5 -22.5t-6.5 -36.5l43 14q-18 -20 -22 -55q10 0 37 4q-4 4 -35 -64l31 -4q-27 -39 -72 -88q-33 -35 -152 -69 q-59 -16 -168 -74q96 16 369 74q145 51 127 129q14 -23 25 -45q2 -6 21.5 34.5t19.5 73.5q0 18 -7 33l33 -23q8 12 8 48q0 57 -36 100q39 0 53 -23q25 6 0 52q-27 43 -45 47h28q0 18 -6 34q-14 39 -41 56l35 -6q4 47 -45 96q27 2 43 -12q8 51 -43 104q16 -4 43 -14 q6 37 -45 94l35 -16q6 6 6 16q0 27 -35 72q12 -12 35 -29l-14 27q10 16 37 30l-19 -37q16 -2 82 21l-12 -21q31 2 100 11l-12 -17q114 -8 282 -55zM555 -88q-63 -6 -90 2q-2 -6 27 -35q-76 39 -84 64q0 -25 4 -35q-18 20 -33 47l-12 -25q4 -2 4 52l-27 -27l6 17q6 18 6 34 t-6 31l-24 -17q29 51 20 103q-14 -6 -35 -14q31 61 27 88l-37 -23q55 76 45 117l-37 -15q16 23 37 97l-37 -13q16 29 43 109q-6 -8 -30 -23q4 8 8 17q25 39 28 94q-29 -20 -45 -27q18 8 19 62q0 33 -13 74q-10 -20 -24 -39q-6 25 -10 49q-20 55 -52 78l-6 -37q4 4 -37 35 q-47 33 -84 39q-27 4 -102 28q-63 20 -104 21q-61 0 -144 -27q31 8 115 -6q133 -20 201 -94q39 -55 63 -70q12 -2 25 -4q-25 -4 -47 -14q2 -12 26 -41l-35 2q-4 -25 19 -60q-18 6 -45 25q-12 -33 -12 -37q0 -23 10 -47l-25 16q-12 -31 -12 -67q0 -35 14 -58l-30 19 q-8 -23 -9 -45q0 -41 25 -84q-14 0 -39 24q-6 -12 -6 -36q0 -53 37 -105q-16 4 -41 21q-10 -61 59 -136l-39 13q-6 -8 4 -39q16 -51 88 -107q-18 2 -51 15q4 -25 21 -45q33 -47 110 -78l-51 -13q20 -14 39 -26q51 -29 106 -29q20 0 41 4l-34 -30q18 -6 45 -7q55 0 96 35 l2 -22q2 -4 39 24.5t49 50.5l6 -20q84 76 168 229q-33 -20 -47 -28q-53 -31 -86 -31zM51 -102v0v0z" />
<glyph unicode="|" horiz-adv-x="565" d="M387 713q25 72 25 125l-29 -33q41 90 31 160l-27 -23q23 61 19 133l-27 -26q18 88 18 141q-8 -14 -20 -29q0 -2 -2 -2l8 29q8 37 10 74l-33 -23q16 27 17 109q-14 -14 -27 -25q10 66 6 121l-20 -21q0 78 -10 148q-4 25 -2 198q0 39 -31 207q4 -45 4 -92q0 -168 -35 -317 q-18 -74 -18 -123q0 -41 14 -53l-35 26q-10 -66 6 -117l-26 17q-4 -16 -4 -37q0 -41 18 -86q-29 6 -37 27q-4 -18 -4 -37q0 -39 17 -68l-21 10q-2 -20 -2 -39q0 -55 20 -90l-24 17q-4 -14 -4 -31q0 -45 22 -102q-18 0 -30 24q-2 -16 -2 -33q0 -51 26 -112q-25 10 -31 20 q-10 -47 33 -133l-26 17q-4 -10 -4 -25q0 -47 38 -127q-20 16 -30 29q-12 -43 35 -140l-35 19q8 -57 43 -139l-31 20q-2 -45 35 -113h-19q20 -63 43 -100h-16l98 -293q-2 113 13 187l26 120q-8 4 -31 -26q51 86 62 129q-18 -2 -29 -10q31 72 37 139l-20 -12q29 106 34 145 l-28 -23q31 61 33 152l-23 -16q31 63 29 151l-13 -8q-2 -2 -14 -10z" />
<glyph unicode="}" horiz-adv-x="604" d="M573 758q55 16 168 73q-92 -16 -362 -69q-143 -45 -129 -121q-14 25 -23 45q-2 6 -23.5 -34t-21.5 -74q0 -14 4 -25l-32 22q-10 -18 -11 -55q0 -51 33 -92q-20 0 -53 25q-2 -6 -4 -13q8 -27 22.5 -58.5t24.5 -35.5h-29q2 -18 8 -33q12 -37 41 -53l-34 4q-4 -43 45 -92 q-27 -2 -43 12q-8 -49 45 -102q-16 4 -43 14q-6 -35 45 -92l-35 14q-4 -6 -4 -16q0 -29 35 -76q-12 10 -35 29q-6 -8 16 -41q-8 -6 -22 -27q6 14 14 39q-4 0 -74 -26l10 22q-27 -4 -94 -14l13 16q-113 8 -279 53q41 -33 117 -116q33 -47 74 -94q6 8 0 45q29 -100 77 -131 q6 27 4 38q0 -8 41 -41q57 -43 131 -43l-20 25q57 -10 111 2q96 20 139 84q-25 -6 -51 -8q25 8 63 53q51 59 60 123l-33 -14q59 76 53 159l-37 -18q27 57 27 104q0 12 -2 21l-33 -35q29 57 29 113q0 27 -11 45l-30 -29l-6 129l-27 -31q-4 51 -12 113q-10 -12 -23 -22 q-2 0 5 20t9 35q-23 -4 -43 -12q10 8 23 51q-20 2 -35 0q10 16 35 59l-29 6q-4 2 74 84q30 33 147 66zM453 1743v0v0zM432 926q-41 57 -65 71q-10 2 -23 4q25 4 45 15q-2 10 -27 41l37 -2q4 25 -18 59q18 -8 45 -27q12 35 12 39q0 23 -12 48l25 -17q14 31 14 68q0 35 -16 57 l30 -18q8 23 8 45q0 41 -22 84q12 0 39 -27q4 14 4 37q0 53 -37 106q16 -4 43 -20q8 61 -59 133l37 -12q8 8 -3 41q-16 51 -88 106q18 -2 52 -14q-4 23 -21 45q-35 47 -113 76l52 14q-18 12 -37 27q-53 29 -107 28q-23 0 -43 -6l35 33q-18 6 -45 6q-53 0 -96 -35v23 q-4 4 -40 -24.5t-50 -51.5l-4 20q-84 -76 -170 -229q33 20 47 29q55 31 88 31q63 6 90 -3q0 6 -29 35q78 -39 86 -63q0 12 -4 35q16 -20 33 -47l10 24q-2 2 -2 -53l27 29q-2 0 -7.5 -17.5t-5.5 -34.5q0 -16 5 -32l26 16q-29 -51 -20 -100q12 6 35 14q-31 -61 -27 -88l37 22 q-55 -76 -47 -116l39 14q-18 -25 -37 -98l37 14q-18 -31 -45 -109q8 8 30 23l-8 -16q-25 -39 -29 -95q29 18 45 27q-18 -8 -18 -63q0 -31 14 -72q10 20 25 37q4 -25 10 -47q18 -55 51 -78l4 37q-4 -4 40 -36t83 -38q25 -4 103 -29q63 -20 102 -20q63 0 143 24q-29 -6 -112 6 q-133 23 -201 95z" />
<glyph unicode="~" horiz-adv-x="1316" d="M1399 1128q0 -37 -31 -116q-51 -131 -141 -174q-82 -18 -103 -50q8 25 11 50q-37 4 -68 -9l16 33q-14 12 -41 12q-20 0 -45 -8q10 16 37 39q-25 20 -53 21q-14 0 -29 -6l19 22q-41 29 -82 29q-14 0 -27 -4l27 24q-41 37 -121 29q4 12 37 27q-37 31 -96 30q-23 0 -47 -6 q10 14 34 31q-18 16 -63 16q-39 0 -86 -16l26 31q-8 14 -53 14q-51 0 -119 -35q10 14 37 39q-29 4 -28 4q-61 0 -131 -59l14 49q-25 -10 -47 -21q-55 -33 -90 -84l2 45q0 8 -33 -23.5t-47 -84.5l-15 18q-16 -37 -30 -114l-15 14q-33 -113 -18 -293q-2 2 25.5 56.5t56.5 72.5 q37 35 80 53q-4 6 -45 13q74 10 116 6q-8 10 -26 24q74 -2 90 0l-14 23q0 4 38.5 -8.5t43.5 -12.5l-15 33q0 -2 27 -18q31 -23 63 -23q-2 10 -6 29q0 -2 25 -27q33 -29 65 -35v37q20 -25 80 -61l-10 43q16 -25 31 -43q39 -43 73 -49v41q10 -16 25 -29q35 -33 72 -45l-7 41 q35 -31 117 -76q-6 8 -18 35q8 -6 16 -10q33 -31 76 -45l-10 49q14 -10 30 -21q41 -20 82 -22q-8 10 -22 35q29 -8 69 -9q39 0 70 13q-10 4 -33 20q2 -8 53.5 21.5t71.5 66.5q31 47 90 160q18 43 19 121q2 65 0 67z" />
<glyph unicode="&#xa1;" horiz-adv-x="540" d="M465 1624q-12 -8 -23 -12q25 23 25 55q0 12 -6 21q-10 -8 -21 -15q18 31 -10 62q-6 -12 -12 -21q-8 43 -31 53q0 -10 -2 -20q0 2 -2 2q-8 23 -27 33q0 -8 -2 -17q-2 2 -8 4q-18 14 -47 21q0 -4 10 -21q-37 37 -61 29q4 -8 14 -18q-39 14 -67 -17l16 -8q-2 4 -28.5 -15.5 t-30.5 -31.5q12 2 26 2q-41 -14 -37 -70l19 11q-16 -16 -17 -47q0 -16 11 -33q6 8 18 18q-2 -12 -2 -24q4 -27 18 -37q0 4 2 10q2 -4 5 -8l4 4q4 -16 12 -29.5t14 -17.5v4q6 -4 15 -4v8q23 -25 47 -25l-4 11q6 -2 12 -2q0 2 -2 4q45 -14 61 -8l-12 12q4 2 6 2l-2 2 q39 -6 66 20l-19 9q45 -4 64 47q-10 2 -27 2q39 24 35 55zM414 809l35 -14q4 6 4 18q0 37 -45 94q14 -8 38 -26q14 37 -40 106l47 -18q-14 39 -50 104l37 -16q4 37 -39 84l25 -2q-14 25 -51 78l20 -3q-27 57 -53 115q-29 68 -39 131q-10 -51 -43 -147q-23 -43 -45 -84 q12 -4 43 14q-39 -31 -90 -86q25 -2 37 2q-23 -25 -55 -96l26 4q-23 -39 -49 -102l37 14q-12 -14 -23 -31q-25 -37 -24 -78l28 11q-45 -51 -43 -107l37 8q-39 -55 -35 -88l37 23q-49 -57 -49 -101q0 -8 2 -14l39 14q-33 -51 -29 -96l35 17q-27 -70 -24 -103q8 10 24 21 q-2 -6 -4 -15q-16 -29 -18 -57l43 14q-25 -25 -23 -78q18 8 35 15q-14 -53 -10 -88l28 14q-2 -57 11 -108q6 -18 2 -146q-2 -53 37 -151q-14 174 45 295q27 51 26 86q0 33 -18 40l45 -20q14 45 -6 84l35 -14q6 12 6 30q0 29 -23 60q39 -6 49 -23q6 14 7 29q0 27 -21 49 l27 -10q14 63 -21 94l33 -12q16 41 -23 96q25 0 39 -18q6 10 6 26q0 39 -34 80q33 -10 41 -18q12 39 -39 100z" />
<glyph unicode="&#xa2;" horiz-adv-x="1091" d="M559 119q-86 31 -145 59q-39 18 -43 19q27 6 47 14q-20 27 -86 92q31 -2 41 0q-66 115 -88 137q41 4 59 -14q-6 27 -14 45q-18 51 -51 76l30 -4q-6 33 -16 61q-20 66 -43 90l35 -14q2 72 -39 160q12 2 39 -27q14 78 -15 174q14 -10 35 -33q20 14 4 162l25 -33 q27 16 51 170q4 -18 10 -53q20 6 86 137l6 -51q20 25 119 105l-14 -41q8 -6 123 45l-6 -23q68 12 135 14l-10 -20q180 -20 389 -197q-90 125 -179 232q-63 76 -151 139q-8 -8 16 -47q-29 37 -80 78q-66 53 -110 59q0 -25 14 -39q6 2 -51 21q-66 18 -125 18q-49 0 -92 -14 l31 -19q0 10 -117 -26.5t-146 -69.5h58q-31 -8 -74 -37q-88 -57 -139 -145l41 12q-29 -31 -58 -61q-63 -78 -86 -168l45 20q-4 4 -36 -69q-35 -82 -35 -135l41 51q-51 -86 -51 -207q0 -35 8 -62l33 43q-6 -39 -7 -86q0 -74 21 -133l22 49q10 -150 47 -221q0 29 7 54 q2 6 6 -31q10 -66 39 -123l22 51q2 -18 4 -39q14 -53 66 -125q2 16 4 54q18 -31 37 -62q51 -66 108 -88l-18 43q-6 -4 57 -29q72 -27 129 -26q23 0 41 2q68 14 137 26q80 18 148 44t160 102q76 63 77 74q-39 -37 -141 -89q-158 -82 -297 -81q-47 0 -90 10zM1087 281v-2 q2 2 0 2zM737 1087q-2 -2 -2 -4v2q0 -4 8.5 38t10.5 83l-27 -28q16 43 16 129q-12 -14 -22 -29q10 88 6 143l-16 -26q0 104 -7.5 173.5t-17.5 231.5q-6 100 -47 236q23 -125 23 -287q0 -104 -12.5 -185t-12.5 -134q0 -57 12 -72l-26 28q-8 -86 2 -135l-21 19q-12 -68 6 -142 q-23 8 -26 33q-14 -76 4 -121l-17 13q-14 -100 2 -148l-18 19q-14 -68 0 -152q-14 0 -20 29q-18 -74 -3 -166q-16 14 -20 27q-14 -61 2 -156l-18 22q-10 -29 -11 -86q0 -41 7 -88q-14 23 -19 39q-18 -53 -8 -164l-23 29q-10 -78 -8 -162l-18 27q-16 -57 -13 -129l-12 4 q-8 -96 -6 -119l-12 4q-25 -182 -68 -342q31 66 105 197q55 92 71 125q-6 6 -35 -23q41 45 99 131q-14 2 -25 -4q27 39 76 152l-18 -10q55 117 67 161l-27 -22q23 35 64 174l-23 -19q20 39 56 175q-10 -6 -25 -19q16 43 39 146l-27 -37q49 117 48 186l-25 -25q12 37 29 156 l-25 -29q12 55 25 166q-7 -19 -17 -35z" />
<glyph unicode="&#xa3;" horiz-adv-x="1323" d="M1341 -113q-43 68 -57 121q-23 84 -29 94q-4 -4 -16 -36q8 84 -14 120q-14 -18 -19 -30q4 2 -15.5 43t-45.5 65l-8 -28q4 2 -35 45t-55 51l4 -41q-10 18 -27 33q-39 35 -88 45l8 -31q-4 8 -35 27q-45 29 -90 24l15 -35q-53 29 -89 29q-8 0 -16 -4l29 -33q-70 29 -94 29 q-25 0 -39 -8l24 -31q-61 14 -104 -6l28 -27q-47 -4 -106 -18l33 -17q0 -16 -35 -12l-43 2l33 -33q-33 12 -78 -16q8 -6 31 -23q-47 -10 -76 -36l26 -17q-49 -29 -75 -67q-6 -6 -101 -84q-37 -31 -73 -123q31 35 61 63q80 66 162 76q94 14 94 59l8 -49q41 12 58 43l6 -35 q37 0 55 50q10 -37 6 -52q12 0 21 4q20 8 26 35l4 -28q12 2 25 8q25 12 33 39v-35q29 -6 61 43q4 -29 -6 -41q4 -6 20 -2q23 8 48 43q-2 -16 -11 -43q10 -18 66 43l-12 -33q10 -20 79 33q-8 -14 -26 -37q4 -14 82 20l-31 -36q4 0 90 12l-33 -25q8 -6 35 -6q18 0 43 4 l-18 -16q51 -4 86 -2l-19 -12q106 -27 219 -95zM905 836q-66 -4 -108 6l-72 20q-2 -6 16 -24q-51 39 -77 47q2 -14 6 -21q-41 23 -82 27l6 -14q-31 10 -84 24l12 -22q-35 25 -90 24l10 -18q-37 25 -88 22l6 -16q2 -2 5 -4q-43 18 -74 16l18 -20q-53 31 -94 22l14 -20 q-37 16 -79 12l14 -20q-51 14 -82 12q8 -4 16 -15q-8 10 -59 13l14 -27q-16 14 -65 12q8 -12 14 -20q-39 6 -72 2l13 -14q-45 0 -86 -11q-16 -4 -119 -4q-23 0 -121 -24q31 2 64 2q94 0 178 -25q43 -12 71 -12q25 0 33 12l-16 -28q39 -6 69 6l-10 -21q10 -4 21 -4 q25 0 51 17q-4 -23 -15 -31q10 -4 21 -4q25 0 41 16l-6 -18q47 -6 76 16l-9 -20q6 -2 17 -2q27 0 61 18q0 -14 -14 -25q8 -2 18 -2q31 0 68 25q-6 -20 -12 -27q27 -6 79 29l-10 -23q4 -2 13 -2q29 0 75 33q-8 -18 -16 -26q25 -8 82 30l-10 -28q35 6 81 34l-12 -24 q27 -2 68 28v-14q37 18 59 35v-12zM803 1430v4q-2 -2 0 -4zM1090 1378q-8 104 -54 193q-12 -6 -12 -68q0 20 -23 99q-18 43 -64 83.5t-87 49.5q0 -10 12 -41q-41 23 -137 22q-111 0 -166 -47l37 -14q-8 6 -100.5 -49.5t-108.5 -81.5l57 2q-33 -16 -61 -39q-70 -53 -104 -127 l43 6q-29 -20 -54 -47q-55 -63 -75 -137l49 10q-78 -90 -84 -164l53 37q-2 8 -43 -59.5t-41 -143.5q0 -23 4 -47q14 10 43 27q-8 -23 -14 -43q-12 -55 -8 -103l41 29q-14 -53 -33 -160q8 8 33 31l4 2q2 0 -13 -31q-20 -43 -26 -82l55 19q-10 -10 -18 -27q-18 -37 -27 -92 l45 18q-16 -39 -41 -135l37 15q-14 -49 -45 -172q-20 -76 -127 -203q-170 -197 -176 -197q23 8 139 105q158 131 258 256q88 113 88 182q0 27 -8 35l45 -49q29 59 29 120q0 18 -4 35l38 -28q16 35 17 79q0 43 -19 86q43 -12 56 -43q12 35 12 70q0 47 -25 76l35 -17 q18 119 -30 177l40 -19q6 20 3 51l-5 29q-2 4 -4 18q-2 -8 -4 -26q-4 23 -20 59q16 -8 43 -33q12 23 12 60q0 43 -20 96q18 -12 43 -37q10 18 10 56q0 43 -15 96l31 -33q27 43 27 105q0 29 -2 61q10 -16 24 -53q33 12 39 147l29 -53q10 23 45 125q2 -27 8 -49q2 0 37 63 l-10 -24q33 29 94 4l-23 -13q115 -59 252 -295q-13 76 -36 248z" />
<glyph unicode="&#xa5;" horiz-adv-x="1257" d="M780 596q43 80 35 160q-14 -8 -35 -21q31 84 23 133l-35 -39q6 16 16 39v6l-34 101q-20 63 -54 90l-14 -41q-6 20 -14 41q-20 47 -50 76l-12 -39q-18 43 -67 123q2 -16 -2 -39q-2 -6 -9 18q-14 43 -36 74l-21 -45q0 20 -49 100q-6 -20 -12 -39q-16 33 -66 101l-10 -33 q-25 35 -96 113q-23 20 -113 163q-27 43 -137 164q2 4 69 -121q76 -143 113 -258q43 -141 100 -145l-53 -6q10 -20 21 -37q27 -39 55 -53l-37 -8q25 -37 90 -89q-33 -16 -57 -6q8 -20 18 -35q27 -35 62 -40l-29 -9q12 -23 29 -39q35 -43 71 -49l-37 -8q25 -29 66 -68v-6 q2 -2 6 -8l-6 12q20 -12 41 -18q-10 -10 -27 -10q8 -14 19 -29q-6 2 -13 4l-8 25q-10 0 -18 4q2 -6 14 -25q-14 6 -18 11q-6 -53 49 -129l-35 16q-4 -6 -4 -21q0 -49 53 -125q-16 8 -43 29q-10 -49 45 -137l-45 20q16 -55 49 -137l-39 21q-4 -49 35 -113l-22 4 q10 -33 43 -104l-21 4q35 -141 35 -238q0 -45 -6 -90q29 63 90 189q31 59 62 120q-16 -6 -46 -20q82 70 99 123q-23 2 -37 -6q16 25 29 47q29 53 32 96l-26 -10q45 113 49 149l-37 -22q45 74 43 157zM461 856v0v0v0zM754 958v0v0v0zM483 801q-4 4 -8 16l6 -16h2zM1202 1788 q-27 35 -61 -64q-43 -125 -76 -147q-61 -39 -61 -74q0 -10 6 -18l-31 39q-33 -33 -31 -66l-24 27q-23 -14 -23 -49q0 -12 2 -25q-27 25 -33 43q-25 -16 -24 -43q0 -10 4 -22l-19 22q-29 -25 -28 -57q0 -10 4 -23l-21 29q-27 -55 -24 -84q-10 8 -23 37q-29 -47 -28 -64 q0 -14 4 -30q-20 25 -27 36q-16 -33 -16 -51q0 -20 4 -45l-21 31q-23 -8 -22 -57q0 -20 4 -48q-18 27 -23 41q-18 -27 -18 -57q0 -20 4 -45l-29 39q-14 -43 -6 -105l-24 33q-20 -27 -6 -86l-19 17q0 -55 8 -88l-16 14q0 -94 2 -232q18 33 76 86q35 20 71 41q-12 4 -43 11 q45 2 111 16q-20 14 -33 18q31 6 88 41l-24 11q37 16 88 47l-37 10q53 6 88 53l-29 8q35 16 86 56l-37 12q29 8 72 47l-43 4q25 6 43 15q43 18 49 47l-37 8q14 6 27 14q29 18 39 43l-37 6q27 18 68 64q-14 -2 -31 -2q-4 0 10 8q27 14 41 37l-43 10q14 2 53 49q-20 2 -36 6 q18 14 47 64l-31 2q27 43 33 90q4 25 20 55q27 47 31 60q18 45 12 135zM1325 575q-82 -2 -135 11l-88 22q-4 -6 18 -24q-61 41 -94 49q2 -14 8 -23q-53 25 -102 31l8 -16q-78 23 -104 26l16 -22q-45 25 -111 26l13 -18q-47 25 -111 25l8 -15q2 -4 4 -6q-51 20 -90 18l23 -22 q-66 33 -117 27l16 -23q-45 18 -96 16l19 -20q-63 14 -103 12q10 -4 21 -14q-12 10 -74 12l16 -24q-18 12 -77 12q8 -10 16 -21q-49 8 -88 4l14 -16q-57 2 -108 -6q-18 -4 -146 -2q-29 0 -149 -23q152 10 299 -26q53 -14 90 -15q29 0 37 11l-19 -27q47 -8 84 4l-10 -20 q12 -4 27 -4q29 0 61 14q-4 -23 -20 -29q16 -4 30 -4q27 0 47 12l-8 -16q16 -2 31 -2q39 0 63 16l-10 -20q10 -2 23 -2q33 0 73 16q0 -14 -16 -22q10 -4 23 -4q39 0 81 22q-8 -20 -14 -24q33 -8 98 24l-12 -20q6 -4 17 -4q35 0 94 30q-12 -16 -23 -24q31 -8 103 26l-15 -26 q43 6 103 32l-15 -24q33 -2 84 27l-2 -15q47 16 74 35v-12zM1120 834q-55 16 -92 16q-29 0 -37 -12l19 28q-47 8 -84 -4l10 21q-10 4 -27 4q-29 0 -61 -15q4 23 20 29q-14 4 -28 4q-29 0 -49 -14l8 16q-16 2 -31 2q-39 0 -63 -14l10 18q-8 4 -23 5q-33 0 -74 -19q0 14 19 25 q-12 2 -25 2q-37 0 -82 -21q8 18 17 25q-35 8 -101 -27l15 21q-8 4 -19 4q-35 0 -92 -31q10 16 21 25q-31 10 -103 -27l15 29q-43 -6 -103 -33l15 22q-33 2 -82 -26v14q-47 -16 -74 -35v15l-215 -78q82 2 137 -10l86 -21q4 6 -18 25q63 -41 94 -49q-2 14 -6 20 q51 -25 100 -29l-8 17q78 -25 104 -29l-16 23q45 -25 113 -27l-13 18q47 -25 109 -24l-8 16q-2 4 -4 6q51 -20 92 -20l-25 22q66 -33 117 -26l-16 22q45 -16 96 -14l-19 20q66 -14 105 -14q-12 6 -23 14q12 -10 74 -12l-16 27q20 -14 79 -15q-10 12 -18 23q49 -10 90 -6 l-16 16q57 0 108 8q18 2 146 0q29 0 151 23q-154 -10 -299 27z" />
<glyph unicode="&#xa6;" horiz-adv-x="638" d="M395 1456l4 12q14 27 17 54l-33 -13q20 20 20 70q-8 -4 -26 -12q12 43 6 78l-21 -15q0 27 -14 94q0 6 -14 125q-6 45 -53 123q23 -74 22 -143q0 -39 -16.5 -96.5t-16.5 -81.5q0 -31 15 -37l-35 16q-8 -43 4 -69l-25 12q-16 -33 9 -74q-27 8 -35 21q2 -31 6 -64l-21 10 q-14 -51 9 -77l-25 12q25 90 27 55q2 -33 -21 -139q-10 2 -26 20q-8 -14 -9 -34q0 -29 17 -60q-12 6 -29 19q-12 -35 21 -93l-25 17q-6 -8 -6 -25q0 -33 29 -80q-12 6 -31 23q-12 -35 28 -96l-34 14q14 -35 41 -94l-31 14q0 -35 37 -74h-17q12 -23 47 -63h-16 q43 -70 125 -170q-18 76 -8 113l18 73q-10 0 -28 -18q25 29 55 78q-18 0 -27 -7q14 23 35 80l-20 -4q16 31 34 80l-26 -10q16 16 39 84l-25 -6q18 16 43 82q-23 -4 -29 -4q16 18 35 69l-30 -14q53 53 49 92l-31 -8q16 18 33 82l-29 -13q14 29 29 91q-9 -11 -21 -19zM471 584 q2 6 6 12q16 23 23 45l-35 -6q12 23 29 63q-14 -4 -29 -8q20 43 16 72l-20 -8q4 59 0 93t-6 116q0 41 -39 120q10 -45 10 -94q0 -84 -33 -143q-23 -43 -22 -72q0 -16 10 -26l-33 18q-12 -41 -4 -64l-22 13q-20 -29 0 -70q-27 10 -33 25q-10 -16 -10 -33q0 -16 8 -29l-19 13 q-10 -23 -10 -46q0 -18 8 -32l-20 16q-20 -29 -2 -82q-12 10 -25 23q-12 -14 -12 -41q0 -23 12 -51q-23 14 -26 22q-18 -33 10 -90l-23 16q-8 -8 -8 -28q0 -29 23 -72q-10 6 -27 25q-16 -33 20 -95l-34 19q2 -23 32 -94l-28 16q-4 -35 28 -74h-18q10 -20 43 -63h-16 q35 -68 104 -172q-8 74 5 107.5t26 66.5q-10 2 -31 -15q29 27 63 70q-18 0 -26 -2q33 39 41 72l-21 -4q18 29 43 73l-28 -8q18 14 45 76l-23 -4q18 16 47 76q-12 0 -28 -2q18 16 41 61l-33 -10q57 45 55 82l-29 -4q16 14 39 71l-28 -8q16 27 37 82q-5 -4 -23 -14z" />
<glyph unicode="&#xa7;" horiz-adv-x="1335" d="M1051 1536q61 -29 182 -55q-6 2 -109 59q-123 70 -217 137q-70 49 -121 49q-29 0 -41 -12l29 41q-25 10 -59 10q-37 0 -60 -14l15 37q-72 16 -133 -39q0 41 20 55q-23 -2 -47 -6q-51 -14 -70 -53v31q-31 -14 -59 -29q-59 -43 -64 -90l-10 37q-18 -18 -39 -37 q-39 -53 -37 -127q-27 10 -24 45q-8 -14 -17 -27q-16 -39 -16 -80q0 -45 23 -88q-16 6 -41 29q-2 -8 -2 -25q0 -76 63 -141l-39 12q2 -33 8 -45q25 -57 103 -100q-18 0 -53 8q4 2 10 4q33 -43 43 -55q35 -39 76 -51l-50 -15q18 -14 39 -26q53 -27 109 -35l-41 -18 q47 -37 123 -27l-13 -21q70 -8 113 7l-8 -19q141 4 287 58q-31 4 -58 10q-61 14 -88 37q-53 39 -76 65q-2 -2 -4 -8q-2 -14 7 -39q-18 47 -50 115q-14 -23 -14 -35q-12 33 -49 94l-12 -24q-4 0 -31 94l-21 -31q4 59 -12 96l-22 -20q12 27 16 84l-35 -10q14 18 31 55l-39 -8 l31 17q30 18 28 30l-34 14q18 2 55 27l-29 20q27 4 78 17l-27 20l23 -5q22 -5 45 -3l-21 41q27 -18 78 -14q-4 10 -16 34q51 -14 94 -14l-12 29q35 -6 127 -15q41 -2 164 -57zM1223 573l47 -16q0 104 -135 197q20 -2 63 -15q0 14 -24 49q-45 59 -140 95l62 14q-25 23 -54 39 q-70 41 -145 53l51 23q-53 41 -129 41q-20 0 -43 -4l12 26q-100 6 -155 -22l8 24q-195 -33 -346 -172q72 23 137 23q37 0 60 -10q61 -23 112 -56q6 18 -16 53q4 2 39 -53q39 -63 45 -74q14 31 12 43q18 -39 72 -114l12 31q10 2 47 -125l25 41q-2 -86 20 -138l27 25 q-16 -70 -17 -100q0 -14 2 -27q16 6 41 16q2 -2 -17 -37.5t-19 -50.5q27 4 47 15q0 -4 -39 -32t-39 -42l43 -17q-27 -8 -76 -34q16 -14 35 -25q-2 4 -109 -16q6 -4 31 -25q2 -2 2 -4l-27 6q-37 10 -69 10l24 -51q-14 12 -110 27q4 -12 20 -43q-80 23 -129 31l15 -39 q-72 16 -160 49q-70 25 -182 149q-174 195 -177 193q8 -29 86 -150q109 -168 224 -282q100 -100 178 -101q27 0 43 13q-14 -16 -43 -47q53 -18 102 -19q33 0 58 10l-23 -41q20 -8 55 -8q63 0 125 39q-2 -14 -6 -24q-10 -29 -28 -41q31 2 61 4q72 14 102 59l-4 -39 q41 16 82 35q86 51 98 113l9 -48q27 25 53 50q57 74 57 170q31 -10 29 -58q10 20 18 39q23 51 23 105q0 59 -27 114q18 -10 49 -37q2 14 2 29q1 98 -77 184zM829 731q61 -29 183 -53q-6 0 -107 57q-123 72 -217 137q-72 51 -123 52q-27 0 -41 -15l31 43q-25 8 -61 9 q-37 0 -60 -13l15 35q-70 16 -132 -37q-2 39 19 53q-23 -2 -45 -4q-53 -16 -72 -55v31q-29 -14 -57 -29q-59 -41 -66 -88l-10 37l-37 -37q-41 -55 -39 -127q-25 8 -24 43q-8 -12 -15 -27q-16 -39 -16 -79q0 -45 20 -89q-16 8 -41 31q-2 -8 -2 -26q0 -76 64 -140l-39 13 q4 -33 8 -45q25 -57 103 -103q-18 0 -54 8q0 -12 21 -34q37 -45 108 -66l-49 -16q18 -14 41 -25q51 -29 107 -37l-41 -18q47 -37 123 -27l-13 -20q72 -8 115 8l-10 -21q141 6 286 60q-29 4 -55 10q-63 14 -90 35q-53 41 -76 65l-2 -8q-2 -14 4 -39q-16 49 -49 115 q-12 -20 -12 -33q-14 31 -51 92l-13 -22q-4 0 -30 94l-21 -33q4 59 -12 96l-23 -18q12 25 17 82l-35 -10q14 20 31 55l-39 -6l30 18q31 17 29 29l-35 12q20 4 58 27l-29 20q25 4 76 17l-27 20l24 -4q23 -4 44 -2l-21 39q29 -16 80 -14q-6 10 -18 34q51 -14 96 -14l-14 29 q35 -4 127 -12q42 -3 163 -60zM1092 -360l47 -17q0 104 -138 197q23 -2 66 -17q0 14 -25 50q-47 59 -141 96l64 14q-25 20 -54 39q-70 41 -147 53l51 21q-51 41 -127 41q-20 0 -43 -4l12 26q-100 6 -155 -22l6 24q-195 -33 -344 -172q72 23 137 23q37 0 59 -8 q61 -25 113 -56q6 16 -16 54q4 0 39 -56q37 -63 45 -71q14 29 12 41q18 -37 72 -113l12 31q10 0 47 -127l25 41q-2 -86 20 -138l27 27q-16 -70 -17 -100q0 -16 2 -29q16 6 41 16l-18 -36q-19 -35 -19 -52q27 6 46 15q2 -2 -37 -31t-39 -43l43 -16q-27 -6 -76 -33 q16 -14 35 -27q-2 6 -109 -16q6 -4 31 -25l2 -2q0 -2 -27 6q-37 8 -69 8l24 -49q-14 12 -110 25q4 -12 20 -41q-80 20 -129 29l15 -37q-72 16 -160 47q-70 27 -182 149q-174 197 -177 193q8 -27 86 -150q109 -168 224 -282q100 -98 178 -99q27 0 43 11q-14 -16 -43 -45 q53 -18 102 -19q33 0 58 8l-23 -41q20 -8 55 -8q63 0 123 41q0 -14 -4 -26q-10 -29 -29 -39l62 4q72 12 102 57l-4 -37q41 16 82 33q86 51 98 115l9 -49q27 27 53 51q57 74 57 170q31 -10 29 -58q8 18 18 37q23 51 23 105q0 59 -27 114q18 -8 49 -36q2 16 2 28q1 99 -77 187 z" />
<glyph unicode="&#xa8;" horiz-adv-x="878" d="M324 2017q6 55 -37 70q14 0 26 -2q-4 12 -30.5 31.5t-26.5 15.5l16 8q-31 31 -69 17q6 4 14 18q-25 6 -61 -29q8 12 10 21q-12 -2 -47 -21l-8 -4q-2 8 -2 17q-18 -10 -27 -33l-2 -2q-2 10 0 20q-27 -12 -31 -53q-8 8 -14 20q-29 -31 -10 -61q-10 6 -21 14q-6 -8 -6 -20 q0 -33 27 -55q-12 4 -25 12q-4 -33 35 -55q-4 0 -25 -2q16 -51 62 -48l-19 -8q27 -27 66 -20l-2 -2q2 0 6 -2q-6 -6 -12 -13q16 -6 61 9q0 -2 -2 -5q6 0 12 3l-4 -11q25 0 47 25v-8q8 0 15 4q0 -2 2 -4q6 4 13 17t11 30l4 -4q0 2 4 8q2 -6 2 -10q14 10 19 37v24q2 -4 18 -18 q8 16 9 32q0 31 -17 48zM817 2017q4 55 -37 70q14 0 27 -2q-4 12 -31.5 31.5t-27.5 15.5l16 8q-31 31 -68 17q6 4 15 18q-25 6 -64 -29q10 12 12 21q-14 -2 -47 -21l-8 -4q-2 6 -4 17q-18 -10 -25 -33q-2 0 -4 -2q-2 10 0 20q-25 -12 -30 -53q-6 10 -13 20q-29 -31 -12 -61 q-10 6 -20 14q-6 -8 -7 -20q0 -35 27 -55q-10 4 -22 12q-4 -33 32 -55q-4 0 -24 -2q18 -51 63 -48l-20 -8q27 -27 65 -20v-2q2 0 6 -2q-8 -6 -14 -13q16 -6 62 9v-5q6 0 10 3l-2 -11q25 0 47 25v-8q6 0 14 4v-4q6 4 14.5 17t12.5 30q2 -2 2 -4q2 2 6 8q0 -6 2 -10 q14 10 16 37v24q4 -4 19 -18q8 16 8 32q0 31 -14 48z" />
<glyph unicode="&#xa9;" horiz-adv-x="1335" d="M1053 1194q2 0 43 -74q51 -98 88 -202q53 -152 53 -306q0 -174 -74 -290q-84 -135 -162 -207q-8 -10 -75 -60q12 23 20 47q2 -6 -72 -36q-82 -35 -139 -48l25 31q-49 -6 -223 21q25 18 57 14q-2 -2 -55 31q-72 43 -117 67h31q-2 0 -70 70q-82 86 -115 117l37 -11 q-6 -10 -125 232q20 6 41 -35l-16 80q-23 102 -39 203q12 -12 31 -43q0 47 18 270l14 -39q2 -2 27 64q39 104 90 219q-2 -20 -12 -66q2 0 43 55q59 80 139 162l-12 -49q-2 4 63 45q82 53 174 76l-34 -31q45 8 217 -2l-9 -16q35 -12 68 -25q74 -33 104 -74l-14 -8 q82 -102 141 -291q45 -164 93 -325q-33 203 -54 430q-8 98 -51 207q-35 94 -41 90q-10 -2 15 -80l-15 39q-16 49 -47 88q-51 86 -178 145q0 -8 16 -32q-23 16 -86 36q-90 27 -172 27q-63 0 -119 -16l31 -8q-45 -2 -174 -58q-145 -63 -174 -108q18 8 66 22q-49 -35 -97 -69 q-111 -96 -174 -226l41 31q-66 -98 -65 -98q-70 -129 -84 -265q12 18 32 43q-4 4 -20 -75q-16 -90 -16 -164q0 -47 6 -84q6 27 16 80q-6 -70 6 -172q20 -145 78 -228l-4 70q20 -51 41 -100q55 -117 135 -195l-26 68q4 -14 86 -103q100 -106 182 -143q-18 12 -64 57l-4 8v0 q-2 0 34 -27.5t83 -49.5q66 -31 141 -39q-12 6 -59 41l29 -11q43 -14 98 -14q72 0 158 27q-18 0 -64 6q33 2 111 33q104 43 157 102q-10 -4 -51 -18q31 18 92 94q82 100 105 190q41 158 41 285q0 84 -17 174q-18 117 -110 283q-86 155 -88 141zM735 319q-39 27 -88 58l35 2 q-12 27 -57 78l30 2q2 0 -10 29.5t-43 54.5q29 2 43 -8l-7 29q-7 30 -30 46l23 -4q-2 18 -6 35q-6 41 -27 61l27 -10q6 51 -19 105q10 0 29 -21q14 51 -4 115q10 -6 24 -23q14 29 2 109l19 -23q23 16 29 111q4 -10 10 -33q12 -8 41 84q2 -16 8 -35q2 10 47 47 q-12 -14 -16 -24q4 2 65 -4l-14 -13q0 2 80 -38l-13 -7q98 -70 152 -239l-2 65q-4 78 -10 125q-14 96 -33 127q-4 0 -10 -41q4 6 -6 64q-12 70 -41 96q-8 -14 -9 -29q-10 27 -47 60q-59 51 -135 47l19 -17q-6 2 -19 3q-41 0 -104 -19q-70 -20 -84 -41h43q-27 -14 -54 -26 q-59 -39 -90 -97l31 6q-23 -16 -41 -36q-41 -49 -55 -107l31 10q-16 -25 -27 -43q-27 -49 -29 -84l33 33q-49 -80 -49 -147q0 -12 2 -23l29 25q-16 -35 -17 -90q0 -29 6 -54l23 31q-2 -51 14 -149q2 8 10 34q2 4 2 -20q2 -45 21 -84l20 35q-4 -2 0 -27q6 -39 37 -80 q2 8 8 33q14 -35 72 -109l-4 31q8 -12 37 -31q39 -25 76 -24q20 0 37 8q88 39 159 107q33 33 68 102q27 59 24 65q-27 -53 -79 -112q-93 -103 -187 -101zM1001 532v0v0z" />
<glyph unicode="&#xaa;" horiz-adv-x="851" d="M776 1257q35 49 35 107q0 16 -4 33l-31 -21q10 31 10 68q0 41 -14 67l-16 -43q6 47 -14.5 100.5t-57.5 73.5l-2 -43q-6 16 -33 48q-37 41 -82 53l13 -39q2 4 -45 29q-53 27 -80 26q6 -4 22 -26q-8 4 -16 6q-35 18 -70 20l17 -39q-31 25 -89 19q6 -10 21 -31 q-59 10 -94 -2l18 -23q-31 -4 -106 -30q-4 -4 -140 -41q-45 -14 -129 -82q115 55 220 55q23 0 64.5 -7t62.5 -7q47 0 59 24l-12 -45q49 -4 73 15l-10 -33q33 -14 74 16q-10 -33 -21 -43q-12 0 19 -6q18 -4 35 14l-13 -22q8 -4 17 -8q16 -2 37 10l-21 -20q4 -10 41 -7 q-16 -8 -35 -14q-6 -2 45 -31q-31 0 -39 2q-2 -16 47 -59l-30 8q-10 -27 37 -92q-12 8 -35 25q-14 -29 28 -101l-38 21q0 -20 32 -109l-32 21q0 -12 -2 -27q4 -35 36 -86l-22 -4q18 -23 67 -64l-18 -4q39 -57 109 -71q4 -2 118 -13q-84 49 -82 76q2 10 7.5 29.5t5.5 21.5 q-6 0 -33 -22q10 12 23.5 31.5t17.5 31.5q-2 6 -4 9.5t-6 3.5q14 4 45 61l-27 -4q51 74 57 100l-34 -12q14 14 24 31q25 39 27 88zM340 911q-47 45 -70 39q-4 0 -8 -4l29 25q-20 18 -45 20l20 17q8 20 -45 20q12 8 33 16q0 23 -31 19l19 8q2 8 -29 25h23q10 6 -21 24 q10 -2 29 -8q2 4 -17 31q8 -8 23 -21q2 4 -6 43l12 -22q4 -6 25 53v-33q6 -4 43 49l-2 -34q10 6 57 47l-8 -29q6 -10 53 35l-2 -19q16 10 53 39l-2 -16q35 18 176 63q-35 6 -100 33q-33 16 -66 35q-2 -10 13 -31q-47 55 -72 64q0 -16 4 -27q2 4 -29.5 17.5t-58.5 13.5l8 -19 q-39 10 -102 15l22 -23q-27 8 -43 8q-39 0 -73 -20l22 -12q-20 -2 -39 -4q-47 -14 -78 -54q12 -2 31 -6q-2 6 -36 -24.5t-42 -61.5q10 6 33 17q-51 -43 -51 -107q0 -16 6 -29l22 23q6 -102 11 -111l14 29q-2 -2 10.5 -43t30.5 -55q-2 14 0 26q2 4 6 -12q8 -31 31 -49l10 33 q0 -14 45 -58q0 8 2 29q-2 -2 19.5 -18.5t42.5 -24.5l-2 25q23 -12 82 -23q37 -4 108 -18q39 -4 111 26q-25 -2 -47 -2q-99 0 -154 51z" />
<glyph unicode="&#xab;" horiz-adv-x="1128" d="M659 1356q35 51 86 153q-55 -78 -225 -266q-88 -82 -84 -121l-12 35q-20 -20 -51 -78l-11 23q-18 -12 -53 -80q-12 20 -8 37q-12 -8 -22 -17q-23 -23 -27 -47l-6 19q-25 -16 -64 -72l-4 23q-27 -18 -76 -68q-8 16 4 31q-12 -2 -28 -13l-15 -8l-6 -6l-4 -4h-2v0l-41 -160 v0v0v0l2 -2q18 -16 45 -28q-23 -4 -32 -2q31 -29 92 -72l-27 -4q4 -12 16 -25q27 -31 84 -57q-20 0 -34 4q23 -27 96 -76l-33 -6q18 -18 100 -70l-30 -2q12 -18 82 -57l-13 -8q49 -31 82 -43l-10 -8l221 -140q-35 39 -92 127l-45 94q-8 -2 -6 -34q-8 45 -29 116 q-10 -10 -12 -20q-10 35 -49 111l-6 -19q-20 47 -54 113l-6 -29q-25 51 -59 117l-4 -23q-4 16 -29 70q2 2 6 4l-10 2q0 2 -6 10q57 20 94 56l-33 2q78 43 107 77q-8 -4 -31 -8q6 6 14 11q33 20 58 47l-35 4q23 12 72 65q-8 -2 -31 -4q23 23 65 84l-24 -6q20 31 61 109 q12 28 92 139zM520 897zM1128 1356q35 51 86 153q-55 -78 -225 -266q-88 -82 -84 -121l-12 35q-20 -20 -51 -78l-11 23q-18 -12 -53 -80q-12 20 -8 37q-14 -8 -22 -17q-23 -23 -27 -47l-6 19q-25 -16 -66 -72l-2 23q-29 -18 -76 -68q-8 16 4 31q-8 0 -28 -13l-15 -8l-6 -6 l-6 -4l-43 -160v0h2v0l2 -2q18 -16 43 -28q-20 -4 -30 -2q31 -29 92 -72l-27 -4q4 -12 16 -25q27 -31 84 -57q-25 0 -34 4q23 -27 96 -76l-33 -6q18 -18 100 -70l-30 -2q12 -18 82 -57l-13 -8q47 -31 82 -43l-10 -8l219 -140q-33 39 -90 127l-45 94q-8 -2 -8 -34 q-6 45 -27 116q-12 -10 -12 -20q-10 35 -49 111l-8 -19q-18 47 -52 113l-8 -29q-23 51 -57 117l-6 -23q-2 16 -27 70q2 2 6 4l-10 2q0 2 -6 10q57 20 94 56l-33 2q78 43 107 77q-8 -4 -31 -8q6 4 14 11q33 20 58 47l-35 4q20 12 72 65q-16 -2 -31 -4q23 23 65 84l-24 -6 q20 31 61 109q12 28 92 139z" />
<glyph unicode="&#xac;" horiz-adv-x="1683" d="M1462 784q-2 4 -2 7q-18 20 -8 51q4 10 23 8q14 -10 18 -47t6 -39q18 -4 29 18q12 23 -10 72q-33 43 -72 35q-23 -18 -32 -52t-11 -36v0q-4 -6 -17 -6q-16 -18 -18 -29q4 -37 35 -41q25 0 29 2q31 6 30 47v10zM1163 973q-10 -2 -10 -4q8 -25 27 -37q6 -2 12 8 q0 19 -29 33zM1075 961q-2 0 -6 -3q6 -14 21 -36q41 -23 45 -23l-5 19q-16 14 -55 43zM1327 899q-8 0 -14 -6q0 -25 41 -47q12 0 12 12q2 8 -39 41zM1133 711q-29 16 -31 -6q8 -31 8 -56q0 -18 -6 -33q4 -10 4 -22q0 -18 -8 -33q2 -16 4 -16q29 18 49 125q3 29 -20 41z M403 426zM195 326v2h-2zM418 406v0l4 -3q-2 3 -4 3zM293 184q6 0 10 -2v0zM270 219zM489 252l3 -2zM545 14zM973 -12q0 4 2 6l-2 -4v-2zM852 -51zM975 0q0 6 2 16l-2 17q-2 0 -2 4l-6 12l-2 4q4 10 4 21q0 33 -33 49h-4l-12 2l-11 4q-6 0 -14 -2h-6q-10 16 -33 16 q-6 0 -14 -2l-4 -2q-4 0 -11 -2l-6 -10h-12q-6 4 -16 4l-17 -2h-4q-14 8 -31 8h-16l-12 6q-2 0 -4 2l-11 7q8 6 9 18q-2 47 -56 59v0l-6 2l-29 5l-2 2h-4l-10 8q-14 4 -25 4q-16 0 -30 -14l-2 2q-4 2 -11 4h-8q-6 4 -8 0l-12 -2l-2 2l-10 8q-12 4 -19 6q-10 20 -31 29l-2 2 l-2 6l-4 2v2l-8 8l2 4q14 18 14 35v2l-4 19v6l-6 8v4l-10 20l-10 9v2q-14 10 -43 37q-4 2 -13 2l-6 2h4q-18 6 -30 6q-4 -2 -7 -2q-41 8 -77 -23l-7 -6q10 6 27 8l-31 -8q-2 0 -8 -6l-8 -12l-6 -6l-4 -15v2q-6 -6 -6 -16v-2q6 8 14 24l-18 -28v-13q0 -6 2 -10v-20 q2 -23 12 -43q2 -2 8 -17l23 -20q4 -6 8 -8l8 -4q8 -12 18 -15l-2 -6q6 -20 21 -27l10 -4l-18 15l18 -17h2l4 -4h-2l-2 4q4 -12 12 -20l15 -8q6 -2 18 -11v0v-2q12 -18 31 -24v0h2q4 -8 10 -13l2 -4l8 -4q12 -6 25 -14l16 -12q8 -4 23 -13l22 -4v-2l23 -18q2 -2 8 -2v-2h2 l23 -11h-4l6 -4l35 -4q8 0 18 6q4 -6 16 -20v0v0q2 -2 9 -8l30 -13q6 -2 31 5q10 -12 27 -15q-4 0 -15 4l25 -6q-12 2 -16 4l4 -2q12 -2 24 -6l-8 4h27l4 -4l6 -4l22 -2h4l23 2q6 2 8 4q6 -4 15 -6l20 -4h27l4 2h4q8 -2 22 -2v0h2l9 2l34 16l7 6l10 17zM772 129zM762 129h-2 l-6 -2zM457 258zM444 254zM317 459zM313 459zM238 383q-2 -2 -2 -4q0 2 2 4zM258 233l10 -2q-4 0 -10 2zM299 190l-2 3v2q2 -3 2 -5zM287 254l-4 10q-8 2 -21 8l-10 13q-2 2 -8 10q-6 18 -15 39q-2 2 4 14q-6 4 -4 17q2 4 4 6l3 2l6 10q2 8 10 16l2 4l6 5q33 20 57 14l5 2 q18 0 22 -6h6q10 -8 25 -15l4 -4l18 -26l2 -8q4 -14 4 -21q0 -10 -22 -27h-10q-4 2 -6 7q2 2 2 6v2q2 0 2 2v0q6 12 8 14q0 10 -6 27q-8 6 -25 22l-18 6h-21q-2 -4 -8 -6v-2q-14 -8 -29 -24q0 -4 -7 -24.5t-7 -27.5q0 -8 18 -24q2 -6 9 -6q16 0 32 22q-4 10 -10 23 q-4 10 4 12q6 0 45 -47q0 -4 -4 -10h-14l-17 -10q-12 -9 -32 -25zM281 375q-2 -2 -7 -2h2zM307 176zM360 186q-4 0 -8 -2q0 -2 -2 0q-4 2 -18 23q-4 2 -13 8l-6 4q-6 2 -8 10q0 6 12 25q4 0 7 2q6 0 12 -2q2 2 10 2l4 -2h27q2 4 2 10t-4 8h-13q-2 -2 -14 4q-2 6 6 11 q2 2 8 2q2 -2 5 -2q4 2 24 2q10 -4 12 -17l5 -4q0 -10 -25 -39l-2 -4q-6 -4 -21 -22l-4 -8q8 -7 4 -9zM391 117zM399 113zM434 137q0 -2 3 -7t3 -7q-2 -4 -6 -6q-6 4 -20 14q-2 6 -2 8q0 4 2 6q-4 0 -13 9h-14q-6 4 -16 20q0 4 6 12v4q6 8 18 27q4 4 13 14l4 5q2 4 0 6 q-2 6 -4 6v2q4 6 8 6q10 -4 22 -16q2 -2 0 -9q-20 -16 -39 -47q-2 -2 -2 -8q0 -14 17 -14q25 0 37 41v4q-4 2 -5 4q0 10 13 10q14 -4 26 -14q-2 -2 -10 -14l-24 -33q-7 -7 -17 -23zM516 31zM506 164l-4 -4l-23 -43q2 -4 17 -19q0 -4 -11 -8q-10 0 -16 6q-14 10 -20 21 q2 6 22 30q2 2 4 7v2q4 4 6 16q2 0 0 2q4 4 6 8v11l-6 10q4 6 6 6q2 -2 6.5 -3t8.5 -3q4 0 7 1l9 3q8 -8 8 -6q-2 -2 -4 -8q2 -4 4 -7l13 -8q0 -6 -4 -10q-6 0 -11 2zM614 -4q2 0 4 -2q-2 2 -4 2zM616 90l-12 19q-6 6 -12 8l-2 -2q-2 2 -10 -2q-6 -14 -15 -39q4 -10 10 -23 v-2l-4 -4q8 2 -20 8q-10 4 -33 21q-8 6 14 10q8 20 31 51v8q4 4 12 27q0 6 7 20q-6 8 -11 17q0 4 2 4l37 -10q2 -2 8 0q16 0 41 -15q8 -8 9 -16q0 -4 -4 -6l-2 -6q-2 -4 -9 -4h-2q-2 6 -8 18v-2q-2 -4 -4 -6l4 8l-10 4q-10 6 -15 10l-26 -34q8 -25 29 -25q8 2 10 2 q4 -2 2 -6v-6q-5 -9 -17 -27zM705 31q-25 -18 -41 -19q-33 8 -37 37q-4 2 -6 10q-4 23 18 47l25 11h16q4 0 12 -4l6 -7q16 -16 19 -22v-14q0 -12 -8 -35q-4 0 -4 -4zM786 -47l5 2q-3 -2 -5 -2zM809 51q0 -2 -2 -4v-2q-2 -6 -4 -14q-2 -10 0 -19q2 -8 2 -12q-2 -2 -2 -4 l-4 -8h-4q-2 2 -7 2h-8q-10 0 -10 10q0 4 3 6t3 4q12 16 10 37q0 4 2 10q0 16 -12 21l-12 -2h-2l-6 -6q-8 -37 -8 -58l4 -10q-4 -10 -13 -6q-6 2 -24 6q-4 2 -2 8q14 6 14 19v0h2v18q0 6 4 23q4 20 -10 20l-2 2v2q4 2 10 4h10q10 0 15 -2l8 -4l8 2h4q8 2 12 2q2 -2 5 -2 l8 -4l4 -6q2 -6 4 -16v-17zM819 127zM926 -6l-4 -4q-4 -2 -17 -4q-4 0 -18 2q-2 0 -4 2q-2 -4 -13 -4q-4 -2 -8 0q-16 0 -26 10v8q0 10 2 27q2 4 2 6l-4 24v7q-4 6 -15 16q-2 6 0 8h6q43 14 27 14h4q0 -14 8 -14h17q4 -2 4 -8v-2q10 10 18 10q6 0 10 -4h7q8 -4 10 -10 q2 -4 0 -10q-2 -2 -6 -2h-8q-12 12 -17 12l-2 -2q0 -4 2 -8q12 -6 35 -48q2 -4 4 -6q0 -8 -14 -20zM360 240l-8 2h-8q-10 6 -12 -9q0 -10 8 -14q10 -2 22 17q0 4 -2 4zM874 63q0 6 9 15q-4 0 -17 -8q-2 -2 -10 -17v-10l2 -8q0 -6 4 -25q0 -6 8 -8l4 2h7q0 4 2 6q4 2 14 -4 l8 -6q6 0 13 6q0 12 -17 24.5t-27 32.5zM684 92q-4 2 -10 6q-10 2 -20.5 -10t-8.5 -22q0 -10 12 -25l7 -10q31 -8 30 22v4q2 2 2 4v15q-2 6 -12 16zM909 129v0q2 0 4 -2q-2 2 -4 2zM643 172zM330 1090q-12 10 -25 10q-2 0 -10 -2t-12 -2q-10 4 -15 4q-8 -6 -15 -11.5 t-7 -11.5q-6 -18 -6 -61l2 -4h2q2 12 4 16t2 2q2 -4 3 -9t3 -11q6 0 16 8l9 -8h4q2 0 2 -2q14 0 18 8q2 10 -6 10l-12 -8q0 2 -2 4q8 0 6 12q10 -2 16 6v17q8 0 8 -8q0 -2 -5 -11.5t-3 -11.5q2 -6 10 -16h5q2 10 8 26q0 4 2 13.5t2 15.5v6q-2 9 -4 19zM260 1077q6 0 12 -6 q-4 -4 -14 -6q-2 4 2 12zM268 1032l2 -2q-4 -4 -12 2l2 6q0 2 -2 2h-2v2q0 4 2 5q4 -2 10 -9l4 2zM274 1065zM293 1077v-6h-2q0 4 2 6zM287 1034v4q2 0 4 -2q-2 -2 -4 -2zM305 1067q-2 -4 -2 -8q-10 -6 -14 -6v4q4 2 10 6q0 4 4 8q2 -2 2 -4zM313 1077h-4q-2 4 4 4 q2 -4 0 -4zM328 1110q2 6 4 18q-4 4 -8 2h-19l-2 -2q0 -18 25 -18zM244 1270q-4 0 -6 -4v0q2 -2 2 -4h-2v-2l4 -3h28q18 -2 31 3l2 6q-2 2 -4 2l-8 -2q-6 0 -6 6l6 2q-18 2 -15 2q-6 0 -18 -6h-14zM147 1188q0 2 -2 0l-2 -12q-4 -8 -12 -17h8q4 -2 6 -2q4 2 5 8v13 q-3 6 -3 10zM168 1178q-2 -2 -2 -7q0 -6 6 -14q4 -4 8 4l-2 10q-4 7 -10 7zM1296 1176q2 -2 7 -9q2 10 0 17q-7 4 -7 -8zM1690 782q0 254 -150 459q0 6 -6 26.5t-4 30.5q14 -6 16 -4q6 4 6 27q2 25 -20 63q-37 47 -37 52v0q4 0 10 -4q6 0 13 10v8q-57 68 -146 92 q-47 14 -39 23q6 -4 10 6q2 6 -16 18q-4 2 -10 2q-12 0 -32.5 -8t-29.5 -8q-14 0 -26 14q-14 0 -33 19q-27 6 -33 24q-23 27 -82 47l-8 -4q12 -16 37 -43q-8 4 -27 21q-39 12 -86 37q-14 -4 -39 6q-16 2 -86 0q-4 -2 -8 -13q6 -2 4 -4h-20q-27 0 -96 -24q-23 -2 -47 -17 q2 6 2 -14q-41 -33 -86 -43q-25 -12 -62 -51q-4 -10 21 -19q-23 -6 -60 -36l-10 -19q-94 -55 -166 -133q-23 6 -41 8h-12q-14 -2 -31 -2h-16q-8 0 -25 2h-33q-23 -6 -59 -6q-10 0 -64 -4q-10 -2 -16 -2q-6 2 -8 2q-6 0 -23 -14q-6 -14 -6 -25q0 -8 4 -12q-4 -8 -4 -17v-16 q4 -6 4 -12q0 -4 -4 -15l4 -4q-4 -4 -4 -8v-6q4 -10 4 -14q-4 -12 0 -33q2 -23 2 -31q0 -12 -2 -18q0 -49 17 -119q4 -2 8 -2t12 2t15 0h32q20 0 31 -2q12 2 29 2q-4 0 -11 -2q-23 -94 -22 -193q0 -141 49 -274h-2q-16 -6 -16 -25v-2q-4 -6 0 -12q2 -2 6 -12q4 0 10 -5.5 t13.5 -7.5t7.5 -6q20 0 34 37v6q-4 12 -8 23q-12 10 -29 10l-2 -2h-2q-51 129 -51 270q0 98 27 195h26q-25 0 70 6q4 -4 12 -4q12 4 15 0q14 0 37 -6q18 2 24 6t8 16l2 39v45q0 10 4.5 29.5t4.5 28.5q0 10 -3 14q-6 14 -6 33v55q-2 4 -2 8t2 8q0 4 -2 7v43q-2 6 -2 10v2 q66 66 144 117q-6 -16 -23 -45q-2 -16 12 -23q0 -33 -8 -43q-8 -18 -8 -35q0 -27 18 -47q0 -16 -8 -45t-9 -40t-9 -32v-28q-37 0 -45 -6q-20 -12 -31 -21q0 -12 -8 -33q-2 -63 4 -82q-4 -37 27 -65q8 -12 8 -35q0 -8 -2 -25.5t-2 -25.5q0 -14 45 -129q39 -55 116 -160 q8 -80 19 -113q18 -55 69.5 -86.5t118.5 -31.5q35 0 68 10l16 4q72 33 117 90q10 4 16 8q27 14 86 33q39 8 131 55q41 31 76 58q12 14 19 28q27 -41 75 -41q12 0 23 4l-2 -2q-8 -23 -25 -63q-74 -106 -202 -180q80 16 155 59q-57 -143 -123 -221q-29 -33 -103.5 -79 t-100.5 -79q178 78 204 94q33 29 68 56l-35 -117q-4 -10 -33 -43q-74 -51 -190 -145q178 72 246 155q27 31 110 217q10 -33 10 -57q0 -45 -34 -104q53 59 118 135q35 37 58 112q41 -72 98 -129q-53 100 -70 203q134 196 134 438zM346 1120q-2 -10 -2 -18v-12q0 -6 -4 -13 q4 -25 -2 -71q-4 -10 -19 -21q-16 0 -47.5 3t-48.5 3h-16q-12 -4 -33 -4q-27 2 -33 0q-10 0 -22 4q-6 -2 -21 2q-4 0 -20 2q-8 0 -20.5 -3t-18.5 -3q0 6 -2 27q0 6 2 10h2l4 -4q8 -27 16 -27q2 4 9 9v14q2 8 2 14l-11 47q0 2 2 4l-2 2q2 0 7 -2q10 -45 10 -71q2 -4 6 -8 q8 4 12 12q-2 23 -10 78q-4 16 -6 30q-2 4 -6 19l-2 20q-2 8 -2 25v74q0 14 2 26q-6 10 -11 10q-6 0 -24 -10q0 -4 -2 -14v-17q0 -6 2 -14q0 -6 -2 -24v-27l2 -25q0 -4 2 -16q0 -8 -4 -14q0 -10 10 -68l2 -14q0 -6 -8 -13q-2 2 -4 9q0 47 -8 77q0 10 -2 30t-2 30q-2 27 0 37 q-2 20 10 69v13q33 0 51 10q4 2 14 0h13q2 -2 2 -4q0 -4 -2 -6h-7q-6 2 -16 -13q0 -8 -3 -24.5t-3 -24.5v-39q-6 -4 -8 -8q12 -10 12 -41v-6q0 10 8 -41q4 -8 6 -25l2 -18q2 -4 13 -49q2 8 10 20l10 -6l8 4q2 2 4 2q4 0 7.5 -2t7.5 -4q0 -6 -4 -10h-6q-8 0 -17 8 q-4 -4 -6 -12l2 -12q0 -4 4 -7h10q35 -2 84 13v8q0 8 -2 24.5t-2 24.5v8q2 2 2 8v13q2 4 9 6q14 0 34 12q0 8 -4 19q-6 2 -10 2t-10 -2q-6 2 -21 0q-14 -2 -20 -2q-8 0 -15 4l-2 -2h-6l-1 -5q-1 -4 -7 -4l-10 9h-12q-6 0 -9 -5q0 -2 2 -4q0 -4 -2 -6q-8 8 -28 37q2 -4 16 31 q6 14 8 18l-10 -8q0 2 -2 2q-2 -2 -8 -2q-8 0 -4 14l6 7q8 4 8 8l2 2q4 -16 12 -15q0 29 7 37l14 2q-2 -10 -8 -28v-13h6q4 2 8 9.5t16 19.5q0 -4 -2 -12t5.5 -11.5t9.5 -9.5q0 -4 -2 -4q-20 -4 -21 -12l6 -10l13 -23q4 -6 10 -6l6 6q4 4 8 2v-10q-4 0 -6 -2q2 -4 10 -2h15 q2 0 6 2h43q6 0 20.5 -2t22.5 -2h6q2 4 4 12v6l-2 4q-2 6 -1 10.5t1 6.5q0 10 -4 35q-4 2 -10 2q-4 0 -15 -2q-8 -4 -16 0v-5q-2 -4 -2 -8q6 -31 2 -35h-4q-2 12 -13 33q-6 0 -18 -6l-4 2q-2 0 -4 -2q0 -25 -6 -33q-8 2 -8 19v26q-4 2 -9 9q2 6 23 10q6 0 20 6h2q4 -2 9 -4 l6 6q6 0 14 -6h29q2 6 2 10t-2 10v17l-2 2q2 12 -4 33q-2 2 -9 4h-10q-14 2 -55 -2q-10 2 -27 2q-16 0 -37 -2h-8q-4 0 -10 2q-18 2 -41 -15l-2 -8q0 -8 20 -8q2 2 7 6l14 -4q6 -2 20 -4q0 -4 -6 -6h-33q-27 0 -43 -62v-8q-2 -6 -2 -8q0 -6 2 -8q-2 -6 0 -6h-2q-4 0 -4 4 l-2 12q0 8 13 74q6 8 6 26q0 10 -2 23l2 2h20l21 -2q16 0 37 6q10 -2 51 -2h57q2 0 8 -2t8 -2t5 2q8 0 16 -4q2 -6 10 -13v-38q0 -23 2 -39q0 -27 -4 -103zM45 1212v23q0 6 4 18q2 -2 2 -6v-6q4 -14 6 -51q4 -6 4 -10q0 -12 -6 -13q-4 4 -6 9q-2 -10 -2 0q-2 11 -2 36z M117 1081q0 6 4 13q4 -4 8 -21v-14q0 -4 -4 -4q-4 2 -6 4v12q-2 8 -2 10zM176 1079q-8 4 -16 6h-10q-4 0 -9 21q0 6 2 6q0 -10 7 -14q10 0 26 4q4 -6 4 -12q0 -5 -4 -11zM190 1024q-2 -2 -8 -4q-4 0 -4 2q-2 8 2 12q10 0 10 -10zM205 1071q0 8 2 12q2 0 4 -6q0 -6 -2 -8 q-2 0 -4 2zM209 1206q0 4 2 8q2 -2 2 -4q-2 -2 -2 -4h-2zM315 1286q2 -2 2 -4q0 -4 -2 -8l4 -8q0 -12 -6 -19l-10 -2q-61 0 -88 -16v8q0 8 8 37q6 12 33 18q12 0 16 -4q14 -2 43 -2zM307 1292q0 4 2 6q4 -2 6 -4q-2 -2 -6 -4zM1522 1309q-10 10 -13 20q11 -16 13 -20z M1278 1378q-8 16 -43 25q12 0 29 16q2 8 18 11q47 -18 53 -19q8 0 17 2q4 10 -9 19q-18 8 -57 18q-10 8 -16 8q33 0 98 -12q4 4 4 10q-6 4 -16 14l-15 7q29 -6 78 -33q4 -4 11 -4q6 0 10 6q8 12 -6 20l-4 9q6 2 36 -21l11 -22q-14 2 -21 2q-6 0 -8 -2q4 -8 4 -29 q-6 0 -16.5 6t-12.5 6q-6 0 -10 -6q0 -8 4 -14l-2 -2l2 -4q-20 4 -24 -7q4 -8 4 -20q0 -14 -4 -31q-20 35 -33 35q-8 -2 -10 -16q2 -20 2 -25q-14 14 -25 12q-14 -10 -8 -32l6 -33v2q-23 39 -27 41q-16 20 -34 22q-8 23 -35 39q4 2 18.5 -4t18.5 -6q10 0 12 12zM1466 1210 l-2 -4l-2 4h4zM944 1669q25 -4 70 -27q-4 2 -49 17q-16 0 -45 10h24zM848 1649q14 2 18 2q4 -2 13 -9q-6 0 -16.5 3.5t-14.5 3.5q-2 -2 -8 0h8zM819 1649q-6 -2 -8 -2q2 2 8 2zM805 1647l-12 -2q2 4 12 2zM780 1649v-7q-12 0 -16 3q4 4 16 4zM707 1581q27 23 36 23l-6 -9 q-8 -8 -8 -12q0 -14 14 -14q37 18 88 39l-14 -4q-8 -4 -16 -17q0 -4 4 -10q20 8 98 20q-6 0 -16 -10l-60 -20q-8 -10 -4 -23q18 -4 70 25q6 0 18 -10q10 0 29 -15q-31 -10 -41 -31q4 -8 12 -8q6 0 19.5 7.5t17.5 7.5q-23 -18 -33 -41q-31 -6 -53 -70l-4 -2q0 10 6 35 q4 25 -12 31q-6 2 -25 -13q0 6 4 23q-4 14 -14 18q-12 -4 -18 -20.5t-13 -20.5q0 18 -2 53q-4 8 -24 7v0q2 2 0 2q4 8 2 16q-4 6 -8 6t-14.5 -7t-14.5 -7q4 10 2 29q-2 6 -29 -3q-1 11 9 25zM510 1290zM444 924q-4 0 -12 6q-18 76 -14 119q8 8 12 8q-4 -4 -4 -17 q20 -37 37 -32l12 -33q0 -20 -31 -51zM948 422q-29 -12 -84 -33q-6 2 -22 -2q-23 20 -23 78q16 12 12 27q-10 10 -40 8q-37 -2 -48 2q-45 23 -36 22q-16 0 -17 -16q0 -10 19 -25q-8 -57 -25 -57q-6 0 -14 12q-68 8 -68 103q0 55 21 121q8 -14 24 -60q35 -57 92 -70 q35 -16 64 -16q20 0 35 8q35 10 94 64q10 4 20 10q23 -70 23 -115q2 -8 2 -14q0 -22 -29 -47zM670 649q23 -4 41 -14q96 -20 137 -12q14 -8 37 -5q12 4 35 9v-2q-2 -8 -5 -7q-18 -37 -104 -36q-53 0 -113 28q-14 12 -28 39zM1022 657q2 2 4 2q14 0 14 -12q0 -20 -14 -59 q0 -4 -2 -6q2 57 -2 75zM1384 549q-45 0 -63 47v0l6 14l6 -14h2q8 -20 41 -33h8q47 0 52 51q0 55 -52 56h-2q-2 2 -2 6t4 6q59 0 66 -68q0 -65 -66 -65zM1384 602q2 -10 9 -18q-6 -2 -9 -2q-20 0 -30 18l-8 10q4 2 6 2q14 -10 32 -10zM1380 647q2 2 4 2t7 -2h-11zM1401 610 l14 2q0 -2 2 -2q-2 -10 -6 -16q-6 8 -10 16zM1397 702q-25 0 -25 -26v-4q-2 -14 8 -19v0q-6 0 -26.5 19.5t-30.5 17.5q-4 0 -16 -20q-8 -98 -136 -164q-23 -16 -129 -51q-4 -8 -20 -11q8 61 12 107q12 2 47 51q0 2 4 53q2 27 -16 41q-29 -6 -82 -2q-37 16 -90 88 q-27 12 -31 9q-25 -25 -55 -25q-16 0 -35 8q-4 2 -29.5 18.5t-37.5 12.5l-50 -39q-33 -10 -53 -10q-18 0 -24 8q-14 4 -31 -21q-2 -8 2 -22l4 -33q-6 0 -14 21q8 10 -17 49q-2 2 -16 -2q-4 -6 -4 -17q0 -8 10 -27.5t11 -28.5t16 -21q6 -2 16 18q8 -16 27 -41q-2 -39 0 -88 q-23 59 -41 80q-12 14 -51 78q-18 121 -15 137q2 25 33 100q6 8 8 15q0 -6 6 -15q18 -10 37 -10q8 0 19 4q16 0 61 -39l14 -10q12 -12 25 -10q8 4 8 10q0 8 -39 35q0 2 -3 3t-3 3q33 -2 51 -19h9q2 8 -9 29q-4 -4 15 -4q33 -31 30 -49l2 -6q76 0 82 -2q-6 0 17 10 q12 -20 24 -14q6 6 6 12t-16 17.5t-18 15.5q-20 20 -146 131q4 2 14.5 -7.5t14.5 -10.5t117 -95l59 -59q4 0 6 4q-2 10 -55 63q-14 10 -131 117q14 6 51 -25q78 -66 164 -155q31 -39 49 -51q8 -4 14 8q2 10 -16 28.5t-21 22.5q-6 0 56 -16q2 4 10 12q31 -10 90 -31 q23 -12 35 -12q16 0 29 12q4 -4 14 -16q4 -4 16 -11q37 0 54 27q0 16 -13 21q8 -2 -26 -9q-6 0 -19 -4q-10 -2 -18 0l6 27q-8 16 -21 12q-16 -27 -34 -20q-10 12 -13 10q-12 0 -33.5 20.5t-29.5 22.5q-35 27 -100 84q0 4 6 8q16 -4 45 -29l43 -38q6 -4 12 2q-23 23 -59 61 q12 0 26 12q0 -2 13 -16l67 -70l35 -43q8 -2 12 4q-4 10 -16 33q-25 23 -70 66q-6 27 23 41l32 10q20 0 46 -31q4 0 20 -25.5t27 -23.5q6 8 4 21q-14 14 -15 34q0 10 3.5 27.5t3.5 28.5q0 20 -21 24q-4 6 -64.5 5t-66.5 3q-51 -23 -76 -41q-8 -12 -28.5 -23t-26.5 -15 q-10 10 -41 18q0 -27 68 -66q6 -10 26 -28l-26 12q-14 16 -50 39q-18 20 -61 43q-2 -10 22 -33q37 -27 101 -88l2 -4q-14 -2 -27 8l-22 25l-125 104q-4 0 -18.5 11.5t-24.5 11.5q0 -10 18 -33q84 -51 158 -131q-2 -6 -8 -6q-10 0 -88 65q-41 37 -97 82q-6 10 -45 18.5 t-45 14.5q-20 10 -26 10q-4 -2 -17 -2q-14 0 -41 2q-10 -8 -34 -26q-2 -6 -14.5 -15.5t-12.5 -11.5q0 -8 8 -18q25 -16 72 -58v-2h2q-8 -4 -25.5 3t-25.5 3q2 -6 4 -16q-8 0 -23 -6q0 -10 -14 69q0 25 39 220q14 33 26 67q29 55 68 90l10 4l21 4l22 -2l21 -10l24 4l23 -4 l12 -20h29l26 -39l-6 4l10 -25l-10 -22l2 -25l11 10l8 17l16 10l14 12l15 23l18 10l23 10l20 6l27 -8l20 8h21l22 3l23 6l24 -6l23 10l22 -13h35q20 -10 39 -24v-2l19 -14l10 -17l18 -14l6 -6q45 -55 46 -125h2q6 -6 2 -21q0 2 -4 4q0 -8 -7 -30q10 4 37 -21h-6l-20 8 q-10 -10 -11 -18q0 -6 18.5 -20.5t18.5 -20.5h-16q-10 -8 -10 -14q0 -10 14 -21.5t29 -21.5q-4 4 -11 4q-23 0 -22 -21q0 -8 18.5 -22.5t18.5 -22.5q-6 8 -11 8q-6 0 -14 -10q-2 -4 25 -31q10 -18 35 -30q8 2 8 10q0 4 -4 8q8 -2 18 -2q10 2 10 25q-4 -2 13 -2q18 8 41 8 q20 0 49 -12q41 -29 49 -89q4 -37 -12 -75q-14 4 -27 4q-16 0 -25 -31q0 -20 21 -22q-2 0 -2 -3q-23 16 -49 17q-12 0 -27 -31v-8q-22 22 -55 22zM586 713q-4 -8 -6 -23v0q0 20 2 23l4 4v-4zM721 963q12 -14 47 -31l4 8l-45 47q-20 14 -57 49q4 0 10 -4q51 -35 139 -123 q-10 0 -26 4q-16 2 -25 0l-20 19q-43 31 -68 57q-31 20 -88 66q-4 0 -12 10l-11 4q-4 -2 -6 -4q0 -4 2 -10q20 -16 58 -54q8 0 39 -28q-25 0 -125 86l2 6q10 8 24 8l53 -24q35 -29 105 -86zM631 1065q6 -6 37 -27q-14 9 -37 27zM1466 563q-6 0 -12 2q4 4 8 13h4q51 0 52 53 q0 51 -52 51h-2q-2 4 -2 8t4 6q66 0 66 -65q0 -68 -66 -68zM1462 653h8q8 -20 27 -28q0 -8 -4 -13q-15 6 -31 41zM1552 629q8 4 21 24q0 4 2 9v10q0 53 -53 53v0q-6 2 -4 10v0l4 4q68 0 67 -67q0 -31 -26 -54v0q-6 -4 -11 -6v17zM1552 686q4 -8 4 -14v0zM1552 367v4 q20 94 13 225q43 27 43 76q0 31 -19 53q12 16 21 74q0 33 -15 94q-25 47 -73 61q-16 6 -15 23l6 29q0 8 -6 21t-6 22q6 10 15 36q8 23 -3 41q6 6 9.5 45t11.5 50l4 4q137 -201 137 -443q0 -227 -121 -420q-2 3 -2 5z" />
<glyph unicode="&#xad;" d="M754 821q-35 18 -60 19q-20 0 -26 -17l14 37q-33 10 -57 -6l8 27q-8 6 -17 6q-20 0 -45 -21q6 31 17 39q-10 4 -19 4q-20 0 -34 -18l6 22q-8 2 -19 2q-27 0 -45 -20l8 25q-6 4 -14 4q-23 0 -51 -25q0 20 12 33q-6 2 -14 2q-25 0 -58 -29q6 25 13 33q-23 10 -68 -37l10 29 q-4 4 -12 4q-23 0 -63 -41q8 23 16 33q-23 12 -72 -37l11 37q-29 -10 -70 -45l10 30q-20 4 -55 -37v19q-31 -23 -51 -45l2 16l-150 -106q57 4 92 -10l58 -29q2 10 -13 33q41 -53 62 -64q0 20 -4 29q33 -33 67 -39l-6 22q55 -33 70 -34l-10 28q29 -31 73 -32l-8 24 q31 -33 74 -31l-2 11l-6 18q35 -27 61 -25l-16 29q43 -43 78 -33l-11 29q29 -23 66 -18l-12 26q43 -18 69 -16q-8 8 -14 20q4 -2 10 -4q18 -12 39 -12l-10 35q12 -18 53 -17q-6 14 -10 27q31 -10 59 -4l-10 20q39 0 72 13q14 4 98 2q20 0 102 32q-23 -4 -47 -4 q-81 0 -151 37z" />
</font>
</defs>
</svg>
